<?xml version="1.0" standalone="no"?>
<!DOCTYPE svg PUBLIC "-//W3C//DTD SVG 1.1//EN" "http://www.w3.org/Graphics/SVG/1.1/DTD/svg11.dtd" >
<svg xmlns="http://www.w3.org/2000/svg" xmlns:xlink="http://www.w3.org/1999/xlink" version="1.1">
<metadata>
Created by FontForge 20170731 at Sun Dec  1 17:18:32 2019
 By Aleksey,,,
</metadata>
<defs>
<font id="EmiraldScript" horiz-adv-x="661" >
  <font-face 
    font-family="Emirald Script"
    font-weight="400"
    font-stretch="normal"
    units-per-em="1000"
    panose-1="2 0 0 0 0 0 0 0 0 0"
    ascent="800"
    descent="-200"
    x-height="369"
    cap-height="677"
    bbox="-2056.04 -475 1095.19 895.993"
    underline-thickness="50"
    underline-position="-250"
    unicode-range="U+000D-2122"
  />
<missing-glyph horiz-adv-x="259" 
 />
    <glyph glyph-name=".notdef" horiz-adv-x="259" 
 />
    <glyph glyph-name=".null" horiz-adv-x="0" 
 />
    <glyph glyph-name="nonmarkingreturn" unicode="&#xd;" horiz-adv-x="259" 
 />
    <glyph glyph-name="NULL" horiz-adv-x="0" 
 />
    <glyph glyph-name="NULL" horiz-adv-x="0" 
 />
    <glyph glyph-name="space" unicode=" " horiz-adv-x="259" 
 />
    <glyph glyph-name="exclam" unicode="!" horiz-adv-x="278" 
d="M43 6q-29 0 -42.5 20t-5.5 48q4 15 13 27.5t21 21.5t26 14t28 5q29 0 42.5 -19.5t5.5 -48.5q-8 -28 -34 -48t-54 -20zM165 254l-69 6l177 475l149 -7z" />
    <glyph glyph-name="quotedbl" unicode="&#x22;" horiz-adv-x="288" 
d="M404 656l-164 -224l-53 17l59 183l-147 -200l-53 17l68 207h290z" />
    <glyph glyph-name="numbersign" unicode="#" horiz-adv-x="479" 
d="M430 290h-74l-44 -102h73l-27 -52h-68l-41 -95l-46 19l32 76h-106l-40 -95l-46 19l32 76h-93l28 52h88l44 102h-88l28 52h82l36 83l45 -20l-27 -63h106l36 83l46 -20l-27 -63h78zM152 188h106l44 102h-107z" />
    <glyph glyph-name="dollar" unicode="$" horiz-adv-x="450" 
d="M35 -168l46 89q-58 17 -74 68q-6 21 -3 43.5t14 41.5q23 35 61 41q19 4 43 -2l9 -3l-5 -8q-7 -16 0 -32q13 -28 51 -22q35 6 53.5 46t23.5 121q-52 -34 -102 -42q-24 -4 -53 -1q-42 7 -66 33.5t-24 68.5q0 22 8 45t23.5 42.5t39 34t54.5 19.5q25 5 47 1q64 -4 75 -49
q5 -21 -5.5 -43.5t-34.5 -40.5l-7 -6l-4 8q-8 17 -21 22t-24 3q-16 -2 -28 -15t-8 -32q1 -11 8 -16t15.5 -6.5t17.5 -1t14 1.5q38 6 76 31q3 58 17 99t32.5 67.5t38.5 39.5t36 16l59 114l45 -23l-55 -106q2 -4 3 -7.5t2 -5.5q6 -26 -15.5 -76t-76.5 -106l-18 -17
q19 -72 13 -137t-35 -114q-22 -37 -54.5 -61t-72.5 -34q-4 -2 -8 -2.5t-8 -1.5q-6 -1 -12 -1.5t-12 -0.5l-55 -106zM356 406q0 4 -1.5 6t-2.5 3t-3 1q-8 -2 -19 -24t-13 -61q27 33 33.5 50.5t5.5 24.5z" />
    <glyph glyph-name="percent" unicode="%" horiz-adv-x="636" 
d="M480 212q39 -12 50.5 -37.5t1.5 -56t-37.5 -61.5t-65.5 -53.5t-83.5 -32.5t-91.5 2q-40 10 -51.5 35t-1.5 56t38 63t66.5 55t84 33t90.5 -3zM298 5q17 -6 39 3t43 26.5t39 40t27.5 44t8 38.5t-18.5 23q-18 6 -39.5 -3.5t-43 -27t-39 -40t-27 -44t-8.5 -38t19 -22.5z
M293 464q39 -12 50 -38t1.5 -56.5t-37 -61.5t-66 -53.5t-83.5 -32.5t-91 2q-40 10 -51.5 35.5t-1.5 56.5t38 62.5t66.5 55t84 33.5t90.5 -3zM111 256q17 -6 39 3t43 26.5t39 40.5t27.5 44.5t8 38.5t-18.5 23t-39 -3t-43 -26.5t-39 -40.5t-27.5 -44.5t-8 -38.5t18.5 -23z
M-38 -15l600 518l32 -38l-600 -518z" />
    <glyph glyph-name="ampersand" unicode="&#x26;" horiz-adv-x="559" 
d="M534 341q7 -26 3.5 -50.5t-11.5 -37.5q-11 -17 -31 -28.5t-49 -12.5q-23 -1 -45 5.5t-43 17.5l-16 -8q22 -11 36 -30q14 -20 16.5 -47t-5.5 -54q-8 -25 -26 -49t-45 -42.5t-62 -30t-77 -11.5q-17 0 -33.5 2t-33.5 6q-84 18 -115 85q-14 31 -12 65.5t19 67.5q23 45 64 78
t92 50l12 4l-9 10q-45 50 -8 123q21 42 61.5 64t91.5 22q24 0 47.5 -6t42.5 -18t30.5 -29.5t11.5 -40.5q0 -20 -8 -34.5t-20.5 -25t-29 -15.5t-33.5 -5q-40 0 -56 24q-9 12 -6 35q7 -5 12 -6t9 -1q11 0 19.5 8t8.5 19q0 14 -13 24q-14 9 -37 9q-26 0 -49 -15t-34 -39
q-11 -23 -6.5 -47t22.5 -44l3 -3q31 4 62.5 2t61.5 -6t57 -8t50 -4q20 0 42.5 4.5t38.5 22.5zM237 206q6 11 27 22l52 30q-26 14 -51.5 25t-50.5 11q-24 0 -46 -13t-38 -33t-24 -44.5t-3 -47.5q7 -33 31 -52t61 -19q30 0 50 14q17 12 17 30q0 13 -9 20.5t-23 7.5h-8
q-3 26 15 49z" />
    <glyph glyph-name="quotesingle" unicode="'" horiz-adv-x="1" 
d="M224 656l-165 -224l-53 17l68 207h150z" />
    <glyph glyph-name="parenleft" unicode="(" horiz-adv-x="356" 
d="M574 642q-92 -56 -170 -121.5t-137 -134.5t-97 -139t-49 -136t6.5 -125t68.5 -105l-85 -111q-74 66 -96.5 143.5t-4.5 160t69.5 166.5t125 163.5t163 151.5t182.5 131z" />
    <glyph glyph-name="parenright" unicode=")" horiz-adv-x="398" 
d="M-228 -186q92 56 170 121.5t137 134.5t97 139.5t49.5 136.5t-6 125t-68.5 105l85 110q74 -66 96 -143.5t4.5 -159.5t-69 -166.5t-125 -164t-163 -152t-182.5 -130.5z" />
    <glyph glyph-name="asterisk" unicode="*" horiz-adv-x="453" 
d="M422 563l-91 -113l122 75l13 -86l-132 -26l70 -53l-70 -63l-45 77l-32 -89l-108 1l88 109l-121 -73l-14 85l125 24l-71 56l71 63l51 -87l36 101z" />
    <glyph glyph-name="plus" unicode="+" horiz-adv-x="354" 
d="M85 109l33 91h-116l28 51h106l40 108l47 -17l-33 -91h116l-27 -51h-108l-39 -108z" />
    <glyph glyph-name="comma" unicode="," horiz-adv-x="296" 
d="M107 146q28 0 41.5 -19.5t5.5 -47.5q-4 -14 -13 -26t-20 -21q-1 0 -1 -1l-121 -94l-27 28l58 61q-19 19 -10 53q8 28 33.5 47.5t53.5 19.5z" />
    <glyph glyph-name="hyphen" unicode="-" horiz-adv-x="320" 
d="M218 200h-176l27 52h176z" />
    <glyph glyph-name="period" unicode="." horiz-adv-x="269" 
d="M53 7q-29 0 -42.5 19.5t-5.5 48.5q9 29 34.5 48.5t54.5 19.5q28 0 42 -19.5t5 -48.5q-8 -29 -33.5 -48.5t-54.5 -19.5z" />
    <glyph glyph-name="slash" unicode="/" horiz-adv-x="453" 
d="M-198 -115l857 812l35 -36l-858 -812z" />
    <glyph glyph-name="zero" unicode="0" horiz-adv-x="424" 
d="M292 419q39 -11 59 -36.5t25 -60t-4.5 -75t-30 -79.5t-50.5 -73.5t-67 -58.5t-79 -34t-87 1q-39 10 -59.5 35.5t-25 60t5 75t30 80t51 75t67.5 59.5t79 33.5t86 -2.5zM102 42q23 -7 49 13.5t50 55.5t42.5 78.5t27 83.5t4 69.5t-27.5 36.5t-49 -13t-49.5 -55t-42.5 -78.5
t-27.5 -83.5t-4 -70t27.5 -37z" />
    <glyph glyph-name="one" unicode="1" horiz-adv-x="282" 
d="M2 276q32 7 64.5 25.5t61.5 43.5l32 91l99 -7l-158 -454l-99 6l99 285q-39 -33 -81 -55z" />
    <glyph glyph-name="two" unicode="2" horiz-adv-x="376" 
d="M304 375q10 -27 12 -55t-7.5 -57t-32 -59.5t-60.5 -62.5l-57 -46q14 -8 27.5 -16.5t27.5 -10.5q17 6 39 17t46 28l26 -32q-38 -32 -80.5 -60.5t-80.5 -45.5q-12 -5 -30.5 15t-42.5 55q-32 -23 -61.5 -41t-50.5 -29q-11 -5 -26.5 15.5t-21.5 74.5q11 8 22 15l22 14
q20 11 43.5 20.5t46.5 11.5l60 51q22 20 48 45t47 49.5t33 45t6 32.5q-9 17 -31 19t-46 -12q-33 -20 -55 -47t-33 -56q-5 -14 -18.5 -17t-24.5 7l-46 39q24 51 63.5 91.5t85.5 58.5q51 20 92 2.5t58 -59.5z" />
    <glyph glyph-name="three" unicode="3" horiz-adv-x="394" 
d="M39 341q38 36 67 58.5t67 40.5q17 8 31 4t28.5 -13t30 -19.5t34.5 -15.5l52 40l33 -80l-163 -83q30 -4 50 -21t28.5 -42t5.5 -55t-19 -60q-21 -40 -52.5 -65.5t-67 -38.5t-70 -14t-61.5 8q-21 7 -38.5 21t-28.5 33t-14.5 42.5t3.5 50.5q8 31 29 49.5t44 22.5t44 -8.5
t29 -43.5q-26 -7 -41.5 -24.5t-21 -37.5t-1 -37t18.5 -22q32 -11 65.5 14t62.5 74q15 25 20.5 48t2.5 40t-13.5 27.5t-28.5 10.5l-32 -16l-17 27l123 95q-25 6 -56 6t-51 -6q-17 -6 -32 -18.5t-35 -26.5z" />
    <glyph glyph-name="four" unicode="4" horiz-adv-x="394" 
d="M-24 197q35 16 73 40t74.5 53t70.5 61.5t61 64.5l7 20l88 -7l-98 -281q20 11 42.5 23.5t39.5 23.5l26 -32q-32 -27 -67 -51.5t-68 -41.5l-33 -95l-88 6l30 88q-23 7 -50.5 19t-53.5 32q-7 -5 -14 -9t-14 -9zM216 304q-29 -37 -63 -74t-72 -70q36 -10 79 -18z" />
    <glyph glyph-name="five" unicode="5" horiz-adv-x="361" 
d="M124 260q44 9 78 -3.5t54 -39t24.5 -62t-11.5 -71.5q-18 -41 -47.5 -65t-63.5 -34.5t-68 -9.5t-61 10q-44 14 -67 53t-11 89q6 25 25 41t40.5 19t41.5 -7.5t28 -38.5q-24 -9 -38 -25.5t-17.5 -33.5t2 -31.5t19.5 -19.5q32 -11 62.5 7.5t54.5 69.5q13 27 14 49t-7 37.5
t-24 23t-37 5.5l-48 -2l-39 45l78 170l92 -7q2 2 5 2q23 -9 43 -22.5t39 -17.5q17 5 39 16.5t46 28.5l26 -32q-38 -33 -75 -55.5t-75 -39.5q-6 -3 -16.5 -2.5t-24 4.5t-28 12t-28.5 21l-57 -87z" />
    <glyph glyph-name="six" unicode="6" horiz-adv-x="328" 
d="M312 426q-23 -14 -47 -33.5t-47.5 -41t-45.5 -45t-41 -45.5q36 15 65.5 9.5t46.5 -27t19 -56.5t-19 -78q-17 -37 -45 -66t-59 -46q-48 -27 -85.5 -15t-60.5 52q-29 51 -22.5 118t58.5 135q22 29 56.5 59t72 56t74.5 45.5t65 28.5zM162 146q16 35 14.5 53.5t-13.5 25.5
t-31 3.5t-37 -11.5q-14 -18 -22.5 -30t-12.5 -18q-23 -39 -30.5 -70.5t11.5 -45.5q11 -8 28 -2.5t32 18.5q22 17 36.5 36.5t24.5 40.5z" />
    <glyph glyph-name="seven" unicode="7" horiz-adv-x="339" 
d="M-3 341q39 36 68 58.5t67 40.5q18 9 34 3.5t32 -16.5t34 -22t41 -13l38 44l59 -10l-9 -50l-59 -22l-248 -390l-92 69l275 317q-29 -9 -49 -9.5t-35 3t-27.5 8.5t-26.5 7q-17 -10 -36 -24.5t-39 -28.5z" />
    <glyph glyph-name="eight" unicode="8" horiz-adv-x="428" 
d="M302 426q49 -13 68.5 -41t13.5 -58t-35 -56.5t-76 -36.5q35 -19 48.5 -48t9.5 -60.5t-25 -61.5t-56 -50.5t-82.5 -28t-104.5 6.5q-41 10 -64.5 31.5t-31.5 48.5t-1.5 56.5t26 55.5t50.5 45.5t72 26.5q-25 16 -34 38.5t-4.5 45.5t22 44.5t47 35t69 16.5t88.5 -10zM110 33
q24 -8 45.5 0.5t37.5 27t26 42.5t10.5 47.5t-9.5 43t-34 27.5t-45.5 -1t-38 -27.5t-26.5 -43t-10.5 -48t10 -42.5t34.5 -26zM203 268q24 -8 44 6.5t30 36.5t6.5 44.5t-27.5 30.5q-16 5 -30.5 -0.5t-25.5 -17t-18 -26.5t-7.5 -30t6 -27t22.5 -17z" />
    <glyph glyph-name="nine" unicode="9" horiz-adv-x="343" 
d="M-48 -5q24 13 48 32t47 41.5t45 46t41 45.5q-35 -15 -65 -9.5t-47 26.5t-19 55.5t19 78.5q17 37 45 66.5t59 46.5q48 26 91.5 15t65.5 -53q28 -51 17.5 -117.5t-64.5 -135.5q-23 -29 -57 -58.5t-71.5 -55t-74 -45.5t-64.5 -29zM102 275q-11 -23 -9.5 -40.5t11 -27.5
t26.5 -11.5t38 7.5q14 17 23 30t13 19q12 19 21.5 38.5t14.5 36.5t4 30.5t-9 21.5q-6 4 -15 2.5t-19 -6t-20 -11t-18 -12.5q-21 -17 -36 -37t-25 -40z" />
    <glyph glyph-name="colon" unicode=":" horiz-adv-x="271" 
d="M53 7q-29 0 -42.5 19.5t-5.5 48.5q9 29 34.5 48.5t54.5 19.5q28 0 42 -19.5t5 -48.5q-8 -29 -33.5 -48.5t-54.5 -19.5zM136 229q-29 0 -42.5 20t-5.5 49q8 28 34 48t54 20q29 0 42.5 -20t5.5 -48q-4 -15 -13 -27.5t-21 -21.5t-26 -14.5t-28 -5.5z" />
    <glyph glyph-name="semicolon" unicode=";" horiz-adv-x="271" 
d="M97 146q28 0 41.5 -19.5t5.5 -47.5q-4 -14 -13 -26t-20 -21q-1 0 -1 -1l-121 -94l-27 28l58 61q-19 19 -10 53q8 28 33.5 47.5t53.5 19.5zM136 229q-29 0 -42.5 20t-5.5 49q8 28 34 48t54 20q29 0 42.5 -20t5.5 -48q-4 -15 -13 -27.5t-21 -21.5t-26 -14.5t-28 -5.5z" />
    <glyph glyph-name="less" unicode="&#x3c;" horiz-adv-x="372" 
d="M56 221l248 150l27 -41l-180 -109l84 -104l-57 -53z" />
    <glyph glyph-name="equal" unicode="=" horiz-adv-x="398" 
d="M327 259h-275l27 52h275zM277 150h-275l27 51h275z" />
    <glyph glyph-name="greater" unicode="&#x3e;" horiz-adv-x="410" 
d="M22 112l209 109l-84 104l58 51l121 -155l-278 -152z" />
    <glyph glyph-name="question" unicode="?" horiz-adv-x="384" 
d="M146 494q-24 14 -34 39t-3 56q4 22 17.5 45t36 43t53.5 35.5t71 21.5q33 5 57 2q38 -5 67.5 -24t46 -49t18 -69t-15.5 -82q-15 -36 -40.5 -64.5t-57 -48t-67.5 -30.5t-71 -12l-49 -103l-69 6l37 126q49 6 86.5 24t63 42.5t40.5 53.5t20.5 57t1.5 52t-15 39
q-14 18 -29.5 24.5t-30.5 5.5t-27 -8.5t-18 -17.5q-18 -26 -8 -48q8 -15 24 -16q6 -2 15 0l4 1l3 -4q30 -39 10 -74q-11 -22 -35.5 -33t-53.5 -8q-26 3 -48 18zM53 6q-29 0 -42.5 20t-5.5 48q8 29 34 48.5t55 19.5q28 0 42 -19.5t5 -48.5q-8 -28 -34 -48t-54 -20z" />
    <glyph glyph-name="at" unicode="@" horiz-adv-x="621" 
d="M435 492q45 -12 73.5 -41t40.5 -68t8 -84t-24 -88q-14 -28 -36.5 -55t-49.5 -51t-56.5 -43.5t-55.5 -32.5q-8 -4 -17 0t-13 12q-9 19 -10.5 41.5t2.5 47.5q-60 -68 -127 -102q-8 -4 -17.5 -2.5t-15.5 8.5q-25 28 -31.5 64.5t4.5 75.5q6 24 21 50.5t36 50.5t46 43.5
t51 29.5q42 17 72.5 8.5t38.5 -38.5q10 16 23 32l59 -3q-20 -28 -35 -61t-23.5 -64.5t-9 -59.5t8.5 -46q28 20 49.5 50.5t33.5 65.5t14.5 71.5t-6.5 68.5t-30.5 56.5t-56.5 35.5q-46 14 -92 1.5t-88 -43t-77 -75t-60 -94.5t-37.5 -101.5t-8 -96t28 -78.5t69.5 -48
q37 -12 73.5 -5t71.5 27l10 -20q-45 -25 -92 -33.5t-95 2.5q-62 15 -94.5 52.5t-41 87.5t4.5 108t43 114t75 106t99.5 83.5t116.5 46t127 -5.5zM335 246q10 22 8 37t-11.5 22.5t-24.5 7t-31 -9.5q-32 -19 -51 -46.5t-26.5 -55t-5 -52.5t13.5 -40q42 26 73 57t43 52z" />
    <glyph glyph-name="A" unicode="A" horiz-adv-x="839" 
d="M591 148q-14 0 -17 1q5 9 6.5 19t1.5 20q0 14 -3 28.5t-11 28.5l-6 11q-39 -51 -83 -100.5t-94 -89t-106 -63.5t-120 -24q-75 0 -116 32.5t-41 88.5q0 33 14.5 65.5t40.5 58t63 41.5t82 16q28 0 45 -4q-27 -21 -27 -49q0 -10 4.5 -21t15 -20.5t27 -16t40.5 -6.5
q56 0 107.5 36t110.5 98q-20 17 -46 28t-55 11q-20 0 -46 -8t-53 -33q20 52 65.5 83t105.5 31q55 0 104 -28q46 46 87 90.5t81.5 79.5t82 56.5t88.5 21.5q9 0 13 -2q-42 -35 -76 -80t-61 -94t-46 -100t-32 -99t-19 -89t-6 -71q0 -19 1.5 -32t9.5 -24q-14 -24 -40 -40.5
t-51 -16.5q-51 0 -51 64q0 43 21 103q-2 -1 -11 -1zM495 485q-29 0 -49 7.5t-32.5 19.5t-18 27t-5.5 29q0 16 7 33t20.5 30.5t33.5 22t46 8.5h4q5 -51 82 -51q27 0 59 5t64.5 11t63.5 11t55 6q-24 -10 -47.5 -25.5t-46.5 -33.5q-21 -17 -46.5 -34.5t-54.5 -32t-62.5 -24
t-72.5 -9.5zM824 540q-24 -2 -70 -44.5t-118 -139.5q24 -22 35 -53q27 55 62 108.5t77 109.5z" />
    <glyph glyph-name="B" unicode="B" horiz-adv-x="745" 
d="M103 -10q-38 0 -63.5 17.5t-33.5 49.5q-5 19 -2.5 41t12.5 44.5t27.5 44t43.5 39.5q-2 -21 9 -36q15 -23 46 -23q35 0 73 33q35 29 67 79t62 103q19 34 39 67.5t41 61.5t43 47.5t45 26.5q-18 -18 -35 -44.5t-32.5 -59t-31 -69t-30.5 -74.5q-17 -42 -35 -85t-38 -83
q13 15 32 25t45 10h9.5t9.5 -1q-6 -23 4 -40q8 -14 25 -22t37 -8q25 0 52 16t39 56q9 27 9 49t-5 38.5t-12.5 28t-14.5 18.5l-4 3l-5 -1q-9 -1 -16.5 -1.5t-15.5 -0.5q-47 0 -60 22q-7 12 0 22q10 18 39 18q31 0 72 -23l6 -4l6 5q42 37 58 86.5t0 92.5q-14 36 -47.5 55.5
t-81.5 19.5q-63 0 -108.5 -15.5t-74.5 -38t-42.5 -47t-13.5 -43.5q0 -43 43 -43q17 0 37 9q-9 -32 -23.5 -53.5t-32.5 -35t-37.5 -19.5t-37.5 -6q-24 0 -43.5 10t-29.5 27q-13 23 -9.5 54t23.5 64q17 30 48 59.5t77 53t106 38t135 14.5q64 0 109.5 -12t75.5 -30.5t46 -41.5
t20 -45q4 -27 -5 -52.5t-29.5 -48t-51 -41t-69.5 -31.5l-17 -6l13 -11q48 -42 61 -94t-9 -109q-13 -33 -35.5 -61.5t-51.5 -48.5t-62.5 -31.5t-67.5 -11.5q-39 0 -71 13q-26 9 -42 23.5t-24.5 31t-10.5 34t1 32.5q0 5 3 13q-29 -54 -63 -90.5t-76 -46.5q-13 -3 -25.5 -5
t-23.5 -2z" />
    <glyph glyph-name="C" unicode="C" horiz-adv-x="531" 
d="M194 -16q-66 1 -115 29t-66 76q-20 59 -4 135.5t64 148.5l24 34q-21 21 -33.5 45t-17 47t-2.5 45t9 39q16 36 45.5 58.5t65.5 20.5q29 -2 41.5 -14t15.5 -22q11 -31 -6 -55q-11 10 -20 13t-17 3q-26 0 -46 -29q-8 -12 -12 -27.5t-4 -31t4 -29t12 -21.5q88 99 175 151
t163 52q54 0 74.5 -31t-0.5 -77q-14 -33 -43 -66.5t-68.5 -59.5t-87.5 -42.5t-100 -16.5q-17 0 -35 2.5t-44 8.5q-14 -36 -21 -68t-10 -61q-5 -52 6.5 -94.5t37.5 -70.5q34 -37 78 -37q54 0 79 49q10 20 10.5 40t-8.5 35q-14 23 -42 23q-11 0 -23 -3q-20 21 -23.5 44
t5.5 43.5t29 35t49 17.5q62 6 97.5 -29t29.5 -96q-4 -46 -27.5 -85.5t-59.5 -68.5t-82.5 -45t-96.5 -15zM411 588q-6 7 -14.5 9t-18 0.5t-18.5 -5.5t-16 -8q-48 -26 -87 -68t-72 -105q11 -4 24 -6.5t30 -2.5q38 0 71 17.5t57 43t38 53.5t14 48q0 13 -8 24z" />
    <glyph glyph-name="D" unicode="D" horiz-adv-x="718" 
d="M336 -2q-45 2 -72 18.5t-47 37.5l-7 6l-7 -6q-42 -35 -73 -45.5t-51 -10.5q-27 0 -46.5 12t-26.5 33q-9 26 2.5 53.5t40.5 51.5q65 53 126 53q32 0 67 -15l10 -4l63 147q-27 -24 -58.5 -40.5t-79.5 -18.5q-24 -2 -46.5 4.5t-40 20.5t-28 35t-10.5 49q0 39 17 76t47 69.5
t69.5 59t84 46t92 30t92.5 10.5q108 0 176 -59q63 -54 77.5 -136.5t-22.5 -181.5q-23 -63 -61 -117t-84 -93.5t-97.5 -62t-100.5 -22.5h-6zM506 553q-15 -62 -31.5 -115.5t-38.5 -101.5t-52 -92.5t-71 -87.5l-8 -8l19 -14q29 -21 55.5 -37.5t55.5 -16.5q42 0 75.5 25.5
t54.5 73.5q20 44 26.5 97t1 104.5t-22.5 97.5t-44 76q-12 13 -28 25q-47 33 -112 33q-35 0 -69.5 -10.5t-62 -29.5t-44.5 -45.5t-17 -58.5q0 -37 19 -57q15 -18 41 -18q37 0 54 29q9 15 6 32q13 -5 20 -26t-1 -54l22 44q15 30 29 52t30.5 38.5t36.5 29.5t46 24l13 5z
M114 122q-29 0 -43.5 -14.5t-14.5 -31.5t12 -26q11 -11 34 -11q37 0 77 40l7 7l-7 7q-11 10 -26.5 19.5t-38.5 9.5z" />
    <glyph glyph-name="E" unicode="E" horiz-adv-x="538" 
d="M229 -2q-38 0 -78 9q-48 11 -82.5 36.5t-51.5 63.5q-17 36 -14.5 76.5t22.5 78.5q27 51 74.5 90.5t107.5 59.5l15 5l-11 11q-26 29 -28 66t19 79q24 48 71 74t107 26q28 0 56 -7t50.5 -21t36 -34.5t13.5 -47.5q0 -23 -9.5 -40.5t-24.5 -29t-34.5 -17.5t-38.5 -6
q-22 0 -39.5 7t-26.5 20q-12 18 -6 42q12 -9 24 -9q14 0 23 9t9 23q0 17 -15 28q-17 11 -43 11q-31 0 -57.5 -17t-39.5 -46q-25 -55 22 -111l28 2t30 -1q38 -3 49.5 -11t11.5 -10q0 -5 -19 -14t-61 -9q-33 0 -67 15l-4 -2q-32 -12 -54 -32.5t-35 -44.5t-17.5 -49t-0.5 -47
q8 -39 36 -61t71 -22q11 0 25 2.5t26 8.5t20 15.5t8 24.5q0 16 -11.5 26t-35.5 7q-2 35 18.5 58t50.5 30.5t61.5 -2t52.5 -39.5q16 -24 19.5 -55.5t-6.5 -63.5q-9 -29 -30 -57t-52.5 -49.5t-73 -35t-91.5 -13.5z" />
    <glyph glyph-name="F" unicode="F" horiz-adv-x="612" 
d="M163 -3q-42 0 -75.5 12t-55.5 35q-30 35 -29 78q1 23 9.5 45.5t24.5 40.5t39.5 29t53.5 11q19 0 35 -4q-19 -43 -2 -74q10 -18 29.5 -28t43.5 -10h9.5t9.5 1q42 8 73 47.5t58 96.5q-3 1 -11 1q-50 0 -95 -30q18 49 56.5 71.5t81.5 26.5l4 8q15 34 31 70t33.5 67.5
t37 55.5t42.5 35q-10 2 -19.5 5t-19.5 6q-42 12 -80 21t-73 9q-45 0 -77 -20q-48 -29 -61.5 -61.5t-6.5 -55.5q5 -20 21 -31.5t38 -11.5q3 0 7 0.5t9 1.5q56 11 73 65q9 24 4 46q30 0 37 -31q4 -17 -0.5 -41t-20.5 -50.5t-44.5 -53t-73.5 -48.5q-45 -20 -80 -20
q-37 0 -63 20t-34 55q-6 27 1 59t29.5 65.5t61.5 66t96 59.5q77 37 188 37q45 0 89.5 -5t84.5 -11q34 -5 65 -8.5t57 -3.5q23 0 49.5 5.5t45.5 26.5q9 -42 -9 -72q-25 -42 -94 -48q-9 -2 -18 -2h-18q-65 0 -131 17q-23 -11 -38.5 -32t-27.5 -50t-22.5 -65.5t-22.5 -78.5
q-2 -8 -2 -7q40 -12 58 -39.5t17 -54.5q-1 -29 -20.5 -53.5t-61.5 -29.5q4 29 -3 48t-16 30l-6 7q-17 -42 -38.5 -79.5t-44.5 -68.5q-37 -49 -91 -76t-117 -27z" />
    <glyph glyph-name="G" unicode="G" horiz-adv-x="565" 
d="M258 -2q-27 -6 -58.5 -7t-62 5t-58 20t-47.5 38q-34 36 -29 85q2 25 15 46t32.5 36t43.5 23.5t49 8.5q34 0 51 -14q-16 -25 -2 -59q11 -21 32.5 -33.5t48.5 -12.5q38 0 79 24q48 28 79 73t57 99l14 29q-32 -18 -56 -30t-42.5 -18.5t-33 -9.5t-26.5 -3q-30 0 -55.5 14.5
t-33.5 45.5q-32 -11 -55 -16t-42 -5q-51 0 -84 33q-16 15 -19.5 38t5.5 46q9 21 25 35t35.5 22t41.5 10.5t44 1.5q-31 -40 -21 -74q5 -17 20.5 -27.5t44.5 -15.5q3 29 14 61.5t31 64.5t49.5 61t70.5 52q27 16 53.5 23.5t49.5 7.5q27 0 45 -10.5t23 -29.5q4 -16 -2.5 -38
t-28 -48.5t-59.5 -57t-96 -62.5l-12 -7q34 -30 69.5 -29.5t69.5 12.5q14 23 26.5 38t24.5 24q2 1 9 5t14.5 7t14.5 3t9 -6q4 -14 -16.5 -42.5t-75.5 -58.5l-16 -51q-17 -54 -36 -106.5t-47.5 -97t-70.5 -77t-105 -46.5zM454 607q-5 12 -13.5 15t-18.5 0t-19 -10.5t-14 -15.5
q-17 -26 -22.5 -65t7.5 -84q27 21 44.5 44.5t27 45.5t11 40.5t-2.5 29.5z" />
    <glyph glyph-name="H" unicode="H" horiz-adv-x="736" 
d="M523 -2q-26 0 -45 13t-29 36q-18 45 -1 120t68 166l9 16q-22 -2 -32.5 -2.5t-18.5 -0.5l-36 -3l-57 -143q-19 -47 -43.5 -86.5t-55.5 -67.5t-68 -43t-80 -12q-38 2 -64 16t-41 34.5t-21 44.5t-5 47q1 27 12 53t31 47t48.5 34.5t65.5 15.5q-13 -19 -15.5 -39t5.5 -38
q8 -20 25 -31t39 -11q16 0 31 6q33 13 67.5 60t68.5 107q-52 -8 -89.5 -25.5t-60.5 -60.5q-19 26 -17 64q4 48 40 74q30 23 75.5 28.5t93.5 5.5h5l10 19q20 37 37.5 70.5t33.5 57.5l21 31q-15 -20 -30.5 -32t-34.5 -18.5t-43 -9t-55 -2.5q-11 0 -24.5 0.5t-27.5 -0.5
t-26.5 -5.5t-21.5 -14.5q-16 -19 -10 -59q-35 5 -51 43q-5 11 -6.5 26t1.5 31t12 32.5t26 31.5q29 27 64 35t80 8q63 0 127 -4t130 1q-19 -14 -41 -42t-44.5 -62t-43 -70.5t-36.5 -67.5h9q16 0 35 -0.5t52 -0.5l3 5q42 63 84 108.5t80 75t70.5 44t56.5 14.5q20 0 29.5 -11.5
t12 -28t-1 -35t-9.5 -31.5q-13 -29 -40 -60.5t-66.5 -60t-90 -51t-111.5 -33.5l-5 -1q-14 -31 -19.5 -54.5t-5.5 -40t3.5 -27.5t7.5 -17q13 -21 39 -21q18 0 35 12t30 33q5 -15 6 -36t-3.5 -45t-15 -49t-28.5 -49q-23 -31 -51.5 -47.5t-57.5 -16.5zM798 599q-23 0 -66 -34
t-98 -118l-15 -24l27 9q31 10 60.5 28.5t54 38.5t40.5 39.5t20 32.5q4 11 -3 19.5t-20 8.5z" />
    <glyph glyph-name="I" unicode="I" horiz-adv-x="514" 
d="M152 -9q-42 0 -76 15.5t-54 42.5q-35 51 -9 123q13 34 42.5 60.5t72.5 41.5q-6 -35 13 -63q25 -37 74 -37q35 0 73 21t74 61q33 36 55.5 67.5t38 59t25.5 51t18 43.5q7 17 13 31.5t17 31.5q-57 57 -122 57q-29 0 -58.5 -11t-53.5 -32q-33 -29 -40.5 -53.5t-6.5 -38.5
q2 -27 19 -42.5t45 -17.5q20 0 37.5 12.5t28.5 34.5q15 32 5 59h1q25 0 37 -14t12 -38q0 -27 -13.5 -57.5t-37 -57t-56 -44t-71.5 -17.5q-38 0 -62 20t-30 58q-7 38 5.5 82.5t43.5 87t79.5 79.5t112.5 60q64 24 130 24q85 0 143 -43q-36 -21 -64 -53.5t-50.5 -72
t-41.5 -84.5t-38 -92q-26 -66 -54.5 -129t-66.5 -114q-42 -54 -96 -83t-114 -29z" />
    <glyph glyph-name="J" unicode="J" horiz-adv-x="645" 
d="M76 -173q-51 0 -67 37q-15 34 5 85t71 109q37 42 79.5 76.5t88.5 63.5t93 53.5t93 47.5l39 74q22 45 41 77.5t34 55.5q8 13 16 24.5t16 21.5q-38 23 -70 32.5t-61 9.5q-38 0 -70.5 -13.5t-52.5 -38.5q-14 -18 -20.5 -39t-1.5 -44q5 -26 20 -36.5t30 -10.5t29 9t22 23
q15 28 -3 60q10 9 25 9t26 -11q14 -16 13 -43q0 -34 -14.5 -62.5t-37 -48.5t-50.5 -31.5t-56 -11.5q-42 0 -66 25.5t-26 70.5q-3 96 75 177q52 54 127.5 85t156.5 31q77 0 145 -30q-41 -29 -87 -107t-100 -185l-16 -31l29 18q21 12 41.5 26.5t37.5 31.5t28.5 37t14.5 43h4
q20 0 31 -21q8 -15 7.5 -41.5t-20.5 -56.5q-34 -51 -91 -80t-133 -56q-21 -39 -43 -79t-44.5 -77.5t-45.5 -71t-46 -59.5q-54 -60 -111 -94t-105 -34zM365 202q-61 -26 -105.5 -54t-79.5 -63q-34 -35 -42 -62.5t-1 -43.5q9 -21 34 -21q30 0 65 32q60 55 142 198l14 25z" />
    <glyph glyph-name="K" unicode="K" horiz-adv-x="773" 
d="M536 -20q-43 0 -74 31q-16 16 -23.5 36t-9.5 41.5t0 44.5t5 44q4 34 4.5 63t-9.5 46q-4 0 -8 -0.5t-9 -1.5q-21 -46 -43.5 -90.5t-47.5 -83t-52.5 -68t-57.5 -45.5q-49 -23 -90 -23q-45 0 -76.5 25t-39.5 68q-4 20 -1 44t16 48t37 46.5t61 40.5q-7 -24 4 -45
q16 -25 50 -25q26 0 54 14t51 40q22 22 45 55q-43 5 -68 16.5t-33 25.5q-5 9 -1 17q5 8 24.5 16t57.5 8q17 0 35 -1.5t35 -5.5l16 24q2 4 8 13t11 17q3 5 6 10.5t7 10.5q-27 -4 -41.5 -5t-25.5 -1q-51 0 -86.5 13.5t-51.5 38.5q-11 18 -11 40t12 42q15 27 43.5 42.5
t65.5 15.5q27 0 63 -11q-17 -21 -22.5 -42t2.5 -40q11 -26 37 -34.5t52 -5.5q32 48 57 76t46 43q29 20 53 20q21 0 26 -18q2 -11 -3.5 -27.5t-22 -36.5t-45.5 -42t-74 -43q-15 -29 -29 -59.5t-28 -62.5q74 9 131 37.5t96 64t58.5 72.5t18.5 64q-1 34 -33 40q18 38 52.5 58
t68.5 20q48 0 68 -33q23 -42 -5 -101q-17 -37 -53 -77t-87 -76.5t-115.5 -65.5t-138.5 -45q16 -4 26 -12t16 -18t8.5 -22t4.5 -24q3 -17 7.5 -32.5t16.5 -26.5q17 -14 39 -14q24 0 45.5 14.5t33.5 37.5q9 -19 8.5 -41.5t-8 -45.5t-21.5 -44.5t-32 -38.5q-50 -50 -106 -50z
" />
    <glyph glyph-name="L" unicode="L" horiz-adv-x="604" 
d="M388 -22q-51 -12 -95.5 2.5t-92.5 47.5l-26 17q-79 -64 -128 -64q-18 0 -32 11q-14 14 -12 30.5t6 27.5q11 27 32 48.5t48 36t57 20.5t59 3q20 32 38 64t37 67q-59 4 -94 40q-13 13 -21 31.5t-8.5 39t7 42t24.5 40.5q36 39 85 39q38 0 64 -24q-28 -15 -41.5 -37.5
t-8.5 -45.5q6 -29 39 -43q28 49 58.5 94t63.5 80t69.5 56t76.5 21q26 0 50.5 -9.5t38.5 -34.5q27 -48 2 -116q-9 -23 -24.5 -45t-36 -39.5t-44 -28.5t-48.5 -11q-37 0 -53 18q-53 -42 -114 -59q-19 -38 -42.5 -75.5t-54.5 -79.5q26 -12 51.5 -25t56.5 -13q38 0 59 24
q20 20 21 53q20 -16 29.5 -40.5t5.5 -53.5q-5 -40 -32.5 -69.5t-69.5 -39.5zM390 363q37 3 76 16q-5 17 1 33t19 23q9 5 22.5 5t19.5 -12q5 -7 2.5 -21.5t-14.5 -28.5q17 -3 29.5 1.5t21 13.5t13 20t6.5 22q5 26 -5.5 46t-31.5 27q-8 4 -22 4q-13 0 -29 -6.5t-33.5 -23
t-36.5 -45.5t-38 -74z" />
    <glyph glyph-name="M" unicode="M" horiz-adv-x="810" 
d="M599 -21q-16 0 -30 10q-32 24 -35.5 74.5t21 125.5t77 172.5t131.5 213.5q-6 -2 -15 -6q-47 -24 -89.5 -61.5t-75.5 -70.5q-11 -66 -29.5 -136.5t-52.5 -143.5q-45 -97 -88.5 -142.5t-70.5 -36.5q-27 10 -24 53.5t32 109.5q11 24 30 58t44 73t55 81t63 81q2 11 3 21.5
t2 20.5q1 17 -1 36.5t-9 33.5q-23 -27 -60 -89q-14 -22 -41 -73t-63.5 -112.5t-80.5 -124t-92 -108.5q-32 -32 -64.5 -45t-60.5 -10.5t-47 18.5t-24 42q-7 34 12 74.5t75 76.5q2 -13 7 -20q8 -10 19 -13.5t26 -3.5q23 1 51.5 21t60 52t64 72.5t63.5 82.5q24 32 47.5 68.5
t43 70.5t33.5 63t19 46q13 8 23 8q12 0 20 -9q14 -16 20.5 -49.5t2.5 -81.5v-20l19 18q63 63 117 91t99 29l6 -6q-17 -21 -39.5 -52t-45 -69.5t-42.5 -81t-32 -85.5q-13 -45 -12.5 -78t14.5 -51q12 -15 29 -15q18 0 38 19q0 -32 -9.5 -68t-26.5 -68q-22 -39 -51 -62.5
t-56 -23.5zM305 468q-18 0 -34 7t-26 19.5t-13.5 30t2.5 37.5q6 21 23.5 35t39.5 14q12 0 26 -6q-2 -10 1 -17q2 -5 12 -15.5t36 -10.5q40 0 105 38q-14 -26 -32.5 -50t-41 -42t-47.5 -29t-51 -11zM506 347q-18 -24 -36.5 -50.5t-32 -51t-20.5 -44.5t-4 -32q2 -5 6.5 -9.5
t11.5 -4.5q16 0 32 26t29 58.5t21.5 62t10.5 36.5l15 52z" />
    <glyph glyph-name="N" unicode="N" horiz-adv-x="675" 
d="M396 21q-9 40 12.5 113.5t82.5 172.5q-4 23 -9 49.5t-9 54t-5.5 54.5t2.5 52q-29 -20 -55.5 -74t-56.5 -124q-25 -57 -53.5 -117.5t-61.5 -110.5t-71.5 -82.5t-84.5 -34.5q-24 -1 -46.5 11t-32.5 41q-11 34 4 81.5t66 92.5q1 -5 3 -8.5t4 -7.5q14 -23 46 -23q28 0 62 19
q23 13 44 35.5t40.5 51t38.5 62t38 68.5q21 39 42.5 77.5t45 70t48.5 53.5t53 28l4 -11q-6 -33 -3.5 -78.5t14.5 -103.5l4 -22l13 18q75 100 139.5 154.5t106.5 54.5q17 0 29 -12q9 -9 7 -26q-2 -27 -29.5 -72t-92.5 -100q-8 16 -17.5 20.5t-17.5 4.5q-24 0 -57 -30t-68 -85
q6 -54 0.5 -108.5t-19.5 -101.5t-36.5 -83t-49.5 -53q-22 -14 -45 -5.5t-29 34.5zM234 489q-21 0 -42.5 9t-32.5 32q-5 9 -6.5 24t6.5 35q8 19 27.5 31t42.5 12q19 0 36 -9q-10 -17 -2 -33q3 -6 13 -13.5t36 -7.5q48 0 123 33q-19 -24 -43 -45t-50.5 -36t-54 -23.5
t-53.5 -8.5zM484 185q-37 -57 -48.5 -100t-2.5 -60q4 -9 15 -9q20 0 38 52q16 45 16 111v34z" />
    <glyph glyph-name="O" unicode="O" horiz-adv-x="557" 
d="M166 -6q-73 0 -117 47t-46 128q-2 88 34 172.5t103 153.5q49 51 104.5 80t101.5 29q5 0 9 -0.5t11 -1.5q43 32 81 32q40 0 68 -31q23 -24 32.5 -61.5t5.5 -82.5q-5 -66 -26.5 -130t-56.5 -120.5t-81 -102.5t-100 -77q-62 -35 -123 -35zM232 496q-23 -32 -39.5 -71.5
t-26.5 -82.5t-12.5 -86t2.5 -82q5 -46 27 -72t55 -26q28 0 57 18.5t52.5 52t38.5 80.5t16 103q2 117 -35 154q-20 17 -41 17q-20 0 -44 -12q6 14 15.5 29.5t19.5 28.5q9 13 24 28q-24 -6 -52 -23t-57 -56z" />
    <glyph glyph-name="P" unicode="P" horiz-adv-x="694" 
d="M135 -8q-38 0 -68.5 13.5t-47.5 38.5q-31 45 -5 113q12 29 40.5 55t67.5 32q2 -23 16 -39q16 -16 40 -16q48 0 96 48q38 38 65.5 83.5t51.5 93.5q16 31 32.5 59.5t35 52t40 39.5t48.5 22l-16 8q-51 18 -96 18q-39 0 -64 -11.5t-39 -23.5q-16 -14 -25.5 -32.5t-9.5 -37.5
q0 -26 15.5 -41.5t41.5 -16.5q-20 -58 -58 -92t-84 -34q-26 0 -50 12q-57 29 -39 107q9 38 34.5 75t65.5 66.5t92.5 47.5t115.5 18q109 0 178 -44.5t86 -128.5q8 -41 3 -80.5t-19 -74t-36.5 -62.5t-50.5 -44q-26 -15 -53 -19.5t-51 0t-41.5 18t-24.5 35.5q-7 21 6.5 45
t43.5 45q6 -6 14.5 -10t18.5 -4q21 0 45.5 20t41.5 71q15 48 5 92.5t-39 69.5q-20 -14 -38 -39.5t-34.5 -58t-31.5 -71t-30 -78.5q-27 -72 -56 -139.5t-65 -115.5q-31 -40 -75 -62.5t-93 -22.5z" />
    <glyph glyph-name="Q" unicode="Q" horiz-adv-x="643" 
d="M427 -15q-48 0 -96 14.5t-82 38.5l-6 5q-55 -32 -93 -41.5t-61 -9.5q-51 0 -73 25t-8 64q17 45 55 69t92 24q66 0 146 -37l26 21q58 48 98.5 98.5t64 98.5t32 91t3.5 76q-5 28 -22 51t-49 30q17 -72 1 -140.5t-54 -117.5q-17 -22 -46 -42.5t-71 -20.5q-67 0 -84 60
q-7 28 0 64t28 73.5t56.5 73t84.5 62.5l11 6q-14 18 -31.5 25.5t-34.5 7.5q-4 0 -8 -0.5t-8 -0.5q9 14 25.5 22t34.5 8q14 0 35 -7t40 -33l6 2q39 12 76 12q69 0 111 -37.5t42 -100.5q0 -62 -24.5 -113.5t-66.5 -98t-99 -90t-122 -90.5l-16 -12l15 -7q49 -23 81 -23
q29 0 43 12.5t16 26.5q3 18 -9 30q12 6 27 6q22 0 40.5 -14.5t18.5 -49.5q0 -38 -16.5 -60t-39.5 -33.5t-48 -14.5t-41 -3zM384 589q-18 -10 -31 -25.5t-21 -32.5t-10.5 -34.5t1.5 -31.5q7 -30 36 -30q5 0 13 3t16 14q15 20 18 59t-11 84zM122 93q-23 0 -34.5 -9.5
t-11.5 -20.5q0 -30 34 -33q27 0 77 28l17 10l-18 8q-39 17 -64 17z" />
    <glyph glyph-name="R" unicode="R" horiz-adv-x="700" 
d="M107 -6q-33 -5 -62.5 9t-40.5 49q-6 19 -1.5 42.5t18 47t35.5 45.5t52 38q2 -17 11 -26q15 -17 38 -17q26 0 58 24q35 29 66 77t63 102q23 40 47 81t50 75t55.5 56t63.5 25q-42 31 -98 31q-33 0 -64 -9.5t-57 -24.5t-45 -34t-27 -38q-16 -35 7 -60q12 -14 35 -14
q22 0 45 15q-12 -41 -29.5 -69.5t-37.5 -46t-41.5 -25.5t-40.5 -8q-38 0 -60 24q-18 18 -19.5 51.5t15.5 71.5q16 39 47 76t76 66t102 46.5t126 17.5t118 -14t81 -35.5t47.5 -48.5t17.5 -53q3 -27 -7 -56t-32.5 -54.5t-57 -45t-81.5 -27.5l-66 -11q5 -21 4 -36t-1 -29
q-1 -30 2 -56t24 -40q12 -9 26 -9q21 0 40 19q5 5 9 11.5t7 12.5q14 -40 10 -82t-26 -79q-39 -68 -106 -68q-68 0 -98 53q-23 40 -17.5 95.5t37.5 112.5q14 24 19 45.5t0 44.5q-30 0 -42 3.5t-16 8.5l-13 -29q-24 -55 -50.5 -111.5t-58.5 -103t-70.5 -78.5t-86.5 -38z
M605 548q-6 36 -29 61h-1q-24 -5 -46 -23.5t-42.5 -46t-39.5 -61.5t-36 -69q9 4 27 4q4 0 12 -0.5t17.5 -4t19.5 -10.5t18 -20q22 9 42 27t33.5 41.5t20.5 49.5t4 52z" />
    <glyph glyph-name="S" unicode="S" horiz-adv-x="528" 
d="M176 -24q-72 0 -118.5 32.5t-53.5 86.5q-4 27 4 54t26 47q33 38 81 38q25 0 52 -12q-18 -22 -10 -51q6 -22 25 -34.5t47 -12.5q51 0 87 50.5t61 158.5l4 19q-51 -21 -88 -30t-69 -9q-34 0 -67 11q-51 17 -74 53.5t-15 87.5q4 27 19 53.5t39 48t56 34.5t71 13
q14 0 29 -1.5t31 -6.5q36 -9 57 -27.5t23 -44.5t-15.5 -50.5t-49.5 -41.5q-8 28 -26.5 39t-36.5 11q-26 0 -47.5 -17t-21.5 -48q0 -24 20.5 -37.5t56.5 -13.5q54 0 117 28q16 78 43 128.5t57 80.5t58.5 41.5t48.5 11.5q18 0 33 -9t17 -31q1 -17 -8.5 -41.5t-29 -52.5
t-49.5 -58t-70 -58l-32 -22q9 -103 -12 -184.5t-69 -138.5q-37 -45 -89 -70t-112 -25zM535 589q-17 0 -37.5 -30.5t-31.5 -81.5l-7 -30l23 20q34 30 52.5 54.5t18.5 42.5q0 8 -3.5 16.5t-14.5 8.5z" />
    <glyph glyph-name="T" unicode="T" horiz-adv-x="540" 
d="M143 -17q-32 0 -57.5 10.5t-43.5 27.5t-28 39t-11 45q-2 19 3.5 39.5t19 39t36.5 33t56 22.5q-11 -32 4 -57q8 -14 24.5 -22t36.5 -8q30 0 57 13q32 13 57.5 39t46.5 59t39 71t35 75q12 27 23.5 52.5t23 46.5t24 36t25.5 21q-39 13 -76 22.5t-72 9.5q-61 0 -105 -35
q-42 -35 -51.5 -72t0.5 -63q7 -20 21 -31t31 -11q31 0 49 24q15 18 15 49q0 44 -31 54q6 17 19 24t25 7q28 0 45 -24q25 -37 -3 -103q-16 -38 -39 -66t-49 -46t-53.5 -27t-52.5 -9q-53 0 -80 36q-25 32 -16 87q10 55 52 112t108 102q54 37 109 54.5t118 17.5q62 0 127 -16
q63 -15 105 -23.5t68 -8.5q11 0 24 3t23 14q11 -39 -8 -69q-15 -27 -45 -41.5t-69 -14.5q-42 0 -81.5 11t-81.5 25q-25 -31 -41.5 -80t-32.5 -107q-15 -53 -33.5 -110t-45.5 -108t-66.5 -92t-96.5 -62q-42 -15 -81 -15z" />
    <glyph glyph-name="U" unicode="U" 
d="M143 -18q-27 0 -49 16q-29 18 -35 57q-4 27 3.5 61t23 69.5t37 70t44.5 62.5q16 20 33.5 44t33 49.5t27 50.5t16.5 48q10 43 -12 69q-17 20 -42 20q-19 0 -34.5 -10t-25.5 -27q-13 -22 -3 -40q6 -11 20 -11q4 0 9 1t10 6q3 -36 -7.5 -61t-22.5 -40q-18 -21 -42 -33
t-49 -12q-28 0 -47 15q-22 17 -27 46.5t8 65.5q10 28 30 56.5t48 51t62.5 36.5t73.5 14q79 0 113 -49q26 -39 20.5 -106t-40.5 -152q-9 -21 -16.5 -43t-12 -42t-4.5 -36t6 -25t18 -9q4 0 10 2t15.5 9t22.5 20.5t31 36.5q6 25 13.5 49.5t18.5 49.5q30 74 62 131t62 95.5
t56 58.5t44 20q6 0 12 -2.5t8 -10.5q5 -18 -4.5 -54t-32 -85t-58 -108.5t-83.5 -124.5q-3 -11 -4 -28t2.5 -34t12 -29t24.5 -12q12 0 22 10q20 23 17 73q9 3 16 3q15 0 22.5 -12t10.5 -25q6 -26 2 -60t-17 -67.5t-35 -62t-52 -42.5q-18 -9 -36 -9q-45 0 -71 44t-27 116v29
l-18 -23q-23 -30 -49.5 -60t-54 -55t-55.5 -40.5t-54 -15.5z" />
    <glyph glyph-name="V" unicode="V" horiz-adv-x="555" 
d="M211 -15q-39 25 -49.5 65t-4 88t25.5 100t39 102q16 40 29.5 76.5t20 67.5t4 56t-18.5 42q-8 10 -21.5 15t-27.5 5q-27 0 -50.5 -18.5t-23.5 -49.5q0 -14 8.5 -25t24.5 -11q17 0 28 14q11 -22 10.5 -46t-11.5 -47q-15 -29 -43 -45.5t-63 -16.5q-24 0 -40 9t-26.5 23
t-15 32t-4.5 36q0 35 13.5 69t38.5 61q38 40 87.5 54t103.5 9q58 -7 87 -44q16 -21 22.5 -49t7 -59.5t-3.5 -65t-8 -66.5q-7 -54 -9.5 -97.5t14.5 -69.5q16 8 31 26.5t29.5 44.5t29.5 58t31 67q21 46 43.5 93.5t47.5 85t52 61.5t57 24q14 0 26 -6t20 -23q8 -20 4 -54
t-27 -73q-12 12 -32 12q-18 0 -33 -9q-26 -14 -52.5 -54.5t-59.5 -97.5q-25 -44 -58 -97t-72.5 -105t-85 -96.5t-95.5 -70.5z" />
    <glyph glyph-name="W" unicode="W" horiz-adv-x="628" 
d="M105 -11q-27 30 -29.5 75.5t11.5 98t40.5 107t57.5 102.5q27 41 37 74.5t11 58t-3.5 40t-8.5 21.5q-17 32 -47 32q-14 0 -26.5 -8t-21 -20t-11.5 -27t2 -29q10 -25 31 -25q7 0 14 4q3 -21 -1.5 -43.5t-17.5 -39.5q-26 -38 -69 -38q-23 0 -39 11t-24 30t-8 44t8 52
q6 22 21 46.5t37.5 45t51 34t61.5 13.5q26 0 53.5 -10t40.5 -36q9 -18 9.5 -42.5t-5 -52t-15.5 -58t-22 -61.5q-21 -54 -19 -99.5t20 -76.5q23 24 41 45t36 44q9 70 28 135t44 115t53 81.5t54 35.5q17 0 24 -10.5t7.5 -25t-3 -30.5t-7.5 -27q-16 -48 -46.5 -109.5
t-72.5 -127.5q11 -78 51 -126q44 63 70 114t47 96q25 54 50 99.5t63 83.5q34 34 71 34q38 0 52 -32q12 -26 1.5 -64t-42.5 -80q-13 25 -40 25q-10 0 -23 -5.5t-29 -21t-34 -43t-37 -70.5t-47.5 -95t-60.5 -101.5t-65 -91.5t-61 -64q-50 68 -53 190l-1 28l-17 -22
q-54 -69 -99 -120t-93 -83z" />
    <glyph glyph-name="X" unicode="X" horiz-adv-x="622" 
d="M106 -9q-23 0 -50 11q-19 9 -30.5 22t-17 28.5t-6 32t2.5 31.5q4 19 15 38t26.5 34t36 24.5t44.5 9.5h1q-7 -30 10 -60q19 -27 50 -27q6 0 20 3.5t31.5 17t37 40t37.5 73.5q1 31 6 66q22 201 -27 255q-16 19 -41 19q-17 0 -33 -10q-20 -12 -26 -31.5t-1 -36.5
q4 -16 15 -25t25 -9t27 10q17 -9 17 -40q0 -33 -23.5 -56.5t-58.5 -23.5q-27 0 -47.5 18.5t-28.5 50.5q-5 21 -3.5 45.5t12 48.5t30 45.5t49.5 37.5q43 20 86 20q37 0 70 -14q75 -37 87 -173q23 84 75 139q52 57 117 57q61 0 72 -56q4 -18 1 -38.5t-13 -40.5t-27 -38
t-39 -31q3 32 -12 52t-41 20q-35 0 -71.5 -38.5t-61.5 -119.5q-1 -17 -0.5 -41.5t4 -50.5t10 -52t17.5 -47t26.5 -34.5t37.5 -14.5q19 0 35 13q0 -26 -9.5 -52t-27.5 -47q-24 -29 -61 -42.5t-75 -0.5q-51 17 -71.5 61.5t-22.5 116.5q-16 -45 -39 -80.5t-50 -60t-57 -37
t-60 -12.5z" />
    <glyph glyph-name="Y" unicode="Y" horiz-adv-x="681" 
d="M134 -378q-42 0 -66.5 25.5t-26.5 70.5q-7 172 288 358l24 92q-26 -23 -37 -33t-19 -18q-20 -18 -40.5 -36.5t-40.5 -33t-40 -24t-38 -9.5q-28 0 -40 25q-10 18 -11.5 47.5t8 69t30.5 87t56 100.5q54 81 72 143t-1 97q-11 22 -31 25.5t-39 -6t-32 -28t-10 -40.5
q2 -23 21 -23q13 0 30 18q13 -23 9.5 -43t-9.5 -31q-14 -29 -41.5 -47t-57.5 -18q-37 0 -67 30q-20 21 -22.5 52t12.5 66q10 24 28.5 47.5t43 41.5t53.5 29.5t60 11.5t65 -14q34 -15 46.5 -48.5t11.5 -76t-11 -89.5t-20 -89q-14 -57 -18.5 -90t13.5 -41q13 -6 27 0.5
t27 18.5t24.5 26.5t19.5 25.5q12 45 25 85.5t28 78.5t33 73.5t42 71.5q17 27 32 42.5t27 22t20.5 5.5t13.5 -7q14 -17 6.5 -68.5t-42.5 -126.5q-71 -150 -133 -228l-9 -107l17 12q39 26 66 54t44 54t25.5 49.5t9.5 40.5q12 -6 26 -16.5t24.5 -27t14 -40t-5.5 -54.5
q-13 -46 -69.5 -87.5t-162.5 -83.5q-16 -118 -44 -194.5t-75 -124.5q-43 -45 -85 -69t-79 -24zM284 -19q-44 -25 -78 -58t-58 -68t-36.5 -69.5t-12.5 -61.5q0 -25 9.5 -30.5t14.5 -5.5q15 0 36.5 19.5t45.5 56t48.5 88.5t45.5 117l8 25z" />
    <glyph glyph-name="Z" unicode="Z" horiz-adv-x="702" 
d="M79 -367q-14 0 -31.5 5t-29.5 20q-26 32 -9 100q16 64 51 121t81 106t98.5 88.5t103.5 68.5q0 28 -4.5 49.5t-15.5 43.5q-21 -4 -36.5 -5t-29.5 -1q-33 0 -52.5 5.5t-29.5 11.5q-23 15 -23 32t21 31.5t63 14.5q73 0 129 -44q32 15 57.5 36.5t45 45.5t33 49.5t21.5 48.5
q12 36 12.5 67t-10.5 51q-30 56 -93 56q-30 0 -60 -14.5t-50 -37.5q-13 -14 -17.5 -30t-2.5 -31q8 -44 50 -44q19 0 36 9.5t25 25.5q10 21 1 41q9 9 23.5 11t25.5 -9q11 -14 11 -34q-2 -26 -14.5 -50t-33.5 -44t-48.5 -35t-59.5 -22q-23 -5 -48 -4t-48.5 9.5t-41.5 25
t-26 42.5q-11 37 0 68t27 52q20 27 49 49.5t63.5 38t72.5 24.5t76 9q59 0 112 -21q57 -23 86 -65.5t26 -96.5q-2 -31 -17 -66t-47 -69t-83 -64.5t-125 -51.5q12 -20 18.5 -34.5t13.5 -35.5q40 15 71.5 23.5t59.5 9.5q57 2 83.5 -13.5t30.5 -43.5q2 -14 -3 -30.5t-16.5 -32.5
t-29.5 -29t-42 -21q-17 38 -80 38q-14 0 -29.5 -2t-37.5 -7q-4 -42 -14 -81t-26 -81q-25 -65 -63 -116t-81 -87t-87.5 -55t-81.5 -19zM324 31q-54 -32 -89 -60t-61 -58q-28 -31 -49 -61t-34 -55.5t-17.5 -46.5t1.5 -34q6 -14 23 -14t36.5 15t34.5 30q33 34 76.5 106.5
t78.5 177.5z" />
    <glyph glyph-name="bracketleft" unicode="[" horiz-adv-x="417" 
d="M4 -152l353 780l24 59h196l-40 -86h-137l-322 -710h170l-40 -86h-190z" />
    <glyph glyph-name="backslash" unicode="\" horiz-adv-x="430" 
d="M234 -247l-169 998l48 11l170 -998z" />
    <glyph glyph-name="bracketright" unicode="]" horiz-adv-x="385" 
d="M387 644l-354 -780l-23 -59h-196l40 86h137l322 710h-170l40 86h190z" />
    <glyph glyph-name="asciicircum" unicode="^" horiz-adv-x="366" 
d="M72 444l172 133l70 -141l-45 -22l-43 86l-124 -95z" />
    <glyph glyph-name="underscore" unicode="_" horiz-adv-x="108" 
d="M-1889 -129q54 17 123.5 25.5t149 11t166 0.5t175.5 -6t177.5 -9t171.5 -8q189 -7 333.5 -8.5t251 7t177 29t111 57t54 90.5t5.5 131l-6 31l33 -5q33 -98 30 -165t-43 -110t-118 -66t-194.5 -31.5t-273 -7t-352.5 6.5q-114 2 -231.5 1t-228 -10t-206.5 -29t-166 -57
q-23 -12 -47 -34t-38 -48.5t-13.5 -55t26.5 -52.5q-56 -25 -103 -18t-79 34t-45 68t-2 84t50 82t112 62z" />
    <glyph glyph-name="grave" unicode="`" horiz-adv-x="125" 
d="M2 666l105 24l16 -201l-38 -17z" />
    <glyph glyph-name="a" unicode="a" horiz-adv-x="437" 
d="M303 106q9 3 25 13.5t34.5 26t38 35t36.5 41.5l15 -4l5 -16q-20 -26 -45.5 -55.5t-54.5 -57t-60.5 -49t-64.5 -31.5q-10 -4 -19.5 0t-14.5 13q-19 39 -8 100q-67 -78 -143 -115q-21 -10 -38 7q-28 31 -35 71.5t5 85.5q7 27 24 57t40.5 57t51.5 49t57 34q48 18 82 9
t43 -43q7 11 13.5 19.5t12.5 16.5l67 -3q-23 -32 -40 -69.5t-26 -73.5t-10 -67t9 -51zM88 99q22 14 43.5 30.5t38.5 33t29.5 31.5t18.5 27l14 31q11 25 8.5 42t-13 25.5t-27.5 8t-35 -10.5q-36 -22 -57 -52.5t-29.5 -62t-5.5 -59.5t15 -44z" />
    <glyph glyph-name="b" unicode="b" horiz-adv-x="354" 
d="M269 216q20 -21 43 -20t42 26l15 -4l5 -16q-26 -35 -58.5 -39t-64.5 15q-27 -51 -72 -95.5t-105 -70.5q-11 -5 -23 -2t-20 13q-36 46 -38.5 110.5t19.5 137t63 149t91.5 148t105 133t103.5 104.5q72 63 113 80.5t50.5 -2.5t-12.5 -73t-76 -131q-46 -66 -87 -116.5
t-81 -92t-81 -76.5t-86 -69q-10 -27 -15 -56t-5 -56.5t4 -52t12 -41.5q15 6 29.5 17.5t27.5 25t24 28t18 26.5q-14 20 -20 45.5t-1 55.5l80 41q19 -22 18 -59.5t-18 -82.5zM275 544q45 60 64 96.5t16 47t-24.5 -6.5t-57.5 -64q-43 -54 -73 -106.5t-50 -101.5q23 19 55 51.5
t70 83.5z" />
    <glyph glyph-name="c" unicode="c" horiz-adv-x="293" 
d="M116 92q16 6 39 18t48 29t48.5 38t41.5 45l15 -4l5 -16q-19 -26 -47 -54t-61 -54.5t-68 -49.5t-66 -37q-12 -5 -23 -5q-19 0 -34 11t-25 28t-15 37t-5 37q0 35 14.5 74t42.5 74q49 63 97 88t84 25q32 0 49.5 -15.5t17.5 -41.5q0 -23 -16 -49.5t-48 -47.5l-55 50
q15 14 21.5 24t6.5 16q0 9 -11 9q-9 0 -26 -9t-34 -27t-30 -45t-13 -63q0 -26 10.5 -49.5t36.5 -35.5z" />
    <glyph glyph-name="d" unicode="d" horiz-adv-x="437" 
d="M457 202q-19 -25 -43.5 -54t-53 -55.5t-59.5 -48.5t-62 -33q-14 -5 -26.5 0.5t-17.5 19.5q-14 37 -6 90q-32 -37 -67 -65.5t-73 -47.5q-24 -11 -41 8q-27 30 -33.5 70t4.5 85q7 27 24 57t40.5 57t52 49t57.5 34q42 17 74.5 10.5t46.5 -34.5q13 26 27.5 53t28.5 53
q36 66 67 119t54 91q13 22 25.5 41t23.5 36l83 -8q-11 -16 -22.5 -35t-24.5 -41q-23 -38 -54.5 -91.5t-69.5 -125.5q-37 -69 -60.5 -124.5t-36 -97.5t-15 -69t3.5 -39q9 3 25 14t34.5 26.5t38 35t35.5 40.5l15 -4zM97 104q39 26 71.5 56.5t46.5 53.5q5 15 11.5 30t13.5 30
q4 19 -1.5 31.5t-16.5 18.5t-26 4.5t-30 -11.5q-32 -20 -51.5 -50t-27.5 -60.5t-5 -58.5t15 -44z" />
    <glyph glyph-name="e" unicode="e" horiz-adv-x="279" 
d="M299 202q-20 -27 -48 -55.5t-60 -54.5t-66 -48t-65 -36q-13 -6 -27 -4t-25 11q-26 22 -34.5 56t-1.5 72.5t27.5 79t51.5 76.5t70.5 64t85.5 42q37 -17 48 -48.5t-5 -66.5t-57.5 -69.5t-107.5 -58.5q2 -20 6 -37.5t12 -32.5q16 6 39 17.5t47.5 28t48 38t41.5 46.5l16 -4z
M146 332q-29 -18 -44 -54.5t-17 -78.5q28 13 45.5 32.5t24.5 39.5t4.5 36.5t-13.5 24.5z" />
    <glyph glyph-name="f" unicode="f" horiz-adv-x="295" 
d="M315 202q-42 -54 -87 -74.5t-85 -12.5q-3 -38 -13 -85.5t-26.5 -99.5t-39 -106t-50 -104t-60 -93.5t-67.5 -75.5q-11 -10 -26 -5.5t-19 19.5q-18 70 -10.5 155.5t34.5 178.5t69.5 190t95.5 191t112 181t119 160t117 128t105 85q33 21 57.5 28.5t35 -2t3.5 -39t-37 -81.5
q-60 -103 -184.5 -241t-314.5 -300q-29 -53 -56.5 -113t-48.5 -121.5t-32 -122.5t-6 -118q19 24 40.5 57.5t43.5 72t41.5 79t35.5 78t25.5 70t10.5 54.5q-17 14 -25 36l-4 13l49 32l9 -10q13 -16 16 -53q12 -5 30 -5t38 8t42 24t42 42l15 -4zM354 630q-18 -12 -46 -42
t-61.5 -73.5t-70.5 -97.5t-73 -114q28 25 59 56t60.5 64t56 66t45 61t27.5 49t3 31z" />
    <glyph glyph-name="g" unicode="g" horiz-adv-x="419" 
d="M439 202q-35 -48 -90 -99t-125 -90q-14 -44 -27.5 -86t-27.5 -79.5t-28 -69t-29 -53.5q-45 -66 -90 -112t-99 -73q-20 -11 -43 -10.5t-42 14.5q-35 25 -30 74.5t44.5 114t110.5 137.5t168 144q8 20 14 38.5t11 33.5q-23 -22 -47 -40.5t-50 -32.5q-16 -8 -33 -4t-28 19
q-21 29 -25.5 66.5t6.5 76.5q7 27 24 57t40.5 57t51.5 49t57 34q48 19 83 8.5t43 -47.5q28 30 58 51l34 -10q-17 -17 -33 -46.5t-31.5 -67.5t-30.5 -83t-30 -92q57 32 101.5 67.5t72.5 73.5l15 -4zM166 317q-32 -20 -52 -52t-29 -65t-7.5 -61t13.5 -41q13 8 27 18.5
t27.5 21.5t24.5 22t19 20q11 26 23 51.5t29 49.5q2 17 -4 28t-17 15.5t-25 3t-29 -10.5zM-87 -408q24 13 49 49t50 84.5t48 104t43 108.5q-60 -53 -100.5 -106t-63 -100t-28.5 -83.5t2 -56.5z" />
    <glyph glyph-name="h" unicode="h" horiz-adv-x="376" 
d="M392 218l4 -16q-18 -24 -42.5 -53t-53.5 -56t-61 -49.5t-64 -33.5q-11 -5 -22 0.5t-16 16.5q-17 43 -5.5 111t47.5 140q-21 -5 -43.5 -24.5t-43.5 -46.5q-21 -51 -41.5 -102t-40.5 -102h-108q70 164 136.5 301.5t130.5 245.5t124.5 183.5t119.5 116.5q28 19 52.5 18
t38.5 -16.5t14.5 -43t-19.5 -61.5q-19 -32 -42 -62t-59.5 -70.5t-92 -95.5t-138.5 -136l-34 -77q26 20 53.5 36.5t53.5 25.5l53 -4q-18 -30 -31.5 -64t-20.5 -68t-7 -66.5t9 -59.5q9 3 25 13.5t34.5 26t38 35t35.5 41.5zM226 510q89 94 134 156.5t55.5 90t-8.5 18t-58 -58.5
q-31 -38 -61.5 -90.5t-61.5 -115.5z" />
    <glyph glyph-name="i" unicode="i" horiz-adv-x="211" 
d="M10 10q-11 -5 -22.5 0t-16.5 17q-15 36 -6.5 84.5t29 98t47 92.5t47.5 68l80 -6q-38 -52 -59 -95t-30 -75.5t-8 -54.5t7 -33q9 3 25 14t34.5 26.5t38 35t35.5 40.5l15 -4l5 -16q-19 -26 -44 -55t-53.5 -56t-60 -48.5t-63.5 -32.5zM201 503q-26 0 -39 18.5t-5 44.5
t32 44.5t50 18.5t39 -18.5t5 -44.5t-32 -44.5t-50 -18.5z" />
    <glyph glyph-name="j" unicode="j" horiz-adv-x="226" 
d="M246 202q-17 -23 -41 -48.5t-53 -50t-62.5 -48t-69.5 -42.5q-13 -44 -26 -86t-27 -79.5t-28.5 -69t-29.5 -53.5q-51 -75 -104 -125t-117 -75q-45 6 -65 29.5t-18 59.5t25 83t64.5 99t100.5 108t133 110l38 111q35 103 60 164.5t54 84.5l78 -3q-15 -17 -29.5 -46.5
t-29 -68t-29 -83.5t-29.5 -93q58 31 108.5 68.5t76.5 73.5l15 -4zM-290 -408q24 13 49 49t50 84.5t48 104t43 108.5q-60 -53 -100 -106t-63 -100t-29 -84t2 -56zM179 503q-26 0 -39 18.5t-5 44.5t32 44.5t50 18.5t39 -18.5t5 -44.5t-32 -44.5t-50 -18.5z" />
    <glyph glyph-name="k" unicode="k" horiz-adv-x="384" 
d="M251 106q9 3 25 13.5t34.5 26.5t38 35.5t35.5 40.5l16 -4l4 -16q-17 -23 -42 -52t-54 -56.5t-61 -50t-64 -33.5q-11 -5 -22.5 -0.5t-16.5 15.5q-18 32 -24 80t14 103l7 21q8 2 19.5 4t19.5 5q30 14 45.5 34.5t7.5 41.5q-4 11 -19 14t-33.5 -3.5t-37.5 -23.5t-31 -45
l-103 -253h-107q70 164 136.5 301.5t130.5 245.5t124.5 183.5t119.5 116.5q28 19 52.5 18t38.5 -16.5t14.5 -43t-19.5 -61.5q-19 -32 -42 -62t-59.5 -70.5t-92 -95.5t-138.5 -136q-2 -5 -5 -10t-5 -12l11 7q28 16 57.5 22.5t54.5 4.5t42.5 -12t22.5 -28q5 -16 -0.5 -34.5
t-20.5 -37t-37.5 -35.5t-52.5 -30l-10 -5q-5 -32 1 -60.5t26 -46.5zM225 510q89 94 134.5 156.5t56 90t-8.5 18t-58 -58.5q-31 -38 -61.5 -90.5t-62.5 -115.5z" />
    <glyph glyph-name="l" unicode="l" horiz-adv-x="237" 
d="M253 218l4 -16q-19 -25 -43.5 -54t-53 -56t-60 -49t-63.5 -33q-11 -4 -21.5 1t-15.5 16q-21 52 -14.5 119t33.5 140t69.5 148t92.5 144.5t103 129.5t102 103q73 63 116 78.5t54 -6t-10.5 -75t-78.5 -129.5q-80 -104 -162.5 -194.5t-181.5 -166.5q-20 -60 -26 -113.5
t7 -98.5q9 3 25 13t34 25t37.5 35t36.5 43zM290 549q54 77 79.5 123.5t24.5 58.5t-27.5 -13.5t-76.5 -92.5q-38 -52 -73.5 -110.5t-62.5 -119.5q23 20 58.5 58.5t77.5 95.5z" />
    <glyph glyph-name="m" unicode="m" horiz-adv-x="557" 
d="M572 218l5 -16q-18 -23 -42 -51t-51.5 -55t-58 -49t-60.5 -34q-16 -6 -31.5 1t-20.5 24q-12 45 -0.5 108t45.5 129q-29 -11 -59 -40.5t-53 -67.5l-58 -167l-89 6l93 271q-31 -9 -64 -41t-57 -74l-56 -162l-90 6l128 373l90 -5l-38 -112q31 35 68 64t74 42l66 -6l-34 -98
q31 35 67.5 63t73.5 41l53 -4q-18 -30 -31.5 -64t-20.5 -68t-7 -66.5t9 -59.5q9 3 25 13.5t34.5 26t38 35t36.5 41.5z" />
    <glyph glyph-name="n" unicode="n" horiz-adv-x="373" 
d="M240 106q9 3 25 14t34.5 26.5t38 35t35.5 40.5l16 -4l5 -16q-18 -24 -42 -52t-51.5 -54.5t-57.5 -48.5t-61 -34q-17 -6 -32 1t-20 24q-12 45 -0.5 108t45.5 129q-29 -11 -59 -40.5t-53 -67.5l-58 -167l-80 6l129 373l80 -5l-38 -110q31 35 67.5 63t73.5 41l53 -4
q-18 -30 -31.5 -64t-20.5 -68t-7 -66.5t9 -59.5z" />
    <glyph glyph-name="o" unicode="o" horiz-adv-x="400" 
d="M420 202q-27 -37 -62.5 -48.5t-73.5 1.5q-21 -43 -54 -79.5t-78 -59.5q-32 -17 -66 -12q-43 6 -67.5 33t-31.5 65.5t2.5 83t33 85t60.5 72.5t86 45l14 -16q-44 -23 -68 -63t-29.5 -81.5t7.5 -76t45 -46.5q35 12 60.5 37t35.5 43q13 55 -1.5 94t-37.5 68l80 41
q32 -38 37 -89.5t-12 -105.5q26 -14 53 -5.5t47 34.5l16 -4z" />
    <glyph glyph-name="p" unicode="p" horiz-adv-x="377" 
d="M259 109q29 20 61.5 50.5t56.5 62.5l16 -4l4 -16q-18 -24 -46 -54.5t-62.5 -59t-73 -51.5t-76.5 -32q-21 -5 -41 2t-34 24t-25 37l-104 -303l-90 6l306 892l91 -6l-100 -290q24 16 49.5 19.5t50.5 -7.5q27 -12 41 -42t15.5 -68t-8.5 -80.5t-31 -79.5zM87 98
q40 10 69.5 42.5t44.5 70t15.5 71t-16.5 45.5q-20 14 -42.5 0.5t-44.5 -44.5l-54 -157q5 -8 11.5 -15.5t16.5 -12.5z" />
    <glyph glyph-name="q" unicode="q" horiz-adv-x="406" 
d="M157 -143q12 4 33.5 36t52.5 82.5t71.5 114.5t91.5 132l16 -4l4 -16q-44 -59 -76 -113.5t-57.5 -102t-47.5 -86.5t-45 -67q-32 -38 -63.5 -61t-67.5 -33q-31 45 -16.5 124t62.5 187q-14 -11 -28.5 -20t-29.5 -17q-14 -8 -30.5 -5.5t-26.5 16.5q-23 30 -28 67.5t6 79.5
q7 27 24 57t40.5 57t52 49t57.5 34q42 16 73 10.5t45 -30.5q4 5 7 10.5t6 10.5l80 -5q-121 -198 -169 -326.5t-37 -180.5zM91 100q8 6 18.5 13.5l21 15t19.5 14.5t15 13q17 33 36 68t39 71q-3 25 -26 31.5t-49 -10.5q-32 -20 -53.5 -50.5t-31 -62t-7 -60t17.5 -43.5z" />
    <glyph glyph-name="r" unicode="r" horiz-adv-x="318" 
d="M338 202q-20 -26 -45 -55t-53 -56t-59 -48.5t-63 -32.5q-12 -5 -24 1t-16 18q-8 24 -7.5 56t9.5 69t25.5 76t40.5 77q-10 0 -22.5 1.5t-26.5 8.5q-2 -6 -9.5 -18t-18 -28t-23.5 -34t-26 -35l-15 4l-5 16q12 15 24 31.5t22.5 31.5t18 27t10.5 19q-14 10 -19.5 22.5
t-9.5 26.5l57 46q7 -28 29 -43.5t76 -14.5l14 -27q-15 -29 -25.5 -60.5t-16 -62.5t-4.5 -59.5t9 -52.5q9 3 24.5 12.5t33.5 24.5t37.5 35t37.5 44l15 -4z" />
    <glyph glyph-name="s" unicode="s" horiz-adv-x="334" 
d="M207 103q30 20 65 51t62 68l16 -4l4 -16q-33 -44 -68.5 -77.5t-68.5 -57t-62 -37.5t-48 -19q-27 -9 -60 -9q-38 0 -62.5 15.5t-35.5 37t-9 44t16 36.5q15 15 33 15t33 -11t23.5 -33t3.5 -52q24 2 41 22t25 48t5.5 60t-18.5 58q-15 21 -19 49q-1 -1 -6 -8.5t-13.5 -20
t-20 -28.5t-23.5 -32l-16 4l-4 16q17 22 29 38.5t21 29t16 23.5t14 23q3 43 18.5 77t55.5 66q28 23 48.5 26t26 -10.5t-8 -41t-53.5 -65.5q0 -8 0.5 -16.5t4 -19.5t10.5 -26.5t20 -36.5q20 -35 22.5 -86t-17.5 -100z" />
    <glyph glyph-name="t" unicode="t" horiz-adv-x="236" 
d="M93 106q29 10 69 40t74 76l15 -4l5 -16q-20 -26 -44.5 -54.5t-53.5 -54.5t-62.5 -48t-70.5 -35q-12 -5 -24 0.5t-17 17.5q-15 34 -10.5 81.5t23 103t46.5 116t59 121.5l19 36h-126l30 59h126q14 27 21.5 46t8.5 27l84 -8q-5 -17 -10 -31t-14 -34h145l-36 -59h-138
l-23 -46q-37 -71 -58.5 -126t-32 -96.5t-11 -69t5.5 -42.5z" />
    <glyph glyph-name="u" unicode="u" horiz-adv-x="396" 
d="M262 106q9 3 25 13.5t34.5 26t38 35t36.5 41.5l15 -4l5 -16q-20 -27 -45 -56t-53 -55.5t-58.5 -47.5t-62.5 -33q-13 -5 -25 0.5t-17 18.5q-6 15 -8 32t-1 35q-29 -30 -61.5 -52.5t-65.5 -33.5q-14 -5 -26 1t-17 19q-14 36 -6.5 84.5t26.5 97t43.5 91t44.5 66.5l76 -3
q-23 -32 -41.5 -69t-29.5 -73t-13 -67t8 -51q20 6 38 21t36 35q8 30 20.5 60.5t26.5 58.5t29 50.5t28 37.5l67 -3q-23 -32 -39.5 -69t-26 -73t-10.5 -67t9 -51z" />
    <glyph glyph-name="v" unicode="v" horiz-adv-x="356" 
d="M271 216q20 -21 43 -20t42 26l16 -4l4 -16q-26 -35 -58.5 -39t-64.5 15q-27 -51 -73.5 -96.5t-109.5 -71.5q-8 -4 -17 -2t-14 8q-31 35 -40 83t-3 97.5t22.5 95.5t36.5 77l67 -3q-17 -34 -26 -68.5t-11 -67t3 -60.5t17 -49q33 14 59 42.5t43 60.5q-11 19 -16 42.5t0 50.5
l7 26l63 30l10 -15q19 -22 18 -59.5t-18 -82.5z" />
    <glyph glyph-name="w" unicode="w" horiz-adv-x="457" 
d="M477 202q-29 -38 -61.5 -40t-64.5 18q-23 -51 -57.5 -96t-77.5 -70q-10 -6 -21.5 -3t-16.5 14q-8 16 -14 34.5t-8 38.5q-21 -26 -45.5 -48t-51.5 -37q-9 -5 -19 -3t-17 10q-29 35 -34 82.5t5 96.5t29.5 94.5t39.5 75.5l66 -3q-17 -34 -29 -68.5t-17.5 -67t-3.5 -60.5
t13 -49q11 4 29 13t34 29q-2 48 6.5 93t24.5 81l75 -8q-5 -42 -24 -87.5t-44 -88.5q6 -26 18 -45q37 21 62 49.5t39 58.5q-14 20 -20 45.5t-1 55.5l7 26l63 30l10 -15q13 -22 11.5 -58.5t-15.5 -78.5q20 -25 44.5 -25.5t45.5 26.5l15 -4z" />
    <glyph glyph-name="x" unicode="x" horiz-adv-x="346" 
d="M366 202q-20 -27 -43.5 -56t-50 -55.5t-55.5 -48t-60 -32.5q-12 -5 -24.5 -1t-20.5 14q-8 11 -15.5 22.5t-13.5 24.5q-30 -47 -52.5 -71t-42 -31t-39 1t-44.5 25q5 10 16 25.5t22 31.5q6 9 12.5 18.5t14.5 19.5q28 -14 49.5 -11.5t46.5 36.5q-10 29 -15.5 59t-7.5 61
q-5 -8 -11 -16l-12 -16l-16 4l-4 16q14 17 23.5 31t17.5 25q0 52 6 91l61 -2q-3 -77 22 -143q29 52 52 85t45 48.5t45 13.5t52 -20l-45 -100q-17 11 -31 14t-28.5 -4.5t-31 -27t-37.5 -52.5q22 -40 62 -75q9 3 24 12t33 23.5t37.5 34.5t38.5 46l16 -4z" />
    <glyph glyph-name="y" unicode="y" horiz-adv-x="410" 
d="M430 202q-38 -51 -91 -100.5t-125 -88.5q-14 -44 -27.5 -86t-27 -79.5t-27.5 -69t-29 -53.5q-51 -75 -104.5 -125t-116.5 -75q-44 6 -64.5 29.5t-18.5 59.5t25 83t64.5 99t100.5 108t133 110l30 89q-29 -31 -61.5 -54.5t-65.5 -36.5q-16 -6 -31.5 1.5t-20.5 23.5
q-11 37 -2.5 84.5t27 95t42.5 88t44 64.5l76 -3q-23 -32 -41 -69t-29 -73t-13.5 -67t7.5 -51q26 8 50.5 31.5t47.5 53.5q18 54 45.5 102.5t81.5 86.5l52 -10q-17 -17 -33 -46.5t-31.5 -67.5t-30.5 -83t-30 -92q55 32 101 68t73 73l15 -4zM-96 -409q24 13 49 49t50 84.5
t48 104.5t43 109q-60 -53 -100.5 -106.5t-63 -100t-28.5 -83t2 -57.5z" />
    <glyph glyph-name="z" unicode="z" horiz-adv-x="383" 
d="M403 202q-30 -42 -65.5 -77.5t-86.5 -70.5q7 -67 -6.5 -145t-48.5 -152t-93 -136t-140 -96q-56 3 -80 33t-22.5 76.5t26 104t65 115t94 109.5t114.5 88q-2 30 -7.5 59t-16.5 55q-9 -2 -18.5 -2h-19.5q-31 0 -43 10t-9.5 22.5t18.5 23.5t40 13q38 3 70 -17q11 12 17 25
t4 24t-13 18t-33 7q-20 0 -36.5 1t-30.5 5q-11 -24 -25 -43.5t-37 -49.5l-15 4l-5 16q13 18 21.5 29t14.5 19.5t10.5 16.5t10.5 19q-18 11 -29 32t-13 56l90 29q1 -15 8.5 -24t22.5 -13t39 -5t59 -1q28 0 43.5 -23t14 -54.5t-22 -64.5t-63.5 -54q13 -16 22 -37t15 -46
q45 29 81 59t59 62l16 -4zM-29 -410q33 24 65 66.5t58 96.5t43.5 115.5t22.5 123.5q-67 -54 -110.5 -115.5t-66 -118t-25 -101.5t12.5 -67z" />
    <glyph glyph-name="braceleft" unicode="{" horiz-adv-x="417" 
d="M569 642q-51 -24 -85 -59t-59.5 -75t-47.5 -80t-48.5 -74t-62.5 -57.5t-90 -29.5q23 -27 22 -61t-12 -71.5t-26.5 -75.5t-21.5 -71.5t3.5 -61.5t48.5 -45l-84 -111q-51 18 -64.5 56.5t-6 87t27.5 102.5t35.5 103.5t17.5 88.5t-25 59l28 40q32 -8 53.5 2t38 32.5t30 54
t30 67t37.5 71.5t52.5 66.5t76 53.5t107.5 32z" />
    <glyph glyph-name="bar" unicode="|" horiz-adv-x="430" 
d="M2 -294l379 1040l47 -17l-379 -1040z" />
    <glyph glyph-name="braceright" unicode="}" horiz-adv-x="385" 
d="M-228 -186q51 24 84.5 59.5t59 75.5t47.5 80t49 74t63 57.5t90 29.5q-23 27 -22 61t12 71t26.5 74.5t21.5 71.5t-4 62t-49 46l85 110q38 -14 55 -39t18.5 -58t-8 -71.5t-22.5 -78t-27 -78t-21 -72t-4 -59.5t24 -40l-28 -41q-43 10 -68 -10.5t-44.5 -58.5t-39 -86.5
t-52.5 -94t-85.5 -81.5t-136.5 -48z" />
    <glyph glyph-name="asciitilde" unicode="~" horiz-adv-x="405" 
d="M251 284q-6 -6 -9 -12q-7 -12 1 -20q11 -11 28.5 0.5t47.5 56.5l27 -23q-53 -88 -109 -104t-101 46l9 12q8 12 0 20q-11 11 -28.5 -5.5t-47.5 -61.5l-27 24q53 88 109 108.5t100 -41.5z" />
    <glyph glyph-name="uni00A0" unicode="&#xa0;" horiz-adv-x="259" 
 />
    <glyph glyph-name="currency" unicode="&#xa4;" horiz-adv-x="368" 
d="M142 140q-23 0 -39 9l-79 -67l-32 38l77 66q-9 21 -6 47q6 35 34 60l-21 48l46 20l19 -45q10 3 22 3q26 0 46 -14l74 64l32 -38l-76 -65q6 -18 3 -39q-6 -38 -35 -62l24 -54l-46 -20l-23 51q-5 -2 -10 -2h-10zM163 279q-21 0 -39 -15.5t-21 -36.5q-3 -20 8 -34
q13 -13 31 -13q21 0 39 15.5t21 37.5q3 19 -8 33q-13 13 -31 13z" />
    <glyph glyph-name="brokenbar" unicode="&#xa6;" horiz-adv-x="430" 
d="M2 -294l174 477l47 -17l-174 -477zM207 269l174 477l47 -17l-174 -478z" />
    <glyph glyph-name="section" unicode="&#xa7;" horiz-adv-x="375" 
d="M68 319q28 28 49 33q-4 28 2 58t24 56t48.5 46t75.5 29q38 8 65 -0.5t42 -24.5t17 -35.5t-10 -33.5q-13 -15 -31 -19t-34.5 2t-28.5 23t-12 44q-24 -7 -38 -27.5t-17.5 -46t4.5 -51.5t29 -44q24 -20 33.5 -47t7 -56.5t-16.5 -58t-36 -50.5q-27 -27 -49 -34
q4 -29 -2 -58.5t-24 -55.5t-49 -45.5t-76 -28.5q-38 -8 -64.5 0.5t-41.5 24.5t-17 35.5t10 33.5q12 15 30.5 19.5t35 -2.5t28.5 -23.5t12 -43.5q23 7 37 27.5t18 46t-4 51.5t-29 44q-24 19 -33.5 46.5t-6.5 56.5t16.5 57.5t35.5 51.5zM160 267q-20 18 -32 44
q-11 -11 -23 -26t-8 -41q0 -6 2 -13t7.5 -16t15.5 -20.5t26 -26.5q20 -20 32 -45q11 10 23 25t9 42q-2 14 -11 30t-41 47z" />
    <glyph glyph-name="copyright" unicode="&#xa9;" horiz-adv-x="685" 
d="M501 540q60 -16 90 -57.5t35 -97t-11.5 -120.5t-50 -128t-81.5 -120t-105 -96.5t-120.5 -56.5t-128.5 -1q-47 12 -75.5 40t-41 67t-10 86t17.5 97.5t41 101t60 97.5q0 22 8 44q12 29 35.5 46.5t49.5 17.5h8q63 51 134 75.5t145 4.5zM166 -105q50 -16 100.5 -2t96.5 49
t85.5 86.5t67.5 108.5t42 116.5t10 110.5t-29 89.5t-75 54.5q-54 17 -106.5 -1.5t-100.5 -60.5q5 -5 7.5 -9.5t4.5 -8.5q5 -12 3 -25t-9 -23l-5 -7l-6 6q-7 6 -12.5 8t-9.5 2q-16 0 -29 -19q-9 -13 -10.5 -33t4.5 -32l2 1q29 33 62 60t66.5 46.5t65.5 30t58 10.5
q36 0 57 -21q16 -16 13.5 -37t-8.5 -34q-11 -26 -33.5 -51.5t-53 -46t-67.5 -33t-77 -12.5q-9 0 -17.5 0.5t-17.5 1.5l-20 4q-17 -47 -20 -88q-6 -77 31 -119q22 -25 53 -25q35 0 52 33q7 13 7.5 26.5t-5.5 22.5q-8 14 -25 14q-6 0 -15 -3l-4 -1l-3 3q-34 36 -19 74
q9 22 32 35.5t52 13.5q26 0 50 -11q53 -24 48 -91q-2 -22 -12.5 -46.5t-30.5 -47t-49.5 -41.5t-68.5 -29q-32 -8 -57 -8q-51 0 -90 23t-52 61q-16 45 -3.5 104t48.5 116l15 20q-8 8 -13 16l-10 16q-33 -60 -52 -123.5t-18 -119t24.5 -97t75.5 -57.5zM358 388
q-34 -19 -62.5 -49t-49.5 -70l15 -3q3 -1 15 -1q27 0 50.5 13t40.5 31t26.5 37.5t9.5 32.5q0 8 -4 13q-5 5 -12 5q-13 0 -29 -9z" />
    <glyph glyph-name="guillemotleft" unicode="&#xab;" horiz-adv-x="495" 
d="M56 221l248 150l27 -41l-180 -109l84 -104l-57 -53zM188 221l278 160l27 -41l-210 -119l84 -94l-57 -53z" />
    <glyph glyph-name="logicalnot" unicode="&#xac;" horiz-adv-x="354" 
d="M200 109l34 91h-232l28 51h276l-59 -159z" />
    <glyph glyph-name="uni00AD" unicode="&#xad;" horiz-adv-x="421" 
d="M318 200h-276l27 52h276z" />
    <glyph glyph-name="registered" unicode="&#xae;" horiz-adv-x="690" 
d="M501 540q60 -16 90 -57.5t35 -97t-11.5 -120.5t-50 -128t-81.5 -120t-105 -96.5t-120 -56.5t-128 -1q-51 12 -79 41t-40 71q-2 5 -4 9t-3 9q-3 11 -1 29q-3 56 15 120.5t52.5 128t82 120t104 95.5t118.5 55t126 -1zM457 116q12 -33 6 -68q45 63 73.5 135.5t33 138
t-20 116t-84.5 70.5q-54 17 -108 -2.5t-105 -64.5q25 9 52 14t58 5q50 0 85.5 -10t58.5 -26t34.5 -35.5t13.5 -38.5q2 -20 -5 -41t-23.5 -39.5t-42 -32.5t-59.5 -20q-11 -2 -21 -4t-20 -3l-7 -1l1 -7q3 -17 1 -41q0 -22 2 -41t17 -30q9 -6 19 -6q16 0 30 14q4 5 6.5 9t4.5 9
zM368 -52q-49 0 -71 39q-17 29 -13 69.5t27 82.5q21 34 15 60l-1 5h-6q-17 1 -25 3.5t-11 5.5l-9 -20q-17 -39 -36 -79t-40.5 -73.5t-48 -57t-58.5 -30.5q25 -41 75 -58q52 -17 104 -1t100 54h-2zM108 220q-2 1 -2.5 2t-1.5 2q-23 -59 -32 -110q2 2 4 2.5t4 2.5q2 -12 8 -18
q10 -13 28 -13q19 0 42 18q26 20 48.5 55t45.5 75q17 30 35 60.5t37.5 54.5t41 40t46.5 18q-16 11 -33 17q-20 6 -41 6q-24 0 -46.5 -7t-41.5 -18t-33 -25t-20 -28q-10 -24 5 -44q10 -10 26 -10t33 11q-18 -59 -49.5 -83.5t-59.5 -24.5q-27 0 -44 17zM442 355q-3 27 -21 45
h-1q-17 -4 -33 -17.5t-31 -33.5t-29 -44.5t-26 -50.5q7 3 19 3q7 0 21 -3.5t25 -17.5l4 -5l5 3q35 22 53.5 55t13.5 66z" />
    <glyph glyph-name="degree" unicode="&#xb0;" horiz-adv-x="261" 
d="M112 260q-37 0 -61 27q-23 27 -18 66q6 36 35 61t65 25q37 0 61 -27q24 -29 18 -65q-6 -37 -34.5 -62t-65.5 -25zM133 399q-21 0 -39 -15.5t-21 -36.5q-3 -20 8 -34q13 -13 31 -13q21 0 39 15.5t21 37.5q3 19 -8 33q-13 13 -31 13z" />
    <glyph glyph-name="plusminus" unicode="&#xb1;" horiz-adv-x="384" 
d="M131 169l33 90h-115l28 52h106l40 108l47 -17l-34 -91h116l-27 -52h-108l-39 -107zM248 81h-276l28 51h275z" />
    <glyph glyph-name="mu" unicode="&#xb5;" horiz-adv-x="396" 
d="M-191 -108l175 286q9 29 21 57t25.5 53t27.5 46t26 35l76 -3q-23 -32 -41.5 -69t-29.5 -73t-13 -67t8 -51q20 6 38 21t36 35q8 30 20.5 60.5t26.5 58.5t29 50.5t28 37.5l67 -3q-23 -32 -39.5 -69t-26 -73t-10.5 -67t9 -51q9 3 25 13.5t34.5 26t38 35t36.5 41.5l15 -4
l5 -16q-20 -27 -45 -56t-53 -55.5t-58.5 -47.5t-62.5 -33q-13 -5 -25 0.5t-17 18.5q-6 15 -8 32t-1 35q-29 -30 -61.5 -52.5t-65.5 -33.5q-14 -5 -26 1t-17 19q-8 22 -8 44l-91 -220z" />
    <glyph glyph-name="paragraph" unicode="&#xb6;" horiz-adv-x="566" 
d="M2 -294l254 697q-34 5 -50 31.5t-5 62.5q6 20 18.5 37.5t29.5 30t36.5 20t39.5 7.5h246l-30 -59h-55l-307 -844l-47 17l301 827h-77l-307 -844z" />
    <glyph glyph-name="periodcentered" unicode="&#xb7;" horiz-adv-x="298" 
d="M123 277q-29 0 -42.5 19.5t-5.5 48.5q9 29 34.5 48.5t54.5 19.5q28 0 42 -19.5t5 -48.5q-8 -29 -33.5 -48.5t-54.5 -19.5z" />
    <glyph glyph-name="guillemotright" unicode="&#xbb;" horiz-adv-x="513" 
d="M164 122l179 99l-84 113l58 52l121 -165l-248 -142zM2 112l209 109l-84 104l58 51l121 -155l-278 -152z" />
    <glyph glyph-name="afii10023" unicode="&#x401;" horiz-adv-x="538" 
d="M229 -2q-38 0 -78 9q-48 11 -82.5 36.5t-51.5 63.5q-17 36 -14.5 76.5t22.5 78.5q27 51 74.5 90.5t107.5 59.5l15 5l-11 11q-26 29 -28 66t19 79q24 48 71 74t107 26q28 0 56 -7t50.5 -21t36 -34.5t13.5 -47.5q0 -23 -9.5 -40.5t-24.5 -29t-34.5 -17.5t-38.5 -6
q-22 0 -39.5 7t-26.5 20q-12 18 -6 42q12 -9 24 -9q14 0 23 9t9 23q0 17 -15 28q-17 11 -43 11q-31 0 -57.5 -17t-39.5 -46q-25 -55 22 -111l28 2t30 -1q38 -3 49.5 -11t11.5 -10q0 -5 -19 -14t-61 -9q-33 0 -67 15l-4 -2q-32 -12 -54 -32.5t-35 -44.5t-17.5 -49t-0.5 -47
q8 -39 36 -61t71 -22q11 0 25 2.5t26 8.5t20 15.5t8 24.5q0 16 -11.5 26t-35.5 7q-2 35 18.5 58t50.5 30.5t61.5 -2t52.5 -39.5q16 -24 19.5 -55.5t-6.5 -63.5q-9 -29 -30 -57t-52.5 -49.5t-73 -35t-91.5 -13.5zM334 723q-26 0 -39 18.5t-5 44.5t32 44.5t50 18.5t39 -18.5
t5 -44.5t-32 -44.5t-50 -18.5zM486 723q-26 0 -39 18.5t-5 44.5t31.5 44.5t49.5 18.5t39 -18.5t5 -44.5t-31.5 -44.5t-49.5 -18.5z" />
    <glyph glyph-name="afii10053" unicode="&#x404;" horiz-adv-x="531" 
d="M166 370q-14 -36 -21 -68t-10 -61q-5 -52 6.5 -94.5t37.5 -70.5q34 -37 78 -37q54 0 79 49q10 20 10.5 40t-8.5 35q-14 23 -42 23q-11 0 -23 -3q-20 21 -23.5 44t5.5 43.5t29 35t49 17.5q63 6 98 -29t29 -96q-4 -46 -27.5 -85.5t-60 -68.5t-82.5 -45t-96 -15
q-66 -1 -106 21t-60 58.5t-22.5 83t7 95.5t28 95.5t41.5 82.5q34 53 78.5 96t95.5 73t105.5 46.5t108.5 16.5q36 0 55.5 -13.5t25.5 -33.5t0 -43t-22 -43t-40 -33.5t-54 -13.5q-22 0 -39.5 7t-26.5 20q-12 18 -6 42q12 -9 24 -9q14 0 23 9t9 23q0 13 -8 24q-6 7 -14.5 9
t-18 0.5t-18.5 -5.5t-16 -8q-24 -13 -49 -34t-49 -48t-44.5 -60.5t-35.5 -71.5zM395 426q8 -19 3.5 -36.5t-17 -28.5t-30.5 -14.5t-36 6.5q9 29 -5 44.5t-37 13t-48.5 -26t-40.5 -73.5q7 55 34.5 93.5t61 55.5t66 10t49.5 -44z" />
    <glyph glyph-name="uni0406" unicode="&#x406;" horiz-adv-x="514" 
d="M152 -9q-42 0 -76 15.5t-54 42.5q-35 51 -9 123q13 34 42.5 60.5t72.5 41.5q-6 -35 13 -63q25 -37 74 -37q35 0 73 21t74 61q33 36 55.5 67.5t38 59t25.5 51t18 43.5q7 17 13 31.5t17 31.5q-57 57 -122 57q-29 0 -58.5 -11t-53.5 -32q-33 -29 -40.5 -53.5t-6.5 -38.5
q2 -27 19 -42.5t45 -17.5q20 0 37.5 12.5t28.5 34.5q15 32 5 59h1q25 0 37 -14t12 -38q0 -27 -13.5 -57.5t-37 -57t-56 -44t-71.5 -17.5q-38 0 -62 20t-30 58q-7 38 5.5 82.5t43.5 87t79.5 79.5t112.5 60q64 24 130 24q85 0 143 -43q-36 -21 -64 -53.5t-50.5 -72
t-41.5 -84.5t-38 -92q-26 -66 -54.5 -129t-66.5 -114q-42 -54 -96 -83t-114 -29z" />
    <glyph glyph-name="afii10056" unicode="&#x407;" horiz-adv-x="514" 
d="M152 -9q-42 0 -76 15.5t-54 42.5q-35 51 -9 123q13 34 42.5 60.5t72.5 41.5q-6 -35 13 -63q25 -37 74 -37q35 0 73 21t74 61q33 36 55.5 67.5t38 59t25.5 51t18 43.5q7 17 13 31.5t17 31.5q-57 57 -122 57q-29 0 -58.5 -11t-53.5 -32q-33 -29 -40.5 -53.5t-6.5 -38.5
q2 -27 19 -42.5t45 -17.5q20 0 37.5 12.5t28.5 34.5q15 32 5 59h1q25 0 37 -14t12 -38q0 -27 -13.5 -57.5t-37 -57t-56 -44t-71.5 -17.5q-38 0 -62 20t-30 58q-7 38 5.5 82.5t43.5 87t79.5 79.5t112.5 60q64 24 130 24q85 0 143 -43q-36 -21 -64 -53.5t-50.5 -72
t-41.5 -84.5t-38 -92q-26 -66 -54.5 -129t-66.5 -114q-42 -54 -96 -83t-114 -29zM512 733q-26 0 -39 18.5t-5 44.5t32 44.5t50 18.5t39 -18.5t5 -44.5t-32 -44.5t-50 -18.5zM664 733q-26 0 -39 18.5t-5 44.5t31.5 44.5t49.5 18.5t39 -18.5t5 -44.5t-31.5 -44.5t-49.5 -18.5z
" />
    <glyph glyph-name="afii10062" unicode="&#x40e;" horiz-adv-x="681" 
d="M134 -378q-42 0 -66.5 25.5t-26.5 70.5q-7 172 288 358l24 92q-26 -23 -37 -33t-19 -18q-20 -18 -40.5 -36.5t-40.5 -33t-40 -24t-38 -9.5q-28 0 -40 25q-10 18 -11.5 47.5t8 69t30.5 87t56 100.5q54 81 72 143t-1 97q-11 22 -31 25.5t-39 -6t-32 -28t-10 -40.5
q2 -23 21 -23q13 0 30 18q13 -23 9.5 -43t-9.5 -31q-14 -29 -41.5 -47t-57.5 -18q-37 0 -67 30q-20 21 -22.5 52t12.5 66q10 24 28.5 47.5t43 41.5t53.5 29.5t60 11.5t65 -14q34 -15 46.5 -48.5t11.5 -76t-11 -89.5t-20 -89q-14 -57 -18.5 -90t13.5 -41q13 -6 27 0.5
t27 18.5t24.5 26.5t19.5 25.5q12 45 25 85.5t28 78.5t33 73.5t42 71.5q17 27 32 42.5t27 22t20.5 5.5t13.5 -7q14 -17 6.5 -68.5t-42.5 -126.5q-71 -150 -133 -228l-9 -107l17 12q39 26 66 54t44 54t25.5 49.5t9.5 40.5q12 -6 26 -16.5t24.5 -27t14 -40t-5.5 -54.5
q-13 -46 -69.5 -87.5t-162.5 -83.5q-16 -118 -44 -194.5t-75 -124.5q-43 -45 -85 -69t-79 -24zM284 -19q-44 -25 -78 -58t-58 -68t-36.5 -69.5t-12.5 -61.5q0 -25 9.5 -30.5t14.5 -5.5q15 0 36.5 19.5t45.5 56t48.5 88.5t45.5 117l8 25zM414 789q-2 -25 9.5 -39t28.5 -15
t35.5 11t32.5 40h43q-18 -56 -52.5 -90t-88.5 -32q-25 1 -45 14t-32.5 31.5t-16.5 40.5t3 41z" />
    <glyph glyph-name="afii10017" unicode="&#x410;" horiz-adv-x="839" 
d="M591 148q-12 0 -17 1q19 43 -6 96l-6 11q-39 -51 -83 -100.5t-94 -89t-106 -63.5t-120 -24q-79 0 -120 37q-37 31 -37 84q0 33 14.5 65.5t40.5 58t63 41.5t82 16q25 0 45 -4q-16 -12 -22 -27.5t-4 -29.5q3 -19 23 -37.5t63 -18.5q6 0 12 0.5t12 1.5q48 6 95.5 42t98.5 90
q-20 17 -46 28t-55 11q-20 0 -46 -8t-53 -33q20 52 65.5 83t105.5 31q55 0 104 -28q1 1 2 1.5t2 2.5q40 45 80.5 88.5t81.5 78t82.5 56t82.5 21.5h10.5t10.5 -2q-47 -39 -84.5 -90.5t-65.5 -108t-47 -113.5t-29.5 -107.5t-13 -90t2.5 -60.5q1 -9 8 -19q-14 -24 -40 -40.5
t-51 -16.5q-24 0 -37 15q-16 18 -13.5 58t20.5 94q-3 -1 -11 -1zM495 485q-29 0 -49 7.5t-32.5 19.5t-18 27t-5.5 29q0 16 7 33t20.5 30.5t33.5 22t46 8.5h4q1 -18 13 -30q19 -21 69 -21q29 0 64.5 5.5t70.5 12.5q30 5 57.5 9.5t49.5 5.5q-24 -10 -47.5 -25.5t-46.5 -33.5
q-21 -16 -44 -32t-49.5 -30t-57 -24t-66.5 -13q-5 -1 -9.5 -1h-9.5zM824 540q-24 -2 -70 -44.5t-118 -139.5q25 -24 35 -53q28 54 62.5 108.5t76.5 109.5z" />
    <glyph glyph-name="afii10018" unicode="&#x411;" horiz-adv-x="783" 
d="M599 573q-38 -28 -65.5 -80t-50.5 -115q31 16 63.5 18t62.5 -7.5t55 -29.5t41 -48q26 -46 24 -99.5t-26.5 -101.5t-68 -83t-99.5 -44q-40 -6 -72 1q-27 5 -45 17t-29 27t-15.5 32t-4.5 32v5.5t1 8.5q-1 0 -1 1q-26 -42 -59 -71t-76 -39q-13 -3 -25.5 -5t-23.5 -2
q-38 0 -63.5 17.5t-33.5 49.5q-5 19 -2.5 41t12.5 44.5t27.5 44t43.5 39.5q-2 -21 9 -36q15 -23 46 -23q42 0 74 23.5t58 60.5t49 83.5t47.5 92.5t52.5 87.5t64 67.5q-10 2 -19.5 5t-19.5 6q-42 12 -81.5 21t-74.5 9q-45 0 -77 -20q-48 -29 -61.5 -61.5t-6.5 -55.5
q5 -20 21 -31.5t38 -11.5q3 0 7 0.5t9 1.5q56 11 73 65q9 23 4 46q30 0 37 -31q4 -17 -0.5 -41t-20.5 -50.5t-44.5 -53t-73.5 -48.5q-46 -20 -80 -20q-37 0 -63 20t-34 55q-6 27 1 59t29.5 65.5t61.5 66t96 59.5q75 37 188 37q45 0 89.5 -5t84.5 -11q34 -5 65 -8.5t57 -3.5
q23 0 49.5 5.5t45.5 26.5q9 -42 -9 -72q-26 -42 -94 -48q-9 -2 -18 -2h-18q-63 0 -131 17zM399 164q23 21 55 27q5 1 9.5 1t9.5 1q-2 -26 10 -39q11 -13 28.5 -18.5t37.5 -2.5q39 8 57.5 39t19.5 69t-9.5 66t-33.5 39q-20 10 -54 6.5t-65 -26.5q-15 -42 -31 -83t-34 -79z
" />
    <glyph glyph-name="afii10019" unicode="&#x412;" horiz-adv-x="745" 
d="M103 -10q-38 0 -63.5 17.5t-33.5 49.5q-5 19 -2.5 41t12.5 44.5t27.5 44t43.5 39.5q-2 -21 9 -36q15 -23 46 -23q35 0 73 33q35 29 67 79t62 103q19 34 39 67.5t41 61t43 47.5t45 27q-18 -18 -35 -44.5t-32.5 -59t-31 -69t-30.5 -74.5q-17 -42 -35 -85t-38 -83
q13 15 32 25t45 10h9.5t9.5 -1q-6 -24 4 -40q8 -14 25 -22t37 -8q25 0 52 16t39 56q9 27 9 49t-5 38.5t-12.5 28t-14.5 18.5l-4 3l-5 -1q-9 -1 -16.5 -1.5t-15.5 -0.5q-47 0 -60 22q-7 12 0 22q10 18 39 18q31 0 72 -23l6 -4l6 5q42 37 58 86.5t0 92.5q-14 36 -47.5 55.5
t-81.5 19.5q-63 0 -108.5 -15.5t-74.5 -38t-42.5 -47t-13.5 -43.5q0 -43 43 -43q17 0 37 9q-9 -32 -23.5 -53.5t-32.5 -35t-37.5 -19.5t-37.5 -6q-24 0 -43.5 10t-29.5 27q-13 23 -9.5 54t23.5 64q17 30 48 59.5t77 53t106 38t135 14.5q64 0 109.5 -12t75.5 -30.5t46 -41.5
t20 -45q4 -27 -5 -52.5t-29.5 -48t-51 -41t-69.5 -31.5l-17 -6l13 -11q48 -42 61 -94t-9 -109q-13 -33 -35.5 -61.5t-51.5 -48.5t-62.5 -31.5t-67.5 -11.5q-41 0 -71 13q-26 9 -42 23.5t-24.5 31t-10.5 34t1 32.5q0 5 3 13q-29 -54 -63 -90.5t-76 -46.5q-13 -3 -25.5 -5
t-23.5 -2z" />
    <glyph glyph-name="afii10020" unicode="&#x413;" horiz-adv-x="612" 
d="M163 -3q-42 0 -75.5 12t-55.5 35q-30 35 -29 78q1 23 9.5 45.5t24.5 40.5t39.5 29t53.5 11q20 0 35 -4q-19 -42 -2 -74q10 -18 29.5 -28t43.5 -10h9.5t9.5 1q30 6 54 29t44.5 55t37 68t31.5 69q15 34 31.5 70t34.5 67.5t38 55.5t43 35q-10 2 -19.5 5t-19.5 6
q-42 12 -81.5 21t-74.5 9q-45 0 -77 -20q-48 -29 -61.5 -61.5t-6.5 -55.5q5 -20 21 -31.5t38 -11.5q3 0 7 0.5t9 1.5q56 11 73 65q9 23 4 46q30 0 37 -31q4 -17 -0.5 -41t-20.5 -50.5t-44.5 -53t-73.5 -48.5q-46 -20 -80 -20q-37 0 -63 20t-34 55q-6 27 1 59t29.5 65.5
t61.5 66t96 59.5q75 37 188 37q45 0 89.5 -5t84.5 -11q34 -5 65 -8.5t57 -3.5q23 0 49.5 5.5t45.5 26.5q9 -42 -9 -72q-26 -42 -94 -48q-9 -2 -18 -2h-18q-63 0 -131 17q-24 -20 -44 -54.5t-37.5 -76.5t-33.5 -89t-33.5 -93t-37 -87.5t-42.5 -72.5q-37 -49 -91 -76t-117 -27
z" />
    <glyph glyph-name="afii10021" unicode="&#x414;" horiz-adv-x="718" 
d="M336 -2q-45 2 -72 18.5t-47 37.5l-7 6l-7 -6q-42 -35 -73 -45.5t-51 -10.5q-27 0 -46.5 12t-26.5 33q-9 26 2.5 53.5t40.5 51.5q65 53 126 53q32 0 67 -15l10 -4l63 147q-27 -24 -58.5 -40.5t-79.5 -18.5q-24 -2 -46.5 4.5t-40 20.5t-28 35t-10.5 49q0 39 17 76t47 69.5
t69.5 59t84 46t92 30t92.5 10.5q108 0 176 -59q63 -54 77.5 -136.5t-22.5 -181.5q-23 -63 -61 -117t-84 -93.5t-97.5 -62t-100.5 -22.5h-6zM506 553q-15 -62 -31.5 -115.5t-38.5 -101.5t-52 -92.5t-71 -87.5l-8 -8l19 -14q29 -21 55.5 -37.5t55.5 -16.5q42 0 75.5 25.5
t54.5 73.5q20 44 26.5 97t1 104.5t-22.5 97.5t-44 76q-12 13 -28 25q-47 33 -112 33q-35 0 -69.5 -10.5t-62 -29.5t-44.5 -45.5t-17 -58.5q0 -37 19 -57q15 -18 41 -18q37 0 54 29q9 15 6 32q13 -5 20 -26t-1 -54l22 44q15 30 29 52t30.5 38.5t36.5 29.5t46 24l13 5z
M114 122q-29 0 -43.5 -14.5t-14.5 -31.5t12 -26q11 -11 34 -11q37 0 77 40l7 7l-7 7q-11 10 -26.5 19.5t-38.5 9.5z" />
    <glyph glyph-name="afii10022" unicode="&#x415;" horiz-adv-x="538" 
d="M229 -2q-38 0 -78 9q-48 11 -82.5 36.5t-51.5 63.5q-17 36 -14.5 76.5t22.5 78.5q27 51 74.5 90.5t107.5 59.5l15 5l-11 11q-26 29 -28 66t19 79q24 48 71 74t107 26q28 0 56 -7t50.5 -21t36 -34.5t13.5 -47.5q0 -23 -9.5 -40.5t-24.5 -29t-34.5 -17.5t-38.5 -6
q-22 0 -39.5 7t-26.5 20q-12 18 -6 42q12 -9 24 -9q14 0 23 9t9 23q0 17 -15 28q-17 11 -43 11q-31 0 -57.5 -17t-39.5 -46q-25 -55 22 -111l28 2t30 -1q38 -3 49.5 -11t11.5 -10q0 -5 -19 -14t-61 -9q-33 0 -67 15l-4 -2q-32 -12 -54 -32.5t-35 -44.5t-17.5 -49t-0.5 -47
q8 -39 36 -61t71 -22q11 0 25 2.5t26 8.5t20 15.5t8 24.5q0 16 -11.5 26t-35.5 7q-2 35 18.5 58t50.5 30.5t61.5 -2t52.5 -39.5q16 -24 19.5 -55.5t-6.5 -63.5q-9 -29 -30 -57t-52.5 -49.5t-73 -35t-91.5 -13.5z" />
    <glyph glyph-name="afii10024" unicode="&#x416;" horiz-adv-x="1059" 
d="M351 655q52 0 86.5 -14t55.5 -38.5t29 -57t6.5 -69t-11 -74.5t-24.5 -73q37 51 78 109t88 109q19 26 41 49.5t49 43.5q28 25 41 25q2 0 5 1t4 -6q-1 -5 -5.5 -9t-8.5 -7q-38 -44 -57 -91t-31.5 -96t-24 -99t-33.5 -99q56 85 116.5 168t120.5 148q35 43 72.5 68.5
t75.5 25.5q35 0 54 -19.5t17 -57.5q0 -34 -22 -69t-61 -58q3 18 3.5 37t-3.5 35t-14.5 26.5t-31.5 10.5q-29 0 -54 -24t-43 -60.5t-29.5 -81.5t-13.5 -87q-3 -38 1 -72t15 -59.5t29 -41t44 -16.5q19 0 35 13q0 -29 -9.5 -55.5t-25.5 -47t-39 -32.5t-50 -12q-53 0 -79 33
t-32 85.5t6.5 118.5t38.5 133q-28 -34 -53.5 -75t-50.5 -83t-50.5 -81.5t-51.5 -70.5t-54.5 -49.5t-59.5 -18.5q-3 0 -3 2t-2 8q0 5 4.5 9t7.5 8q27 29 45 68t30.5 82.5t22 88.5t20.5 85q6 20 12.5 34t14.5 34q-51 -74 -101.5 -148t-107.5 -133.5t-124.5 -97.5t-154.5 -39
q-24 0 -43 8.5t-31.5 22.5t-19 33t-5.5 39q-1 34 15 63t40.5 50t55 33t57.5 12h1q-19 -52 -9 -84.5t36 -43t60.5 1.5t64.5 49q28 34 49 80t33.5 95.5t16 97t-4 85.5t-26.5 61t-51 23q-14 0 -28.5 -5t-26.5 -14t-19.5 -22t-7.5 -28q-1 -13 4.5 -28.5t16.5 -15.5q4 0 9 1t12 6
q-2 -38 -15.5 -65.5t-34 -45.5t-43.5 -26.5t-43 -8.5q-32 0 -51 19.5t-17 51.5q0 31 21 69t55.5 71t80 56t95.5 23z" />
    <glyph glyph-name="afii10025" unicode="&#x417;" horiz-adv-x="702" 
d="M79 -367q-14 0 -31.5 5t-29.5 20q-26 32 -9 100q16 64 51 121t81 106t98.5 88.5t103.5 68.5q0 28 -4.5 49.5t-15.5 43.5q-21 -4 -36.5 -5t-29.5 -1q-33 0 -52.5 5.5t-29.5 11.5q-23 15 -23 32t21 31.5t63 14.5q73 0 129 -44q32 15 57.5 36.5t45 45.5t33 49.5t21.5 48.5
q12 36 12.5 67t-10.5 51q-30 56 -93 56q-30 0 -60 -14.5t-50 -37.5q-13 -14 -17.5 -30t-2.5 -31q8 -44 50 -44q19 0 36 9.5t25 25.5q10 21 1 41q9 9 23.5 11t25.5 -9q11 -14 11 -34q-2 -26 -14.5 -50t-33.5 -44t-48.5 -35t-59.5 -22q-23 -5 -48 -4t-48.5 9.5t-41.5 25
t-26 42.5q-11 37 0 68t27 52q20 27 49 49.5t63.5 38t72.5 24.5t76 9q59 0 112 -21q57 -23 86 -65.5t26 -96.5q-2 -31 -17 -66t-47 -69t-83 -64.5t-125 -51.5q12 -20 18.5 -34.5t13.5 -35.5q40 15 71.5 23.5t59.5 9.5q57 2 83.5 -13.5t30.5 -43.5q2 -14 -3 -30.5t-16.5 -32.5
t-29.5 -29t-42 -21q-17 38 -80 38q-14 0 -29.5 -2t-37.5 -7q-4 -42 -14 -81t-26 -81q-25 -65 -63 -116t-81 -87t-87.5 -55t-81.5 -19zM324 31q-54 -32 -89 -60t-61 -58q-28 -31 -49 -61t-34 -55.5t-17.5 -46.5t1.5 -34q6 -14 23 -14t36.5 15t34.5 30q33 34 76.5 106.5
t78.5 177.5z" />
    <glyph glyph-name="afii10026" unicode="&#x418;" 
d="M143 -18q-27 0 -49 16q-29 18 -35 57q-4 27 3.5 61t23 69.5t37 70t44.5 62.5q16 20 33.5 44t33 49.5t27 50.5t16.5 48q10 43 -12 69q-17 20 -42 20q-19 0 -34.5 -10t-25.5 -27q-13 -22 -3 -40q6 -11 20 -11q4 0 9 1t10 6q3 -36 -7.5 -61t-22.5 -40q-18 -21 -42 -33
t-49 -12q-28 0 -47 15q-22 17 -27 46.5t8 65.5q10 28 30 56.5t48 51t62.5 36.5t73.5 14q79 0 113 -49q26 -39 20.5 -106.5t-40.5 -151.5q-9 -21 -16.5 -43t-12 -42t-4.5 -36t6 -25t18 -9q4 0 10 2t15.5 9t22.5 20.5t31 36.5q6 25 13.5 49.5t18.5 49.5q30 74 62 131t62 95.5
t56 58.5t44 20q6 0 12 -2.5t8 -10.5q5 -18 -4.5 -54t-32 -85t-58 -108.5t-83.5 -124.5q-3 -11 -4 -28t2.5 -34t12 -29t24.5 -12q12 0 22 10q20 23 17 73q9 3 16 3q15 0 22.5 -12t10.5 -25q6 -26 2 -60t-17 -67.5t-35 -62t-52 -42.5q-18 -9 -36 -9q-45 0 -71 44t-27 116v29
l-18 -23q-23 -30 -49.5 -60t-54 -55t-55.5 -40.5t-54 -15.5z" />
    <glyph glyph-name="afii10027" unicode="&#x419;" 
d="M143 -18q-27 0 -49 16q-29 18 -35 57q-4 27 3.5 61t23 69.5t37 70t44.5 62.5q16 20 33.5 44t33 49.5t27 50.5t16.5 48q10 43 -12 69q-17 20 -42 20q-19 0 -34.5 -10t-25.5 -27q-13 -22 -3 -40q6 -11 20 -11q4 0 9 1t10 6q3 -36 -7.5 -61t-22.5 -40q-18 -21 -42 -33
t-49 -12q-28 0 -47 15q-22 17 -27 46.5t8 65.5q10 28 30 56.5t48 51t62.5 36.5t73.5 14q79 0 113 -49q26 -39 20.5 -106t-40.5 -152q-9 -21 -16.5 -43t-12 -42t-4.5 -36t6 -25t18 -9q4 0 10 2t15.5 9t22.5 20.5t31 36.5q6 25 13.5 49.5t18.5 49.5q30 74 62 131t62 95.5
t56 58.5t44 20q6 0 12 -2.5t8 -10.5q5 -18 -4.5 -54t-32 -85t-58 -108.5t-83.5 -124.5q-3 -11 -4 -28t2.5 -34t12 -29t24.5 -12q12 0 22 10q20 23 17 73q9 3 16 3q15 0 22.5 -12t10.5 -25q6 -26 2 -60t-17 -67.5t-35 -62t-52 -42.5q-18 -9 -36 -9q-45 0 -71 44t-27 116v29
l-18 -23q-23 -30 -49.5 -60t-54 -55t-55.5 -40.5t-54 -15.5zM454 789q-2 -25 9.5 -39t28.5 -15t35.5 11t32.5 40h43q-18 -56 -52.5 -90t-88.5 -32q-25 1 -45 14t-32.5 31.5t-16.5 40.5t3 41z" />
    <glyph glyph-name="afii10028" unicode="&#x41a;" horiz-adv-x="773" 
d="M536 -20q-43 0 -74 31q-16 16 -23.5 36t-9.5 41.5t0 44.5t5 44q4 34 4.5 63t-9.5 46q-4 0 -8 -0.5t-9 -1.5q-21 -46 -43.5 -90.5t-47.5 -83t-52.5 -68t-57.5 -45.5q-49 -23 -90 -23q-45 0 -76.5 25t-39.5 68q-4 20 -1 44t16 48t37 46.5t61 40.5q-7 -24 4 -45
q16 -25 50 -25q26 0 54 14t51 40q22 22 45 55q-43 5 -68 16.5t-33 25.5q-5 9 -1 17q5 8 24.5 16t57.5 8q17 0 35 -1.5t35 -5.5l16 24q2 4 8 13t11 17q3 5 6 10.5t7 10.5q-27 -4 -41.5 -5t-25.5 -1q-51 0 -86.5 13.5t-51.5 38.5q-11 18 -11 40t12 42q15 27 43.5 42.5
t65.5 15.5q27 0 63 -11q-17 -21 -22.5 -42t2.5 -40q11 -26 37 -34.5t52 -5.5q32 48 57 76t46 43q29 20 53 20q21 0 26 -18q2 -11 -3.5 -27.5t-22 -36.5t-45.5 -42t-74 -43q-15 -29 -29 -59.5t-28 -62.5q74 9 131 37.5t96 64t58.5 72.5t18.5 64q-1 34 -33 40q18 38 52.5 58
t68.5 20q48 0 68 -33q23 -42 -5 -101q-17 -37 -53 -77t-87 -76.5t-115.5 -65.5t-138.5 -45q16 -4 26 -12t16 -18t8.5 -22t4.5 -24q3 -17 7.5 -32.5t16.5 -26.5q17 -14 39 -14q24 0 45.5 14.5t33.5 37.5q9 -19 8.5 -41.5t-8 -45.5t-21.5 -44.5t-32 -38.5q-50 -50 -106 -50z
" />
    <glyph glyph-name="afii10029" unicode="&#x41b;" horiz-adv-x="934" 
d="M495 485q-29 0 -49 7.5t-32.5 19.5t-18 27t-5.5 29q0 16 7 33t20.5 30.5t33.5 22t46 8.5h4q2 -19 13 -30q19 -21 69 -21q29 0 64.5 5.5t70.5 12.5q30 5 57.5 9.5t49.5 5.5q-24 -10 -47.5 -25.5t-46.5 -33.5q-21 -16 -44 -32t-49.5 -30t-57 -24t-66.5 -13q-5 -1 -9.5 -1
h-9.5zM839 543q-43 -28 -91 -80.5t-100.5 -115t-109 -128t-118 -119t-127 -87.5t-134.5 -34q-80 0 -120 37q-37 31 -37 84q0 33 14.5 65.5t40.5 58t63 41.5t82 16q28 0 45 -4q-16 -12 -22 -27.5t-4 -29.5q3 -19 23 -37.5t63 -18.5q6 0 12 0.5t12 1.5q39 5 77 27.5t76 56
t75.5 74.5t74.5 83.5t74.5 82.5t74.5 71t74 50t74 19h10.5t10.5 -2q-24 -25 -55.5 -68t-60 -94.5t-48 -107t-19.5 -104.5q0 -32 13.5 -51.5t36.5 -19.5q22 0 43 20q0 -40 -14.5 -81t-38 -74t-52.5 -53.5t-58 -20.5q-36 0 -55 30.5t-19 69.5q0 40 9 85.5t33 102t65.5 125.5
t106.5 156z" />
    <glyph glyph-name="afii10030" unicode="&#x41c;" horiz-adv-x="1009" 
d="M723 653q24 -2 38 -15t21 -34.5t9 -49.5t2 -61l22 18q72 66 133 94.5t112 29.5l7 -11q-23 -25 -53.5 -68t-59 -95t-48 -107.5t-19.5 -104.5q0 -32 13.5 -51.5t36.5 -19.5q22 0 43 20q0 -40 -14.5 -81t-38 -74t-52.5 -53.5t-58 -20.5q-36 0 -55 30.5t-19 69.5
q0 79 58 210.5t188 304.5q-8 -2 -17 -6q-54 -25 -102 -63.5t-86 -73.5q-13 -68 -34 -140.5t-59 -148.5q-47 -92 -92.5 -139t-77.5 -47q-20 0 -29.5 14t-9.5 35q0 61 25 120t63.5 113.5t83 104t83.5 92.5q1 20 -1 38.5t-5.5 33.5t-8.5 24.5t-11 12.5q-31 -46 -64 -106.5
t-70 -124.5t-79.5 -126t-92.5 -110.5t-109 -78.5t-130 -30q-75 0 -116 32.5t-41 88.5q0 33 14.5 65.5t40.5 58t63 41.5t82 16q28 0 45 -4q-27 -21 -27 -49q0 -10 4.5 -22.5t15 -23t27 -16.5t40.5 -2q38 6 79 37t80.5 75.5t75.5 98t66 105t51.5 95.5t30.5 71q8 4 14 6.5
t12 1.5zM697 349q-20 -24 -39 -49t-34 -49t-24.5 -44.5t-9.5 -33.5q0 -7 5 -15t16 -8q12 0 24.5 12.5t24 32t21 43t17.5 44.5t13 36.5t6 20.5l17 54zM420 465q-29 0 -49 7.5t-32.5 19.5t-18 27t-5.5 29q0 16 7 33t20.5 30.5t33.5 22t46 8.5h4q12 -33 38 -45.5t59.5 -10.5
t71 15t73.5 32q-16 -27 -40.5 -56.5t-56 -54.5t-70 -41t-81.5 -16z" />
    <glyph glyph-name="afii10031" unicode="&#x41d;" horiz-adv-x="736" 
d="M523 -2q-26 0 -45 13t-29 36q-18 45 -1 120t68 166l9 16q-22 -2 -32.5 -2.5t-18.5 -0.5l-36 -3l-57 -143q-19 -47 -43.5 -86.5t-55.5 -67.5t-68 -43t-80 -12q-38 2 -64 16t-41 34.5t-21 44.5t-5 47q1 27 12 53t31 47t48.5 34.5t65.5 15.5q-13 -19 -15.5 -39t5.5 -38
q8 -20 25 -31t39 -11q16 0 31 6q33 13 67.5 60t68.5 107q-52 -8 -89.5 -25.5t-60.5 -60.5q-19 27 -17 64q5 48 40 74q30 23 75.5 28.5t93.5 5.5h5l10 19q20 37 37.5 70.5t33.5 57.5l21 31q-15 -20 -30.5 -32t-34.5 -18.5t-43 -9t-55 -2.5q-11 0 -24.5 0.5t-27.5 -0.5
t-26.5 -5.5t-21.5 -14.5q-16 -19 -10 -59q-34 4 -51 43q-5 11 -6.5 26t1.5 31t12 32.5t26 31.5q29 27 64 35t80 8q63 0 127 -4t130 1q-19 -14 -41 -42t-44.5 -62t-43 -70.5t-36.5 -67.5h9q16 0 35 -0.5t52 -0.5l3 5q42 63 84 108.5t80 75t70.5 44t56.5 14.5q20 0 29.5 -11.5
t12 -28t-1 -35t-9.5 -31.5q-13 -29 -40 -60.5t-66.5 -60t-90 -51t-111.5 -33.5l-5 -1q-14 -31 -19.5 -54.5t-5.5 -40t3.5 -27.5t7.5 -17q13 -21 39 -21q18 0 35 12t30 33q5 -15 6 -36t-3.5 -45t-15 -49t-28.5 -49q-23 -31 -51.5 -47.5t-57.5 -16.5zM798 599q-23 0 -66 -34
t-98 -118l-15 -24l27 9q31 10 60.5 28.5t54 38.5t40.5 39.5t20 32.5q4 11 -3 19.5t-20 8.5z" />
    <glyph glyph-name="afii10032" unicode="&#x41e;" horiz-adv-x="557" 
d="M166 -6q-73 0 -117 47t-46 128q-2 88 34 172.5t103 153.5q49 51 104.5 80t101.5 29q5 0 9 -0.5t11 -1.5q43 32 81 32q40 0 68 -31q23 -24 32.5 -61.5t5.5 -82.5q-5 -66 -26.5 -130t-56.5 -120.5t-81 -102.5t-100 -77q-62 -35 -123 -35zM232 496q-23 -32 -39.5 -71.5
t-26.5 -82.5t-12.5 -86t2.5 -82q5 -46 27 -72t55 -26q28 0 57 18.5t52.5 52t38.5 80.5t16 103q2 117 -35 154q-20 17 -41 17q-20 0 -44 -12q6 14 15.5 29.5t19.5 28.5q9 13 24 28q-24 -6 -52 -23t-57 -56z" />
    <glyph glyph-name="afii10033" unicode="&#x41f;" horiz-adv-x="740" 
d="M540 557q-25 -31 -41.5 -80t-32.5 -107q-15 -53 -33.5 -110t-45.5 -108t-66.5 -92t-96.5 -62q-42 -15 -81 -15q-32 0 -57.5 10.5t-43.5 27.5t-28 39t-11 45q-2 19 3.5 39.5t19 39t36.5 33t56 22.5q-11 -32 4 -57q8 -14 24.5 -22t36.5 -8q31 0 57 13q32 13 57.5 39
t46.5 59t39 71t35 75q12 27 23.5 52.5t23 46.5t23.5 36t26 21q-39 13 -76 22.5t-72 9.5q-61 0 -105 -35q-42 -35 -51.5 -72t0.5 -63q7 -20 21 -31t31 -11q31 0 49 24q15 18 15 49q0 44 -31 54q6 17 19 24t25 7q28 0 45 -24q25 -37 -3 -103q-16 -38 -39 -66t-49 -46
t-53.5 -27t-52.5 -9q-53 0 -80 36q-25 31 -16 87q10 55 52 112t108 102q54 37 109 54.5t118 17.5q43 0 95.5 -9.5t105.5 -16.5t101 -5.5t82 23.5q17 -38 2 -70q-11 -29 -38.5 -47.5t-65.5 -24.5q-17 -3 -38 -2.5t-44 2.5q-17 -24 -32 -60t-26.5 -77.5t-17 -85.5t-2.5 -83
q1 -27 14 -43.5t33 -16.5q16 0 36 17q2 -34 -7 -68.5t-26 -62t-40 -45.5t-48 -18q-31 -1 -48.5 24.5t-20.5 58.5q-2 33 4 82.5t23 110.5t47 131t76 142q-29 5 -56 11t-47 13z" />
    <glyph glyph-name="afii10034" unicode="&#x420;" horiz-adv-x="694" 
d="M135 -8q-38 0 -68.5 13.5t-47.5 38.5q-31 45 -5 113q12 29 40.5 55t67.5 32q2 -23 16 -39q16 -16 40 -16q48 0 96 48q38 38 65.5 83.5t51.5 93.5q16 31 32.5 59.5t35 52t40 39.5t48.5 22l-16 8q-51 18 -96 18q-39 0 -64 -11.5t-39 -23.5q-16 -14 -25.5 -32.5t-9.5 -37.5
q0 -26 15.5 -41.5t41.5 -16.5q-20 -58 -58 -92t-84 -34q-26 0 -50 12q-57 29 -39 107q9 38 34.5 75t65.5 66.5t92.5 47.5t115.5 18q109 0 178 -44.5t86 -128.5q8 -41 3 -80.5t-19 -74t-36.5 -62.5t-50.5 -44q-26 -15 -53 -19.5t-51 0t-41.5 18t-24.5 35.5q-7 21 6.5 45
t43.5 45q6 -6 14.5 -10t18.5 -4q21 0 45.5 20t41.5 71q15 48 5 92.5t-39 69.5q-20 -14 -38 -39.5t-34.5 -58t-31.5 -71t-30 -78.5q-27 -72 -56 -139.5t-65 -115.5q-31 -40 -75 -62.5t-93 -22.5z" />
    <glyph glyph-name="afii10035" unicode="&#x421;" horiz-adv-x="531" 
d="M194 -16q-66 1 -115 29t-66 76q-20 59 -4 135.5t64 148.5l24 34q-21 21 -33.5 45t-17 47t-2.5 45t9 39q16 36 45.5 58.5t65.5 20.5q29 -2 41.5 -14t15.5 -22q11 -31 -6 -55q-11 10 -20 13t-17 3q-26 0 -46 -29q-8 -12 -12 -27.5t-4 -31t4 -29t12 -21.5q88 99 175 151
t163 52q54 0 74.5 -31t-0.5 -77q-14 -33 -43 -66.5t-68.5 -59.5t-87.5 -42.5t-100 -16.5q-17 0 -35 2.5t-44 8.5q-14 -36 -21 -68t-10 -61q-5 -52 6.5 -94.5t37.5 -70.5q34 -37 78 -37q54 0 79 49q10 20 10.5 40t-8.5 35q-14 23 -42 23q-11 0 -23 -3q-20 21 -23.5 44
t5.5 43.5t29 35t49 17.5q62 6 97.5 -29t29.5 -96q-4 -46 -27.5 -85.5t-59.5 -68.5t-82.5 -45t-96.5 -15zM411 588q-6 7 -14.5 9t-18 0.5t-18.5 -5.5t-16 -8q-48 -26 -87 -68t-72 -105q11 -4 24 -6.5t30 -2.5q38 0 71 17.5t57 43t38 53.5t14 48q0 13 -8 24z" />
    <glyph glyph-name="afii10036" unicode="&#x422;" horiz-adv-x="912" 
d="M401 4q20 24 34.5 58t26 72t20.5 76.5t18 70.5q21 66 56 130.5t88 111.5q-30 9 -57 18t-47 16q-25 -31 -41.5 -80t-32.5 -107q-15 -53 -33.5 -110t-45.5 -108t-66.5 -92t-96.5 -62q-42 -15 -81 -15q-32 0 -57.5 10.5t-43.5 27.5t-28 39t-11 45q-2 19 3.5 39.5t19 39
t36.5 33t56 22.5q-11 -32 4 -57q8 -14 24.5 -22t36.5 -8q31 0 57 13q32 13 57.5 39t46.5 59t39 71t35 75q12 27 23.5 52.5t23 46.5t23.5 36t26 21q-39 13 -76 22.5t-72 9.5q-61 0 -105 -35q-42 -35 -51.5 -72t0.5 -63q7 -20 21 -31t31 -11q31 0 49 24q15 18 15 49
q0 44 -31 54q6 17 19 24t25 7q28 0 45 -24q25 -37 -3 -103q-16 -38 -39 -66t-49 -46t-53.5 -27t-52.5 -9q-53 0 -80 36q-25 31 -16 87q10 55 52 112t108 102q54 37 109 54.5t118 17.5q51 0 110 -11.5t120 -24.5q34 -7 68.5 -16t67 -13.5t61.5 -3t52 15.5q0 -42 -13 -69
t-36 -41t-54 -18.5t-66 -1.5q-15 -26 -27.5 -60.5t-21.5 -72.5t-13 -77t-2 -74q1 -27 14 -43.5t33 -16.5q16 0 36 17q2 -34 -7 -68.5t-26 -62t-40 -45.5t-48 -18q-31 -1 -48.5 24.5t-20.5 58.5q-2 31 3.5 78.5t20.5 105t42 123.5t69 135q-21 4 -42.5 9t-42.5 10
q-19 -24 -29.5 -52.5t-17 -58.5t-11.5 -60.5t-12 -57.5q-9 -36 -23.5 -74t-34.5 -74t-45 -68t-54 -57q-8 -9 -16.5 -14.5t-11.5 -4.5q-3 0 -7 2t-4 6z" />
    <glyph glyph-name="afii10037" unicode="&#x423;" horiz-adv-x="681" 
d="M134 -378q-42 0 -66.5 25.5t-26.5 70.5q-7 172 288 358l24 92q-26 -23 -37 -33t-19 -18q-20 -18 -40.5 -36.5t-40.5 -33t-40 -24t-38 -9.5q-28 0 -40 25q-10 18 -11.5 47.5t8 69t30.5 87t56 100.5q54 81 72 143t-1 97q-11 22 -31 25.5t-39 -6t-32 -28t-10 -40.5
q2 -23 21 -23q13 0 30 18q13 -23 9.5 -43t-9.5 -31q-14 -29 -41.5 -47t-57.5 -18q-37 0 -67 30q-20 21 -22.5 52t12.5 66q10 24 28.5 47.5t43 41.5t53.5 29.5t60 11.5t65 -14q34 -15 46.5 -48.5t11.5 -76t-11 -89.5t-20 -89q-14 -57 -18.5 -90t13.5 -41q13 -6 27 0.5
t27 18.5t24.5 26.5t19.5 25.5q12 45 25 85.5t28 78.5t33 73.5t42 71.5q17 27 32 42.5t27 22t20.5 5.5t13.5 -7q14 -17 6.5 -68.5t-42.5 -126.5q-71 -150 -133 -228l-9 -107l17 12q39 26 66 54t44 54t25.5 49.5t9.5 40.5q12 -6 26 -16.5t24.5 -27t14 -40t-5.5 -54.5
q-13 -46 -69.5 -87.5t-162.5 -83.5q-16 -118 -44 -194.5t-75 -124.5q-43 -45 -85 -69t-79 -24zM284 -19q-44 -25 -78 -58t-58 -68t-36.5 -69.5t-12.5 -61.5q0 -25 9.5 -30.5t14.5 -5.5q15 0 36.5 19.5t45.5 56t48.5 88.5t45.5 117l8 25z" />
    <glyph glyph-name="afii10038" unicode="&#x424;" horiz-adv-x="815" 
d="M777 514q22 -36 25.5 -76t-7.5 -79.5t-35 -75t-57.5 -62t-74.5 -41.5t-87 -13q-29 2 -56.5 22t-41.5 54q-20 -56 -44 -105.5t-57 -86.5t-77.5 -59t-104.5 -22q-27 0 -51 7t-42 20.5t-29 32.5t-12 43q-1 19 4.5 41t19 42.5t34.5 35.5t51 20q3 -23 17 -37.5t40 -15.5
q41 -2 71 19t56 56q-35 -21 -74.5 -25.5t-74 6t-60 35t-32.5 62.5q-6 28 -3.5 57t12 56.5t26 52t40.5 44.5q36 31 87 48.5t97 15.5q18 -2 36.5 -8t34 -16.5t27 -26t17.5 -34.5l-1 -6q32 61 74.5 107.5t104.5 61.5q-28 -24 -49.5 -57t-38.5 -72q25 16 58.5 26.5t66.5 10
t62.5 -13.5t47.5 -44zM456 284q11 -20 24.5 -30.5t27.5 -12.5q24 -5 49.5 12t47.5 45t38 62.5t22 65.5q6 42 -9.5 63t-40.5 23.5t-53.5 -11t-48.5 -40.5q-15 -43 -29 -87.5t-28 -89.5zM431 457q-19 52 -50 59q-29 7 -58.5 -7.5t-54 -40t-40.5 -58t-17.5 -62t15.5 -51.5
t58 -27q17 -2 36 6.5t35 19.5q20 38 38 79t38 82zM330 605q-12 3 -23 9.5t-20 16t-14 22.5t-4 28q1 12 7.5 23.5t17.5 20t25 13t31 1.5q13 -2 23 -7.5t21 -14.5q-6 -5 -8 -10t-3 -11q0 -2 1 -8.5t7 -14.5t20.5 -15t41.5 -11q38 -6 95 0q-42 -28 -92.5 -41.5t-96.5 -7.5
q-8 1 -14.5 3t-14.5 4z" />
    <glyph glyph-name="afii10039" unicode="&#x425;" horiz-adv-x="642" 
d="M106 -9q-25 0 -50 11q-19 9 -30.5 22t-17 28.5t-6 32t2.5 31.5q4 19 15 38t26.5 34t36 24.5t44.5 9.5h1q-7 -32 10 -60q19 -27 50 -27q7 0 20.5 3.5t31 17t37 40t37.5 73.5q1 31 6 66q22 201 -27 255q-16 19 -41 19q-17 0 -33 -10q-20 -12 -26 -31.5t-1 -36.5
q4 -16 15 -25t25 -9t27 10q17 -9 17 -40q0 -33 -23.5 -56.5t-58.5 -23.5q-27 0 -47.5 18.5t-28.5 50.5q-5 21 -3.5 45.5t12 48.5t30 45.5t49.5 37.5q42 20 86 20q39 0 70 -14q75 -38 87 -173q22 83 75 139q52 57 117 57q61 0 72 -56q8 -37 -12.5 -79.5t-65.5 -68.5
q3 32 -12 52t-41 20q-35 0 -71.5 -38.5t-61.5 -119.5q-1 -17 -0.5 -41.5t4 -50.5t10 -52t17.5 -47t26.5 -34.5t37.5 -14.5q18 0 35 13q0 -26 -9.5 -52t-27.5 -47q-24 -29 -61 -42.5t-75 -0.5q-51 17 -71.5 61.5t-22.5 116.5q-16 -45 -39 -80.5t-50 -60t-57 -37t-60 -12.5z
" />
    <glyph glyph-name="afii10040" unicode="&#x426;" 
d="M143 -18q-27 0 -49 16q-29 18 -35 57q-4 27 3.5 61t23 69.5t37 70t44.5 62.5q16 20 33.5 44t33 49.5t27 50.5t16.5 48q10 43 -12 69q-17 20 -42 20q-19 0 -34.5 -10t-25.5 -27q-13 -22 -3 -40q6 -11 20 -11q4 0 9 1t10 6q3 -36 -7.5 -61t-22.5 -40q-18 -21 -42 -33
t-49 -12q-28 0 -47 15q-22 17 -27 46.5t8 65.5q10 28 30 56.5t48 51t62.5 36.5t73.5 14q79 0 113 -49q26 -39 20.5 -106t-40.5 -152q-9 -21 -16.5 -43t-12 -42t-4.5 -36t6 -25t18 -9q4 0 10 2t15.5 9t22.5 20.5t31 36.5q6 25 13.5 49.5t18.5 49.5q30 74 62 131t62 95.5
t56 58.5t44 20q6 0 12 -2.5t8 -10.5q5 -18 -4.5 -54t-32 -85t-58 -108.5t-83.5 -124.5q-3 -11 -4 -28t2.5 -34t12 -29t24.5 -12q12 0 22 10q20 23 17 73q9 3 16 3q15 0 22.5 -12t10.5 -25q4 -17 3.5 -38.5t-5.5 -44.5h1q-11 -68 -30 -133.5t-47 -115.5t-64.5 -78t-83.5 -20
q-26 3 -41.5 17t-21.5 33.5t-4 43t11 45.5t23 40t33 28q-5 -17 -5 -33.5t5 -31t15 -24.5t26 -14q42 -7 78 31t58 107q-11 -14 -24.5 -25.5t-28.5 -18.5q-18 -9 -36 -9q-45 0 -71 44t-27 116v29l-18 -23q-23 -30 -49.5 -60t-54 -55t-55.5 -40.5t-54 -15.5z" />
    <glyph glyph-name="afii10041" unicode="&#x427;" 
d="M504 417q-3 -4 -8.5 -23t-10.5 -45.5t-7.5 -56t0.5 -55t13.5 -42t30.5 -16.5q18 0 28.5 20t10.5 51v12q9 3 16 3q12 0 19 -7.5t11 -19t5 -23.5t1 -21q0 -29 -9.5 -65t-27.5 -67.5t-44.5 -53t-59.5 -21.5q-45 0 -67 44t-21 116q0 39 8.5 84t22.5 93q-35 -36 -71 -61
t-69 -25q-35 0 -60 24t-25 68q0 27 13.5 53t30 51.5t31.5 50.5t19 51q3 32 -16.5 47t-43.5 14.5t-44.5 -16t-20.5 -43.5q0 -11 6.5 -19t18.5 -8q4 0 9 1t10 6v-14q0 -34 -11.5 -58.5t-29.5 -41t-39.5 -24.5t-40.5 -8q-35 0 -55 22.5t-20 55.5q0 32 17 68.5t47 67t70.5 51
t88.5 20.5q36 0 69 -12.5t50 -33.5q22 -28 21.5 -55.5t-9.5 -55t-20.5 -54.5t-11.5 -53q0 -16 5.5 -25.5t18.5 -9.5q7 0 34.5 14.5t66.5 58.5q20 48 44 91t49 75t50 51t48 19q8 0 17 -6.5t10 -23.5q1 -30 -10.5 -59.5t-34 -57.5t-54 -54t-69.5 -49z" />
    <glyph glyph-name="afii10042" unicode="&#x428;" horiz-adv-x="910" 
d="M522 179q4 0 13.5 1.5t23 9t31.5 24.5t39 49q6 25 13.5 49.5t18.5 49.5q30 73 62 130t62 96t56 59t44 20q8 0 15 -5t7 -22q0 -22 -12 -58.5t-34.5 -83.5t-56.5 -102t-77 -114q-4 -12 -4 -35q0 -12 2 -24t6.5 -21.5t12 -16t18.5 -6.5q18 0 28.5 20t10.5 51v12q9 3 16 3
q12 0 19 -7.5t11 -19t5 -23.5t1 -21q0 -29 -9.5 -65t-27.5 -67.5t-44.5 -53t-59.5 -21.5q-45 0 -71.5 44t-26.5 116l5 23q-11 -27 -32 -59t-47 -59.5t-55 -46t-56 -18.5q-44 0 -57 44t-3 116l5 29l-18 -23q-23 -30 -49.5 -60t-54 -55t-55.5 -40.5t-54 -15.5q-35 0 -60 24
t-25 68q0 27 9 59t24 64.5t35 63.5t41 57q18 23 38 51t36.5 57t27.5 57.5t11 52.5q0 26 -16.5 44.5t-40.5 18.5q-11 0 -23 -5t-22 -13t-16.5 -19t-6.5 -24q0 -11 6.5 -19t18.5 -8q4 0 9 1t10 6v-14q0 -34 -11.5 -58.5t-29.5 -41t-39.5 -24.5t-40.5 -8q-35 0 -55 22.5
t-20 55.5q0 32 17 68.5t47 67t70.5 51t88.5 20.5q65 0 100 -33.5t35 -100.5q0 -36 -11 -80t-31 -93q-14 -32 -23.5 -64.5t-9.5 -55.5q0 -16 5.5 -25.5t18.5 -9.5q4 0 10 2t15.5 9t22.5 20.5t31 36.5q6 25 13.5 49.5t18.5 49.5q30 73 62 130t62 96t56 59t44 20q8 0 15 -5
t7 -22q0 -22 -12 -58.5t-34.5 -83.5t-56.5 -102t-77 -114q-4 -12 -4 -35q0 -12 2 -24t6.5 -21.5t12 -16t18.5 -6.5z" />
    <glyph glyph-name="afii10043" unicode="&#x429;" horiz-adv-x="910" 
d="M639 -204q-47 0 -67 24.5t-20 59.5q0 18 5 37t14 36t21.5 30.5t27.5 21.5q-5 -18 -5 -34q0 -26 13.5 -48t44.5 -22q36 0 68 34.5t53 94.5q-17 -20 -37.5 -31.5t-44.5 -11.5q-45 0 -71.5 44t-26.5 116l5 23q-11 -27 -32 -59t-47 -59.5t-55 -46t-56 -18.5q-35 0 -50 27
t-15 74q1 14 1.5 28t3.5 31l5 29l-18 -23q-23 -30 -49.5 -60t-54 -55t-55.5 -40.5t-54 -15.5q-35 0 -60 24t-25 68q0 27 9 59t24 64.5t35 63.5t41 57q18 23 38 51t36.5 57t27.5 57.5t11 52.5q0 26 -16.5 44.5t-40.5 18.5q-11 0 -23 -5t-22 -13t-16.5 -19t-6.5 -24
q0 -11 6.5 -19t18.5 -8q4 0 9 1t10 6v-14q0 -34 -11.5 -58.5t-29.5 -41t-39.5 -24.5t-40.5 -8q-35 0 -55 22.5t-20 55.5q0 32 17 68.5t47 67t70.5 51t88.5 20.5q65 0 100 -33.5t35 -100.5q0 -36 -11 -80t-31 -93q-14 -32 -23.5 -64.5t-9.5 -55.5q0 -16 5.5 -25.5t18.5 -9.5
q4 0 10 2t15.5 9t22.5 20.5t31 36.5q6 25 13.5 49.5t18.5 49.5q31 73 62.5 130t61.5 96t55.5 59t44.5 20q8 0 15 -5t7 -22q0 -22 -12 -58.5t-34.5 -83.5t-56.5 -102t-77 -114q-4 -12 -4 -35q0 -12 2 -24t6.5 -21.5t12 -16t18.5 -6.5q4 0 13.5 1.5t23 9t31.5 24.5t39 49
q6 25 13.5 49.5t18.5 49.5q31 73 62.5 130t61.5 96t55.5 59t44.5 20q8 0 15 -5t7 -22q0 -22 -12 -58.5t-34.5 -83.5t-56.5 -102t-77 -114q-4 -12 -4 -35q0 -12 2 -24t6.5 -21.5t12 -16t18.5 -6.5q18 0 28.5 20t10.5 51v12q9 3 16 3q12 0 19 -7.5t11 -19t5 -23.5t1 -21
q0 -41 -8 -86t-22.5 -89t-34.5 -84.5t-44 -71.5t-50.5 -49t-54.5 -18z" />
    <glyph glyph-name="afii10044" unicode="&#x42a;" horiz-adv-x="621" 
d="M370 601q-29 -39 -73.5 -50.5t-107.5 -11.5q-11 0 -24.5 0.5t-27.5 -0.5t-26.5 -5.5t-21.5 -14.5q-16 -19 -10 -59q-35 5 -51 43q-5 11 -6.5 26t1.5 31t12 32.5t26 31.5q29 27 64 35t80 8q63 0 127 -4t130 1q-13 -32 -35.5 -69t-48.5 -78.5t-52.5 -87.5t-48.5 -95.5
t-36 -103t-14 -109.5q0 -22 7 -38.5t18 -27.5t23.5 -16.5t23.5 -5.5q41 0 71.5 26t51 64t31 81t10.5 76q1 32 -3.5 57t-14.5 39.5t-26 17t-38 -9.5q-19 -11 -24.5 -29.5t-1.5 -35.5q3 -15 13.5 -24t23.5 -9q14 0 24 10q15 -8 15 -40q-1 -32 -22.5 -54.5t-53.5 -22.5
q-24 0 -42.5 17.5t-25.5 49.5q-6 28 2.5 63t30 64t54.5 46.5t75 10.5q23 0 47.5 -10.5t44.5 -30t32 -47t10 -62.5q-2 -52 -23.5 -104.5t-59.5 -95t-91 -69t-119 -26.5q-42 0 -79 10.5t-65 32t-43.5 55.5t-14.5 81q1 48 19.5 90.5t46.5 80.5t61.5 73t64.5 67.5t55.5 63.5
t34.5 62z" />
    <glyph glyph-name="afii10045" unicode="&#x42b;" horiz-adv-x="942" 
d="M338 -17q-42 0 -79 10.5t-64.5 32t-43 55.5t-15.5 81q1 51 24.5 103t52 102t52.5 95.5t25 81.5q0 26 -15 44.5t-37 18.5q-11 0 -22 -5.5t-20.5 -15t-15 -21.5t-5.5 -25q-1 -11 5 -19.5t17 -8.5q4 0 8.5 1t9.5 6v-14q-1 -34 -12 -59t-27.5 -41.5t-36 -24.5t-37.5 -8
q-33 0 -51 23t-17 56q1 32 17 69t44 68t65.5 51.5t81.5 20.5q117 0 122 -135q1 -55 -13 -108t-30.5 -104t-31 -99.5t-14.5 -94.5q0 -22 7 -38.5t18 -27.5t23.5 -16.5t23.5 -5.5q41 0 71.5 26t51 64t31 81t10.5 76q1 32 -3.5 57t-14.5 39.5t-26 17t-38 -9.5
q-19 -11 -24.5 -29.5t-1.5 -35.5q3 -15 13.5 -24t23.5 -9q14 0 24 10q15 -8 15 -40q-1 -32 -22.5 -54.5t-53.5 -22.5q-24 0 -42.5 17.5t-25.5 49.5q-5 20 -1.5 44.5t14 48t27.5 44t40 33.5q32 18 70.5 17t72 -19t55 -52t18.5 -82q-2 -52 -23.5 -104.5t-59.5 -95t-91 -69
t-119 -26.5zM974 646q-23 -25 -55.5 -70.5t-62.5 -100t-51 -112.5t-21 -107q0 -32 13.5 -51.5t36.5 -19.5q22 0 43 20q0 -40 -14.5 -81t-38 -74t-52.5 -53.5t-58 -20.5q-36 0 -54.5 30.5t-19.5 69.5q-1 46 21 118t61.5 154t95 165t120.5 150z" />
    <glyph glyph-name="afii10046" unicode="&#x42c;" horiz-adv-x="676" 
d="M338 -17q-42 0 -79 10.5t-64.5 32t-43 55.5t-15.5 81q1 51 24.5 103t52 102t52.5 95.5t25 81.5q0 26 -15 44.5t-37 18.5q-11 0 -22 -5.5t-20.5 -15t-15 -21.5t-5.5 -25q-1 -11 5 -19.5t17 -8.5q4 0 8.5 1t9.5 6v-14q-1 -34 -12 -59t-27.5 -41.5t-36 -24.5t-37.5 -8
q-33 0 -51 23t-17 56q1 32 17 69t44 68t65.5 51.5t81.5 20.5q117 0 122 -135q1 -55 -13 -108t-30.5 -104t-31 -99.5t-14.5 -94.5q0 -22 7 -38.5t18 -27.5t23.5 -16.5t23.5 -5.5q41 0 71.5 26t51 64t31 81t10.5 76q1 32 -3.5 57t-14.5 39.5t-26 17t-38 -9.5
q-19 -11 -24.5 -29.5t-1.5 -35.5q3 -15 13.5 -24t23.5 -9q14 0 24 10q15 -8 15 -40q-1 -32 -22.5 -54.5t-53.5 -22.5q-24 0 -42.5 17.5t-25.5 49.5q-6 28 2.5 63t30 64t54.5 46.5t75 10.5q23 0 47.5 -10.5t44.5 -30t32 -47t10 -62.5q-2 -52 -23.5 -104.5t-59.5 -95t-91 -69
t-119 -26.5z" />
    <glyph glyph-name="afii10047" unicode="&#x42d;" horiz-adv-x="561" 
d="M264 565q0 -12 9.5 -21t24.5 -9q17 0 25 12q14 -22 14 -42t-8.5 -36.5t-23 -28.5t-34 -18.5t-41.5 -6.5q-24 0 -41 8.5t-27.5 21.5t-15.5 29.5t-5 32.5q0 38 16 68.5t43 51.5t62.5 32t74.5 11q47 0 82.5 -19.5t59.5 -51.5t38 -72t17 -80q6 -75 -6 -151t-44 -139.5
t-85.5 -108.5t-131.5 -57q-42 -6 -82.5 -2.5t-72.5 19t-51.5 44.5t-19.5 73q0 28 9 55.5t27.5 49.5t47 36.5t66.5 16.5q-15 -18 -18.5 -41t4 -44.5t26 -37.5t46.5 -19q52 -5 92.5 23.5t68 75t40 104.5t7.5 112q-3 31 -11 60.5t-23 52.5t-37.5 37.5t-54.5 16.5
q-28 0 -47.5 -16t-19.5 -42zM244 368q-8 -19 -5.5 -37t12.5 -30.5t26 -16.5t34 6q-9 29 7 42.5t38 10t42 -23.5t20 -59q7 51 -13 88.5t-50 54t-62 9.5t-49 -44z" />
    <glyph glyph-name="afii10048" unicode="&#x42e;" horiz-adv-x="1013" 
d="M621 -4q-74 0 -118.5 49t-46.5 133q-2 85 30 167q-13 -1 -25 -1.5t-23 -0.5l-57 -143q-19 -47 -43.5 -86.5t-55.5 -67.5t-68 -43t-80 -12q-38 2 -64 16t-41 34.5t-21 44.5t-5 47q1 27 12 53t31 47t48.5 34.5t65.5 15.5q-13 -19 -15.5 -39t5.5 -38q8 -20 25 -31t39 -11
q16 0 31 6q33 13 67.5 60t68.5 107q-52 -8 -89.5 -25.5t-60.5 -60.5q-19 26 -17 64q4 48 40 74q30 23 75.5 28.5t93.5 5.5h5l10 19q20 37 37.5 70.5t33.5 57.5l21 31q-15 -20 -30.5 -32t-34.5 -18.5t-43 -9t-55 -2.5q-11 0 -24.5 0.5t-27.5 -0.5t-26.5 -5.5t-21.5 -14.5
q-16 -19 -10 -59q-35 5 -51 43q-5 11 -6.5 26t1.5 31t12 32.5t26 31.5q29 27 64 35t80 8q63 0 127 -4t130 1q-19 -14 -41 -42.5t-44.5 -63t-43 -71.5t-36.5 -68q7 -1 18.5 -1t25.5 -1q32 53 76 100q49 53 105 83t103 30q5 0 9 -0.5t11 -1.5q43 33 82 33q40 0 69 -32
q23 -25 32.5 -64t5.5 -86q-5 -68 -27 -134.5t-57 -125.5t-81.5 -106.5t-101.5 -80.5q-63 -36 -124 -36zM687 518q-23 -34 -40 -75q-5 -13 -10 -27q31 2 56 6.5t37 13.5l-6 -49q-8 -5 -36 -12t-66 -13q-1 -3 -1 -5q-10 -44 -12.5 -88.5t2.5 -85.5q5 -48 27 -75t56 -27
q28 0 57 19.5t53 54t39 83.5t16 107q2 122 -35 160q-20 18 -41 18t-45 -13q6 15 15.5 31t19.5 30q10 13 25 29q-25 -7 -53 -24.5t-58 -57.5z" />
    <glyph glyph-name="afii10049" unicode="&#x42f;" horiz-adv-x="839" 
d="M796 647q-5 -5 -10 -10.5t-10 -12.5q32 -18 55.5 -43t35.5 -55.5t11.5 -66.5t-16.5 -75q-17 -30 -44 -37.5t-54.5 1t-49.5 30t-27 49.5q19 -15 33 -19t24.5 -1t17.5 12t12 21q17 41 8 78.5t-37 63.5q-24 -33 -48.5 -73.5t-44.5 -84t-33 -86.5t-13 -81q0 -32 15 -51.5
t38 -19.5q22 0 43 20q0 -40 -14.5 -81t-38 -74t-52.5 -53.5t-58 -20.5q-18 0 -31 8.5t-21.5 22t-13 31.5t-4.5 38q-1 35 12 87.5t39 114.5q-8 -1 -16.5 -1.5t-16.5 0.5q-28 -10 -50.5 -34t-43.5 -55t-43.5 -64.5t-50 -63t-62.5 -50.5t-81 -25q-38 1 -63.5 13t-40.5 29.5
t-21 38t-5 39.5q1 23 12 45t31 40t48.5 29t64.5 13q-13 -16 -21.5 -37t-0.5 -36q11 -19 26 -20.5t33.5 8.5t41.5 29t48.5 40t54.5 41.5t61 33.5q-32 12 -59.5 33t-45.5 48.5t-24 59.5t5 67q8 32 33 61.5t65.5 52t97 36t128.5 12.5q65 -2 119 -23q5 7 11 13l12 12zM713 604
q-31 17 -71 20q-48 3 -91 -7t-75 -46q-30 -38 -40 -83q-7 -29 -5 -60.5t14 -58t34 -43t55 -14.5q33 73 78.5 148.5t100.5 143.5z" />
    <glyph glyph-name="afii10065" unicode="&#x430;" horiz-adv-x="437" 
d="M303 106q9 3 25 13.5t34.5 26t38 35t36.5 41.5l15 -4l5 -16q-20 -26 -45.5 -55.5t-54.5 -57t-60.5 -49t-64.5 -31.5q-10 -4 -19.5 0t-14.5 13q-19 37 -8 100q-67 -78 -143 -115q-21 -10 -38 7q-28 31 -35 71.5t5 85.5q7 27 24 57t40.5 57t51.5 49t57 34q48 18 82 9
t43 -43q7 11 13.5 19.5t12.5 16.5l67 -3q-23 -32 -40 -69.5t-26 -73.5t-10 -67.5t9 -50.5zM88 99q22 14 43 30.5t38.5 33t30 31.5t18.5 27l14 31q11 25 8.5 42t-13 25.5t-27.5 8t-35 -10.5q-36 -22 -57 -52.5t-29.5 -62t-5.5 -59.5t15 -44z" />
    <glyph glyph-name="afii10066" unicode="&#x431;" horiz-adv-x="400" 
d="M300 193q26 -14 53 -5.5t47 34.5l16 -4l4 -16q-27 -37 -62.5 -48.5t-73.5 1.5q-21 -43 -54 -79.5t-78 -59.5q-32 -17 -66 -12q-43 6 -67.5 33t-31.5 65.5t2.5 83t33 85t60.5 72.5t86 45l14 -16q-44 -23 -68 -63t-29.5 -81.5t7.5 -76t45 -46.5q63 44 87 109t18 134
t-38 132t-82 103l32 89q12 -2 32 -8.5t44.5 -11.5t51.5 -7t52.5 5t47 24.5t35.5 51.5l32 -9q-11 -53 -33 -85t-48.5 -49.5t-53.5 -23.5t-48.5 -7.5t-33 -1t-7.5 -4.5q20 -19 40 -57.5t33 -87t15 -103t-14 -105.5z" />
    <glyph glyph-name="afii10067" unicode="&#x432;" horiz-adv-x="354" 
d="M269 216q20 -21 43 -20t42 26l15 -4l5 -16q-26 -35 -58.5 -39t-64.5 15q-27 -51 -72 -95.5t-105 -70.5q-11 -5 -23 -2t-20 13q-36 46 -38.5 110.5t19.5 137t63 149t91.5 148t105 133t103.5 104.5q72 63 113 80.5t50.5 -2.5t-12.5 -73t-76 -131q-46 -66 -87 -116.5
t-81 -92t-81 -76.5t-86 -69q-10 -27 -15 -56t-5 -56.5t4 -52t12 -41.5q15 6 29.5 17.5t27.5 25t24 28t18 26.5q-14 20 -20 45.5t-1 55.5l80 41q19 -22 18 -59.5t-18 -82.5zM275 544q45 60 64 96.5t16 47t-24.5 -6.5t-57.5 -64q-43 -54 -73 -106.5t-50 -101.5q23 19 55 51.5
t70 83.5z" />
    <glyph glyph-name="afii10068" unicode="&#x433;" horiz-adv-x="351" 
d="M214 383q43 0 57.5 -21.5t12.5 -49.5q-2 -15 -8.5 -28.5t-16.5 -28t-22.5 -31.5t-25.5 -39q-7 -12 -17 -30t-14 -35.5t1.5 -29.5t29.5 -12q20 0 40.5 16t40 39t36.5 49.5t31 47.5l20 -14q-15 -29 -41 -66.5t-57.5 -71.5t-66.5 -57t-68 -23q-44 0 -65 19.5t-23 49t13.5 63
t44.5 61.5q9 9 21.5 27t20.5 36.5t7 32t-18 13.5q-24 0 -57 -29t-79 -93l-16 28q18 26 43.5 57t54.5 57.5t60.5 44.5t60.5 18z" />
    <glyph glyph-name="afii10069" unicode="&#x434;" horiz-adv-x="402" 
d="M422 202q-28 -37 -68.5 -48.5t-78.5 1.5q-20 -43 -48.5 -79.5t-73.5 -59.5q-30 -17 -65 -12q-38 5 -61.5 27t-33.5 54t-7.5 70t17 75.5t40 71t60.5 56.5q28 17 57.5 29.5t54.5 20.5q31 10 56 14q-2 24 -4 48.5t-7 50.5l-11 52q-10 40 -23 80t-30 80l91 17q13 -36 22 -71
t15 -69l8 -53q13 -112 -2 -204t-39 -161q27 -13 59 -4.5t52 34.5l15 -4zM139 105q66 36 98 109t34 168q-25 -5 -45 -13t-43.5 -20t-43.5 -31q-28 -26 -41.5 -58.5t-13.5 -63.5t14 -56t41 -35z" />
    <glyph glyph-name="afii10070" unicode="&#x435;" horiz-adv-x="279" 
d="M299 202q-20 -27 -48 -55.5t-60 -54.5t-66 -48t-65 -36q-13 -6 -27 -4t-25 11q-26 22 -34.5 56t-1.5 72.5t27.5 79t51.5 76.5t70.5 64t85.5 42q37 -17 48 -48.5t-5 -66.5t-57.5 -69.5t-107.5 -58.5q2 -20 6 -37.5t12 -32.5q16 6 39 17.5t47.5 28t48 38t41.5 46.5l16 -4z
M146 332q-29 -18 -44 -54.5t-17 -78.5q28 13 45.5 32.5t24.5 39.5t4.5 36.5t-13.5 24.5z" />
    <glyph glyph-name="afii10072" unicode="&#x436;" horiz-adv-x="742" 
d="M155 174q9 24 17.5 53.5t10 54.5t-7 39t-34.5 7q-13 -5 -30.5 -21t-35.5 -36t-35 -39.5t-29 -31.5l-18 23q3 2 14 15.5t28 32.5t38.5 40t45.5 38.5t49 27t48 5.5q22 2 37 -17.5t21 -50t1.5 -65.5t-22.5 -65q30 35 56 70.5t46 64.5l18 62h83l-70 -223q21 27 43 56.5
t45 56.5q30 41 63.5 65.5t64.5 36t56.5 11t40.5 -9.5q13 -9 18 -24t1 -33t-17.5 -37.5t-37.5 -35.5l-53 43q26 25 28 37t-9.5 9.5t-31 -20t-34.5 -50.5q-8 -18 -19.5 -49.5t-16.5 -63.5t3.5 -57t41.5 -30q22 7 45.5 22.5t46 36.5t43.5 45t39 48l15 -4l5 -16q-19 -26 -44 -55
t-55.5 -56t-64.5 -49.5t-71 -34.5q-29 -10 -49 -4.5t-32 21t-17 39t-5 49.5q0 20 3.5 40t10.5 42q-24 -33 -46 -67t-39 -62l-17 -59l-82 1l69 224q-28 -33 -61 -73t-70 -74t-77.5 -57t-82.5 -23q-23 0 -37 6t-22.5 16t-12.5 22.5t-5 25.5q-2 17 4.5 31.5t17.5 25.5t24.5 17
t26.5 6l19 -25q-10 -2 -19.5 -15t-9.5 -39q0 -12 5 -20t17 -6t27 13t31 28t30 40.5t23 50.5z" />
    <glyph glyph-name="afii10073" unicode="&#x437;" horiz-adv-x="383" 
d="M403 202q-30 -42 -65.5 -77.5t-86.5 -70.5q7 -67 -6.5 -145t-48.5 -152t-93 -136t-140 -96q-56 3 -80 33t-22.5 76.5t26 104t65 115t94 109.5t114.5 88q-2 30 -7.5 59t-16.5 55q-9 -2 -18.5 -2h-19.5q-31 0 -43 10t-9.5 22.5t18.5 23.5t40 13q38 3 70 -17q11 12 17 25
t4 24t-13 18t-33 7q-20 0 -36.5 1t-30.5 5q-11 -24 -25 -43.5t-37 -49.5l-15 4l-5 16q13 18 21.5 29t14.5 19.5t10.5 16.5t10.5 19q-18 11 -29 32t-13 56l90 29q1 -15 8.5 -24t22.5 -13t39 -5t59 -1q28 0 43.5 -23t14 -54.5t-22 -64.5t-63.5 -54q13 -16 22 -37t15 -46
q45 29 81 59t59 62l16 -4zM-29 -410q33 24 65 66.5t58 96.5t43.5 115.5t22.5 123.5q-67 -54 -110.5 -115.5t-66 -118t-25 -101.5t12.5 -67z" />
    <glyph glyph-name="afii10074" unicode="&#x438;" horiz-adv-x="396" 
d="M262 106q9 3 25 13.5t34.5 26t38 35t36.5 41.5l15 -4l5 -16q-20 -27 -45 -56t-53 -55.5t-58.5 -47.5t-62.5 -33q-13 -5 -25 0.5t-17 18.5q-6 15 -8 32t-1 35q-29 -30 -61.5 -52.5t-65.5 -33.5q-14 -5 -26 1t-17 19q-14 36 -6.5 84.5t26.5 97t43.5 91t44.5 66.5l76 -3
q-23 -32 -41.5 -69t-29.5 -73t-13 -67t8 -51q20 6 38 21t36 35q8 30 20.5 60.5t26.5 58.5t29 50.5t28 37.5l67 -3q-23 -32 -39.5 -69t-26 -73t-10.5 -67t9 -51z" />
    <glyph glyph-name="afii10075" unicode="&#x439;" horiz-adv-x="396" 
d="M262 106q9 3 25 13.5t34.5 26t38 35t36.5 41.5l15 -4l5 -16q-20 -27 -45 -56t-53 -55.5t-58.5 -47.5t-62.5 -33q-13 -5 -25 0.5t-17 18.5q-6 15 -8 32t-1 35q-29 -30 -61.5 -52.5t-65.5 -33.5q-14 -5 -26 1t-17 19q-14 36 -6.5 84.5t26.5 97t43.5 91t44.5 66.5l76 -3
q-23 -32 -41.5 -69t-29.5 -73t-13 -67t8 -51q20 6 38 21t36 35q8 30 20.5 60.5t26.5 58.5t29 50.5t28 37.5l67 -3q-23 -32 -39.5 -69t-26 -73t-10.5 -67t9 -51zM244 440q-25 1 -43.5 13t-28 30t-10 40.5t9.5 45.5l69 -10q-2 -25 9 -38.5t27.5 -14.5t34.5 11.5t32 40.5h43
q-18 -56 -53.5 -88t-89.5 -30z" />
    <glyph glyph-name="afii10076" unicode="&#x43a;" horiz-adv-x="371" 
d="M9 3h-107l176 380h89q-1 -3 -8.5 -18.5t-16 -34t-16 -34.5t-8.5 -19q16 34 32.5 60.5t36 50.5t42.5 47.5t50 50.5q41 41 78.5 61t65 22.5t42 -11.5t9.5 -41.5t-33 -67t-84 -88.5q-15 -13 -35.5 -27.5t-44.5 -28.5t-50.5 -27.5t-53.5 -23.5l76 -13q-3 -16 -6.5 -36t-5 -39
t1 -35t12.5 -25q9 3 25 13.5t34.5 26.5t38 35.5t35.5 40.5l16 -4l4 -16q-17 -23 -42 -52t-54 -56.5t-61 -50t-64 -33.5q-11 -5 -22.5 -0.5t-16.5 15.5q-9 15 -15 35.5t-7 47t5 60.5t21 77q-11 -4 -21.5 -6.5t-21.5 -4.5zM341 446q-16 5 -36.5 -4.5t-44 -30.5t-48.5 -52
t-51 -70q40 16 77.5 41.5t64.5 50t38.5 43.5t-0.5 22z" />
    <glyph glyph-name="afii10077" unicode="&#x43b;" horiz-adv-x="413" 
d="M163 96q5 32 14 65.5t21 64.5q-20 -26 -40.5 -52t-39 -49.5t-34.5 -43.5t-27 -32q-25 -26 -38 -38t-25 -13q-19 -1 -29 10t-13.5 30t-2 42.5t6 46.5t11 43t12.5 32l46 7q-8 -61 7.5 -84t38.5 4q18 21 43.5 49t53.5 60t57 67.5t54 71.5l-1 -3l1 1l67 -3q-23 -32 -39.5 -70
t-26 -75t-10.5 -69.5t9 -51.5q9 3 25 13.5t34.5 26t38 35t36.5 41.5l15 -4l5 -16q-20 -27 -45 -56t-53 -55.5t-58.5 -47.5t-62.5 -33q-13 -5 -25 0.5t-17 18.5q-6 15 -8 32t-1 35z" />
    <glyph glyph-name="afii10078" unicode="&#x43c;" horiz-adv-x="562" 
d="M312 96q3 26 9 49q-18 -23 -37 -47.5t-37.5 -45.5t-34.5 -36t-27 -19q-14 -5 -26 1t-17 19q-8 24 -8 44q3 46 12 87q-23 -32 -43 -57t-37 -43q-25 -26 -36.5 -38t-23.5 -13q-19 -1 -29 10t-14 30t-3 42.5t5.5 46.5t10.5 43t12 32l46 7q-8 -61 5.5 -82t40.5 2
q20 17 46.5 51.5t55.5 76.5q18 41 36.5 69.5t31.5 43.5l76 -3q-23 -32 -43.5 -67.5t-33.5 -70t-17 -64t6 -49.5q22 14 45.5 43.5t44.5 61.5t38 59.5t26 37.5l-1 -2q22 36 37 54l67 -3q-23 -32 -39.5 -69t-26 -73t-10.5 -67.5t9 -50.5q9 3 25 13.5t34.5 26t38 35t36.5 41.5
l15 -4l5 -16q-20 -27 -45 -56t-53 -55.5t-58.5 -47.5t-62.5 -33q-13 -5 -25 0.5t-17 18.5q-6 15 -8 32t-1 35z" />
    <glyph glyph-name="afii10079" unicode="&#x43d;" horiz-adv-x="400" 
d="M199 -4q-11 -5 -22.5 0t-16.5 17q-14 32 -8.5 78t22.5 95h-95l-64 -191l-90 6l128 378l90 -5l-46 -136h98q20 45 42 82.5t40 59.5l80 -6q-38 -52 -59 -98.5t-30 -83.5t-8 -63t7 -37q9 3 25 14t34.5 26.5t38 35t35.5 40.5l15 -4l5 -16q-19 -26 -44 -55t-53.5 -56
t-60 -48.5t-63.5 -32.5z" />
    <glyph glyph-name="afii10080" unicode="&#x43e;" horiz-adv-x="400" 
d="M420 202q-27 -37 -62.5 -48.5t-73.5 1.5q-21 -43 -54 -79.5t-78 -59.5q-32 -17 -66 -12q-43 6 -67.5 33t-31.5 65.5t2.5 83t33 85t60.5 72.5t86 45l14 -16q-44 -23 -68 -63t-29.5 -81.5t7.5 -76t45 -46.5q35 12 60.5 37t35.5 43q-24 24 -36.5 64.5t-2.5 97.5l80 41
q32 -38 37 -89.5t-12 -105.5q26 -14 53 -5.5t47 34.5l16 -4z" />
    <glyph glyph-name="afii10081" unicode="&#x43f;" horiz-adv-x="373" 
d="M240 106q9 3 25 14t34.5 26.5t38 35t35.5 40.5l16 -4l5 -16q-18 -24 -42 -52t-51.5 -54.5t-57.5 -48.5t-61 -34q-17 -6 -32 1t-20 24q-12 45 -0.5 108t45.5 129q-29 -11 -59 -40.5t-53 -67.5l-58 -167l-80 6l129 373l80 -5l-38 -110q31 35 67.5 63t73.5 41l53 -4
q-18 -30 -31.5 -64t-20.5 -68t-7 -66.5t9 -59.5z" />
    <glyph glyph-name="afii10082" unicode="&#x440;" horiz-adv-x="377" 
d="M259 109q29 20 61.5 50.5t56.5 62.5l16 -4l4 -16q-18 -24 -46 -54.5t-62.5 -59t-73 -51.5t-76.5 -32q-21 -5 -41 2t-34 24t-25 37l-104 -303l-90 6l306 892l91 -6l-100 -290q24 16 49.5 19.5t50.5 -7.5q27 -12 41 -42t15.5 -68t-8.5 -80.5t-31 -79.5zM87 98
q40 10 69.5 42.5t44.5 70t15.5 71t-16.5 45.5q-20 14 -42.5 0.5t-44.5 -44.5l-54 -157q5 -8 11.5 -15.5t16.5 -12.5z" />
    <glyph glyph-name="afii10083" unicode="&#x441;" horiz-adv-x="293" 
d="M116 92q16 6 39 18.5t48 29t48.5 37.5t41.5 45l15 -4l5 -16q-19 -26 -47 -54t-61 -55t-68 -49.5t-66 -36.5q-12 -5 -25.5 -4.5t-24.5 8.5q-28 18 -40.5 47t-11 63.5t16 71.5t40.5 70q34 43 68.5 68.5t65 36t55 8.5t39.5 -13q13 -10 17.5 -27t-0.5 -36.5t-20 -40
t-41 -37.5l-55 50q29 26 28.5 38.5t-16.5 9.5t-40.5 -21.5t-42.5 -54.5q-9 -18 -13 -40.5t-1 -44t14 -39.5t32 -28z" />
    <glyph glyph-name="afii10084" unicode="&#x442;" horiz-adv-x="557" 
d="M572 218l5 -16q-18 -23 -42 -51t-51.5 -55t-58 -49t-60.5 -34q-16 -6 -31.5 1t-20.5 24q-12 45 -0.5 108t45.5 129q-29 -11 -59 -40.5t-53 -67.5l-58 -167l-89 6l93 271q-31 -9 -64 -41t-57 -74l-56 -162l-90 6l128 373l90 -5l-38 -112q31 35 68 64t74 42l66 -6l-34 -98
q31 35 67.5 63t73.5 41l53 -4q-18 -30 -31.5 -64t-20.5 -68t-7 -66.5t9 -59.5q9 3 25 13.5t34.5 26t38 35t36.5 41.5z" />
    <glyph glyph-name="afii10085" unicode="&#x443;" horiz-adv-x="410" 
d="M430 202q-38 -51 -91 -100.5t-125 -88.5q-14 -44 -27.5 -86t-27 -79.5t-27.5 -69t-29 -53.5q-51 -75 -104.5 -125t-116.5 -75q-44 6 -64.5 29.5t-18.5 59.5t25 83t64.5 99t100.5 108t133 110l30 89q-29 -31 -61.5 -54.5t-65.5 -36.5q-16 -6 -31.5 1.5t-20.5 23.5
q-11 37 -2.5 84.5t27 95t42.5 88t44 64.5l76 -3q-23 -32 -41 -69t-29 -73t-13.5 -67t7.5 -51q26 8 50.5 31.5t47.5 53.5q18 54 45.5 102.5t81.5 86.5l52 -10q-17 -17 -33 -46.5t-31.5 -67.5t-30.5 -83t-30 -92q55 32 101 68t73 73l15 -4zM-96 -409q24 13 49 49t50 84.5
t48 104.5t43 109q-60 -53 -100.5 -106.5t-63 -100t-28.5 -83t2 -57.5z" />
    <glyph glyph-name="afii10086" unicode="&#x444;" horiz-adv-x="585" 
d="M320 280q57 66 119 100q21 12 39 -5q29 -29 38.5 -69t-0.5 -86q-13 -55 -56 -114q17 12 35.5 26.5t35.5 29.5t31 29t23 26l16 -4l4 -16q-18 -24 -48.5 -56t-69.5 -62.5t-84 -53.5t-92 -29q-57 -11 -80 25l-88 -256l-90 6l112 326q-55 -62 -117 -97q-21 -12 -39 5
q-29 29 -38.5 69t0.5 86q6 28 22 59.5t38.5 60.5t49.5 53.5t55 37.5q41 18 72 15t47 -26l104 303l91 -6zM403 286q-22 -15 -42 -32t-36.5 -34.5t-28 -33.5t-17.5 -28l-12 -33l-6 -17q-6 -22 -1 -36t16 -20.5t27 -4.5t32 12q34 24 54 56.5t27.5 65.5t3.5 61.5t-17 43.5z
M84 94q21 15 40.5 31.5t35.5 33t28 32t18 28.5l22 64q3 18 -3 30t-17.5 17t-26 2.5t-29.5 -11.5q-35 -24 -54.5 -56.5t-27 -65.5t-3.5 -61.5t17 -43.5z" />
    <glyph glyph-name="afii10087" unicode="&#x445;" horiz-adv-x="346" 
d="M366 202q-20 -27 -43.5 -56t-50 -55.5t-55.5 -48t-60 -32.5q-12 -5 -24.5 -1t-20.5 14q-8 11 -15.5 22.5t-13.5 24.5q-30 -47 -52.5 -71t-42 -31t-39 1t-44.5 25q5 10 16 25.5t22 31.5q6 9 12.5 18.5t14.5 19.5q28 -14 49.5 -11.5t46.5 36.5q-10 29 -15.5 59t-7.5 61
q-5 -8 -11 -16l-12 -16l-16 4l-4 16q14 17 23.5 31t17.5 25q0 52 6 91l61 -2q-3 -77 22 -143q29 52 52 85t45 48.5t45 13.5t52 -20l-45 -100q-17 11 -31 14t-28.5 -4.5t-31 -27t-37.5 -52.5q22 -40 62 -75q9 3 24 12t33 23.5t37.5 34.5t38.5 46l16 -4z" />
    <glyph glyph-name="afii10088" unicode="&#x446;" horiz-adv-x="396" 
d="M153 -19q-9 -33 2 -50.5t36 -25.5q21 -1 39.5 8t35 31t30 58.5t24.5 90.5q-29 -27 -60 -49t-63 -34q-13 -5 -25 0.5t-17 18.5q-6 15 -8 32t-1 35q-29 -30 -61.5 -52.5t-65.5 -33.5q-14 -5 -26 1t-17 19q-14 36 -6.5 84.5t26.5 97t43.5 91t44.5 66.5l76 -3
q-23 -32 -41.5 -69t-29.5 -73t-13 -67t8 -51q20 6 38 21t36 35q8 30 20.5 60.5t26.5 58t29 50.5t28 38l67 -3q-23 -32 -39.5 -69t-26 -73t-10.5 -67.5t9 -50.5q9 3 25 13.5t34.5 26t38 35t36.5 41.5l15 -4l5 -16q-14 -19 -30.5 -38.5t-34.5 -39.5q-11 -63 -25.5 -122
t-35.5 -103.5t-50.5 -69.5t-70.5 -20q-34 7 -48.5 30t-14.5 51t13 53.5t34 37.5z" />
    <glyph glyph-name="afii10089" unicode="&#x447;" horiz-adv-x="318" 
d="M338 202q-20 -26 -45 -55t-53 -56t-59 -48.5t-63 -32.5q-12 -5 -24 1t-16 18q-8 24 -7.5 56t9.5 69t25.5 76t40.5 77q-10 0 -22.5 1.5t-26.5 8.5q-2 -6 -9.5 -18t-18 -28t-23.5 -34t-26 -35l-15 4l-5 16q12 15 24 31.5t22.5 31.5t18 27t10.5 19q-14 10 -19.5 22.5
t-9.5 26.5l57 46q7 -28 29 -43.5t76 -14.5l14 -27q-15 -29 -25.5 -60.5t-16 -62t-4.5 -59.5t9 -53q9 3 24.5 12.5t33.5 24.5t37.5 35t37.5 44l15 -4z" />
    <glyph glyph-name="afii10090" unicode="&#x448;" horiz-adv-x="568" 
d="M191 10q-13 -5 -25 0.5t-17 18.5q-6 15 -8 32t-1 35q-29 -30 -61.5 -52.5t-65.5 -33.5q-14 -5 -26 1t-17 19q-14 36 -6.5 84.5t26.5 97t43.5 91t44.5 66.5l76 -3q-23 -32 -41.5 -69t-29.5 -73t-13 -67t8 -51q20 6 38 21t36 35q8 30 20.5 60.5t26.5 58t29 50.5t28 38
l76 -3q-23 -32 -41.5 -69t-29.5 -73t-13 -67t8 -51q20 6 38 21t36 35q8 30 20.5 60.5t26.5 58t29 50.5t28 38l67 -3q-23 -32 -39.5 -69t-26 -73t-10.5 -67.5t9 -50.5q9 3 25 13.5t34.5 26t38 35t36.5 41.5l15 -4l5 -16q-20 -27 -45 -56t-53 -55.5t-58.5 -47.5t-62.5 -33
q-13 -5 -25 0.5t-17 18.5q-6 15 -8 32t-1 35q-29 -30 -61.5 -52.5t-65.5 -33.5z" />
    <glyph glyph-name="afii10091" unicode="&#x449;" horiz-adv-x="568" 
d="M301 -32q-9 -33 2 -50.5t36 -25.5q40 -2 73 40.5t54 136.5q-23 -20 -47.5 -35t-49.5 -24q-13 -5 -25 0.5t-17 18.5q-6 15 -8 32t-1 35q-29 -30 -61.5 -52.5t-65.5 -33.5q-13 -5 -25 0.5t-17 18.5q-6 15 -8 32t-1 35q-29 -30 -61.5 -52.5t-65.5 -33.5q-14 -5 -26 1t-17 19
q-14 36 -6.5 84.5t26.5 97t43.5 91t44.5 66.5l76 -3q-23 -32 -41.5 -69t-29.5 -73t-13 -67t8 -51q20 6 38 21t36 35q8 30 20.5 60.5t26.5 58t29 50.5t28 38l76 -3q-23 -32 -41.5 -69t-29.5 -73t-13 -67t8 -51q20 6 38 21t36 35q8 30 20.5 60.5t26.5 58t29 50.5t28 38l67 -3
q-23 -32 -39.5 -69t-26 -73t-10.5 -67.5t9 -50.5q9 3 25 13.5t34.5 26t38 35t36.5 41.5l15 -4l5 -16q-19 -26 -42 -53t-49 -52q-11 -61 -26 -117.5t-36.5 -99t-50.5 -66.5t-69 -19q-34 7 -48 30.5t-13.5 51t13.5 53.5t34 38z" />
    <glyph glyph-name="afii10092" unicode="&#x44a;" horiz-adv-x="466" 
d="M197 232q34 20 73.5 28.5t64.5 -0.5q39 -15 50 -58q22 -13 43 -7q23 7 35 36h17l7 -15q-17 -40 -48 -52q-24 -9 -51 -4q-3 -24 -17.5 -50.5t-37 -49.5t-50.5 -40.5t-59 -23.5q-44 -9 -73.5 1t-46.5 32.5t-21.5 52.5t1.5 61q8 37 30 81.5t46 82.5q-10 0 -28.5 1.5
t-32.5 8.5q-2 -6 -9.5 -18t-18 -28t-23.5 -34t-26 -35l-15 4l-5 16q12 15 24 31.5t22.5 31.5t18 27t10.5 19q-14 10 -19.5 22.5t-9.5 26.5l57 46q7 -28 35 -43.5t82 -14.5l14 -27q-27 -52 -39 -109zM193 185q-7 -24 -10 -50.5t-1 -48.5t9 -34.5t19 -8.5q7 3 21.5 10.5
t29 21.5t24 35.5t8.5 51.5q-1 25 -12 37t-26 14t-32 -5.5t-30 -22.5z" />
    <glyph glyph-name="afii10093" unicode="&#x44b;" horiz-adv-x="540" 
d="M339 0q-11 -5 -22.5 0t-16.5 17q-16 36 -7 88.5t30 105.5q-29 -19 -61 -22q1 -5 1 -10.5v-10.5q-1 -24 -12 -53t-33 -54.5t-54 -44t-75 -21.5q-65 -4 -90.5 27.5t-25.5 82.5q0 41 15.5 85t34.5 82t36.5 66t22.5 37l95 -3q-57 -78 -77 -135q22 13 36 18t37 5t42 -7t31 -22
q19 -1 38 5t35.5 16.5t29 24.5t18.5 29h2q26 44 48 71l80 -6q-38 -52 -59 -97.5t-30 -81.5t-8 -60.5t7 -35.5q9 3 25 14t34.5 26.5t38 35t35.5 40.5l15 -4l5 -16q-19 -26 -44 -55t-53.5 -56t-60 -48.5t-63.5 -32.5zM82 30q16 2 31 16.5t27 35t19 43.5t7.5 43t-8 33t-27.5 13
t-35 -15t-26 -39q-5 -20 -10 -35t-5 -31q0 -27 4 -44.5t23 -19.5z" />
    <glyph glyph-name="afii10094" unicode="&#x44c;" horiz-adv-x="369" 
d="M177 380q-29 -39 -48 -77t-29 -66q22 13 36 18t37 5q42 0 67 -22t23 -70q-2 -27 -15 -58q25 20 56 51t54 61l15 -4l5 -16q-17 -23 -39 -48.5t-47.5 -49t-53.5 -44t-56 -33.5q-38 -28 -93 -32q-65 -4 -90.5 27.5t-25.5 82.5q0 41 15.5 86t34.5 85t36.5 69t22.5 38zM82 30
q16 2 31 16.5t27 35t19 43.5t7.5 43t-8 33t-27.5 13t-35 -15t-26 -39q-5 -20 -10 -35t-5 -31q0 -27 4 -44.5t23 -19.5z" />
    <glyph glyph-name="afii10095" unicode="&#x44d;" horiz-adv-x="397" 
d="M1 226q11 19 33.5 46t52.5 52t64.5 42.5t69.5 17.5q10 0 13 -1t12 -3q29 -6 52.5 -26.5t27.5 -67.5q0 -63 -25.5 -117t-65.5 -92q21 8 43 25t43 37.5t40.5 41.5t36.5 37l19 -19q-26 -31 -59 -67t-74.5 -66.5t-91.5 -51t-110 -20.5q-21 0 -43 4.5t-39.5 13.5t-28.5 22.5
t-11 31.5q0 24 9 40t22 26t28.5 14.5t28.5 4.5l11 -35q-9 -2 -21 -16.5t-12 -39.5q0 -17 11 -23t26 -6q18 2 37.5 13t38 29.5t33.5 43t24 53.5l5 17l-124 -13l14 50l120 -2q2 13 3.5 27t1.5 27.5t-3.5 25t-11.5 19.5q-6 6 -8 9t-14 3q-17 0 -37 -12t-41 -30.5t-42 -41.5
t-40 -45z" />
    <glyph glyph-name="afii10096" unicode="&#x44e;" horiz-adv-x="549" 
d="M566 199q-27 -37 -62.5 -48.5t-73.5 1.5q-21 -43 -54 -79.5t-78 -59.5q-32 -17 -66 -12q-43 6 -67.5 33t-31.5 65.5t2 82.5q1 2 1 4h-57l-64 -191l-90 6l128 378l90 -5l-46 -136h56q7 15 15 29q24 41 61 73t86 45l14 -16q-44 -23 -68 -63t-29.5 -81.5t7.5 -76t45 -46.5
q35 12 60.5 37t35.5 43q-24 24 -36.5 64.5t-2.5 97.5l80 41q32 -38 37 -89.5t-12 -105.5q26 -14 53 -5.5t47 34.5l16 -4z" />
    <glyph glyph-name="afii10097" unicode="&#x44f;" horiz-adv-x="407" 
d="M237 313q1 17 -4 31t-21 14q-14 0 -27.5 -12t-24.5 -29t-18.5 -37.5t-8.5 -38.5q-2 -8 -1.5 -16t6.5 -15t19.5 -12t38.5 -5q17 31 28 63t13 57zM18 -15q-18 -1 -28 9.5t-14.5 28t-4 39.5t4 43t9 38.5t11.5 27.5l44 6q-8 -65 5 -89t35 -20.5t48.5 28.5t45.5 58
q-49 -6 -80.5 7t-44 39t-5.5 61.5t35 74.5q22 31 57 48.5t67 17t54.5 -21t19.5 -66.5q-1 -8 -4 -22.5t-7.5 -31t-10 -33t-11.5 -28.5q-1 -1 -4.5 -2t0 -2.5t19 -3t53.5 -1.5q-13 -26 -14 -52t8 -43q9 3 20 15t24 29.5t27.5 38.5t30.5 42l15 -4l5 -16q-17 -27 -36 -58.5
t-41.5 -61t-49 -52.5t-58.5 -34q-11 -5 -22.5 -0.5t-16.5 17.5q-7 19 -8 37t2 35t8.5 35t11.5 38l4 5q-17 -37 -42 -69t-53.5 -55.5t-57 -37.5t-51.5 -14z" />
    <glyph glyph-name="afii10071" unicode="&#x451;" horiz-adv-x="279" 
d="M299 202q-20 -27 -48 -55.5t-60 -54.5t-66 -48t-65 -36q-13 -6 -27 -4t-25 11q-26 22 -34.5 56t-1.5 72.5t27.5 79t51.5 76.5t70.5 64t85.5 42q37 -17 48 -48.5t-5 -66.5t-57.5 -69.5t-107.5 -58.5q2 -20 6 -37.5t12 -32.5q16 6 39 17.5t47.5 28t48 38t41.5 46.5l16 -4z
M146 332q-29 -18 -44 -54.5t-17 -78.5q28 13 45.5 32.5t24.5 39.5t4.5 36.5t-13.5 24.5zM161 446q-22 0 -33 15.5t-4 37.5t27 37.5t42 15.5q23 0 34 -15.5t4 -37.5t-27.5 -37.5t-42.5 -15.5zM290 446q-22 0 -33 15.5t-4 37.5t27 37.5t42 15.5t33 -15.5t4 -37.5t-27 -37.5
t-42 -15.5z" />
    <glyph glyph-name="afii10101" unicode="&#x454;" horiz-adv-x="293" 
d="M116 92q16 6 39 18t48 29t48.5 38t41.5 45l15 -4l5 -16q-19 -26 -47 -54t-61 -54.5t-68 -49.5t-66 -37q-12 -5 -25.5 -4.5t-24.5 8.5q-28 18 -40.5 47t-11 63.5t16 71.5t40.5 70q34 43 68.5 67.5t64.5 34.5t53.5 8.5t36.5 -10.5q11 -8 15 -22t-0.5 -29.5t-17.5 -32
t-35 -29.5l-48 40q25 21 23 30t-19 4t-41 -24.5t-42 -55.5q-6 -12 -9 -25l135 12l-14 -50l-127 1q-2 -28 9 -53t38 -37z" />
    <glyph glyph-name="afii10103" unicode="&#x456;" horiz-adv-x="211" 
d="M10 10q-11 -5 -22.5 0t-16.5 17q-15 36 -6.5 84.5t29 98t47 92.5t47.5 68l80 -6q-38 -52 -59 -95t-30 -75.5t-8 -54.5t7 -33q9 3 25 14t34.5 26.5t38 35t35.5 40.5l15 -4l5 -16q-19 -26 -44 -55t-53.5 -56t-60 -48.5t-63.5 -32.5zM201 503q-26 0 -39 18.5t-5 44.5
t32 44.5t50 18.5t39 -18.5t5 -44.5t-32 -44.5t-50 -18.5z" />
    <glyph glyph-name="afii10104" unicode="&#x457;" horiz-adv-x="211" 
d="M10 10q-11 -5 -22.5 0t-16.5 17q-15 36 -6.5 84.5t29 98t47 92.5t47.5 68l80 -6q-38 -52 -59 -95t-30 -75.5t-8 -54.5t7 -33q9 3 25 14t34.5 26.5t38 35t35.5 40.5l15 -4l5 -16q-19 -26 -44 -55t-53.5 -56t-60 -48.5t-63.5 -32.5zM87 444q-21 0 -32 14.5t-4 34.5
q6 20 26.5 34.5t41.5 14.5q22 0 33 -14.5t4 -34.5t-27 -34.5t-42 -14.5zM215 444q-22 0 -33 14.5t-4 34.5q6 20 26 34.5t42 14.5q21 0 32 -14.5t4 -34.5q-6 -20 -26 -34.5t-41 -14.5z" />
    <glyph glyph-name="afii10110" unicode="&#x45e;" horiz-adv-x="410" 
d="M430 202q-38 -51 -91 -100.5t-125 -88.5q-14 -44 -27.5 -86t-27 -79.5t-27.5 -69t-29 -53.5q-51 -75 -104.5 -125t-116.5 -75q-44 6 -64.5 29.5t-18.5 59.5t25 83t64.5 99t100.5 108t133 110l30 89q-29 -31 -61.5 -54.5t-65.5 -36.5q-16 -6 -31.5 1.5t-20.5 23.5
q-11 37 -2.5 84.5t27 95t42.5 88t44 64.5l76 -3q-23 -32 -41 -69t-29 -73t-13.5 -67t7.5 -51q26 8 50.5 31.5t47.5 53.5q18 54 45.5 102.5t81.5 86.5l52 -10q-17 -17 -33 -46.5t-31.5 -67.5t-30.5 -83t-30 -92q55 32 101 68t73 73l15 -4zM-96 -409q24 13 49 49t50 84.5
t48 104.5t43 109q-60 -53 -100.5 -106.5t-63 -100t-28.5 -83t2 -57.5zM244 440q-25 1 -43.5 13t-28 30t-10 40.5t9.5 45.5l69 -10q-2 -25 9 -38.5t27.5 -14.5t34.5 11.5t32 40.5h43q-18 -56 -53.5 -88t-89.5 -30z" />
    <glyph glyph-name="afii10050" unicode="&#x490;" horiz-adv-x="612" 
d="M777 797q34 -25 52 -55.5t20 -60.5t-13 -56t-46 -42.5t-79 -20.5t-112 11q-24 -20 -44 -54.5t-37.5 -76.5t-33.5 -89t-33.5 -93t-37 -87.5t-42.5 -72.5q-37 -49 -91 -76t-117 -27q-42 0 -75.5 12t-55.5 35q-30 35 -29 78q1 23 9.5 45.5t24.5 40.5t39.5 29t53.5 11
q20 0 35 -4q-19 -42 -2 -74q10 -18 29.5 -28t43.5 -10h9.5t9.5 1q30 6 54 29t44.5 55t37 68t31.5 69q15 34 31.5 70t34.5 67.5t38 55.5t43 35q-10 2 -19.5 5t-19.5 6q-42 12 -81.5 21t-74.5 9q-45 0 -77 -20q-48 -29 -61.5 -61.5t-6.5 -55.5q5 -20 21 -31.5t38 -11.5
q3 0 7 0.5t9 1.5q56 11 73 65q9 23 4 46q30 0 37 -31q4 -17 -0.5 -41t-20.5 -50.5t-44.5 -53t-73.5 -48.5q-46 -20 -80 -20q-37 0 -63 20t-34 55q-6 27 1 59t29.5 65.5t61.5 66t96 59.5q75 37 188 37q45 0 89.5 -6t84.5 -10q47 -5 77.5 4t46 27.5t15.5 46.5t-14 61z" />
    <glyph glyph-name="afii10098" unicode="&#x491;" horiz-adv-x="351" 
d="M113 416q-6 -8 -7 -27t3 -42q6 5 11.5 9t11.5 8q24 17 48.5 24t59.5 -5q32 -21 35.5 -54.5t-29.5 -81.5q-5 -8 -17 -24.5t-25.5 -37t-26.5 -42.5t-20 -40q-7 -17 -2 -26t15.5 -11.5t24.5 1t26 12.5q16 12 32.5 27.5t31.5 32.5t28 34t22 31l13 -4l7 -16q-16 -26 -36 -52.5
t-43.5 -50.5t-50.5 -43t-58 -30q-28 -10 -53.5 -11t-43.5 9q-24 13 -31 41t13 66q4 7 15.5 23t26.5 36.5t30 43t26 42.5t15.5 35t-1.5 21q-10 8 -21.5 6t-24.5 -10q5 -17 11.5 -29.5t14.5 -18.5q-19 -1 -33.5 4.5t-25.5 15.5q-19 -20 -35.5 -42t-27.5 -37l-19 25
q14 21 30 41t33 38q-8 14 -13.5 29.5t-9 30.5t-5.5 28t-3 22z" />
    <glyph glyph-name="endash" unicode="&#x2013;" horiz-adv-x="603" 
d="M518 200h-476l27 52h476z" />
    <glyph glyph-name="emdash" unicode="&#x2014;" horiz-adv-x="820" 
d="M738 200h-696l27 52h696z" />
    <glyph glyph-name="quoteleft" unicode="&#x2018;" horiz-adv-x="125" 
d="M80 424q-32 0 -47.5 22.5t-6.5 54.5q11 32 38 53l2 2l139 108l30 -33l-66 -69q23 -24 11 -61q-10 -32 -38.5 -54.5t-61.5 -22.5z" />
    <glyph glyph-name="quoteright" unicode="&#x2019;" horiz-adv-x="122" 
d="M217 664q32 0 47.5 -22.5t6.5 -54.5q-11 -32 -38 -53v-1q-1 0 -2 -1l-138 -108l-31 33l66 69q-23 24 -11 61q4 16 14.5 30t24 24.5t29.5 16.5t32 6z" />
    <glyph glyph-name="quotesinglbase" unicode="&#x201a;" horiz-adv-x="271" 
d="M107 164q32 0 47.5 -22.5t6.5 -54.5q-11 -32 -38 -53v-1q-1 0 -2 -1l-138 -108l-31 33l66 69q-23 24 -11 61q4 16 14.5 30t24 24.5t29.5 16.5t32 6z" />
    <glyph glyph-name="quotedblleft" unicode="&#x201c;" horiz-adv-x="261" 
d="M80 424q-32 0 -47.5 22.5t-6.5 54.5q11 32 38 53l2 2l139 108l30 -33l-66 -69q9 -10 12 -22l7.5 7.5t8.5 6.5v1q1 0 2 1l138 108l31 -33l-66 -69q23 -24 11 -61q-10 -32 -38.5 -54.5t-61.5 -22.5q-21 0 -35.5 10.5t-19.5 27.5q-15 -17 -36 -27.5t-42 -10.5z" />
    <glyph glyph-name="quotedblright" unicode="&#x201d;" horiz-adv-x="261" 
d="M350 664q32 0 47.5 -22.5t6.5 -54.5q-11 -32 -38 -53l-2 -2l-139 -108l-30 33l66 69q-8 7 -13 22q-3 -5 -7 -8l-8 -6v-1q-1 0 -2 -1l-138 -108l-31 33l66 69q-23 24 -11 61q4 16 14.5 30t24 24.5t29.5 16.5t32 6q21 0 35.5 -10.5t19.5 -27.5q15 17 35.5 27.5t42.5 10.5z
" />
    <glyph glyph-name="quotedblbase" unicode="&#x201e;" horiz-adv-x="386" 
d="M240 164q32 0 47.5 -22.5t6.5 -54.5q-11 -32 -38 -53l-2 -2l-139 -108l-30 33l66 69q-8 7 -13 22q-3 -5 -7 -8l-8 -6v-1q-1 0 -2 -1l-138 -108l-31 33l66 69q-23 24 -11 61q4 16 14.5 30t24 24.5t29.5 16.5t32 6q21 0 35.5 -10.5t19.5 -27.5q15 17 35.5 27.5t42.5 10.5z
" />
    <glyph glyph-name="dagger" unicode="&#x2020;" horiz-adv-x="542" 
d="M50 -294l274 753h-117l27 52h109l86 235l47 -17l-80 -218h113l-27 -52h-105l-280 -770z" />
    <glyph glyph-name="daggerdbl" unicode="&#x2021;" horiz-adv-x="542" 
d="M50 -294l89 244h-112l27 51h103l167 458h-117l27 52h109l86 235l47 -17l-80 -218h113l-27 -52h-105l-167 -458h119l-27 -51h-110l-95 -261z" />
    <glyph glyph-name="bullet" unicode="&#x2022;" horiz-adv-x="540" 
d="M236 154q-27 0 -47.5 10t-33 27.5t-15.5 41t5 50.5q9 27 26.5 51t40 41.5t49 27.5t53.5 10t47.5 -10t33 -27.5t15.5 -41.5t-6 -51q-8 -27 -25 -50.5t-39.5 -41t-49.5 -27.5t-54 -10z" />
    <glyph glyph-name="ellipsis" unicode="&#x2026;" horiz-adv-x="579" 
d="M53 7q-29 0 -42.5 19.5t-5.5 48.5q9 29 34.5 48.5t54.5 19.5q28 0 42 -19.5t5 -48.5q-8 -29 -33.5 -48.5t-54.5 -19.5zM222 7q-29 0 -42.5 19.5t-5.5 48.5q9 29 34.5 48.5t54.5 19.5q28 0 42 -19.5t5 -48.5q-8 -29 -33.5 -48.5t-54.5 -19.5zM391 7q-29 0 -42.5 19.5
t-5.5 48.5q9 29 34.5 48.5t54.5 19.5q28 0 42 -19.5t5 -48.5q-8 -29 -33.5 -48.5t-54.5 -19.5z" />
    <glyph glyph-name="perthousand" unicode="&#x2030;" horiz-adv-x="794" 
d="M650 212q39 -12 50.5 -37.5t1.5 -56t-37.5 -61.5t-65.5 -53.5t-83.5 -32.5t-91.5 2q-10 2 -17.5 5.5t-13.5 7.5q-32 -14 -68 -18t-71 5q-40 10 -51.5 35t-1.5 56t38 63t66.5 55t84 33t90.5 -3q8 -3 15.5 -6t12.5 -7q33 14 69.5 19t72.5 -6zM293 464q39 -12 50 -38
t1.5 -56.5t-37 -61.5t-66 -53.5t-83.5 -32.5t-91 2q-40 10 -51.5 35.5t-1.5 56.5t38 62.5t66.5 55t84 33.5t90.5 -3zM-38 -15l600 518l32 -38l-600 -518zM111 256q17 -6 39 3t43 26.5t39 40.5t27.5 44.5t8 38.5t-18.5 23t-39 -3t-43 -26.5t-39 -40.5t-27.5 -44.5t-8 -38.5
t18.5 -23zM298 5q14 -5 32 0.5t37 18.5q-3 16 2 34.5t16.5 37.5t28.5 37t38 33q-4 9 -16 14q-18 6 -39.5 -3.5t-43 -27t-39 -40t-27 -44t-8.5 -38t19 -22.5zM468 5q17 -6 39 3t43 26.5t39 40t27.5 44t8 38.5t-18.5 23q-15 5 -33.5 -1t-37.5 -19q6 -32 -17 -71.5t-66 -70.5
q4 -10 16 -13z" />
    <glyph glyph-name="guilsinglleft" unicode="&#x2039;" horiz-adv-x="372" 
d="M56 221l248 150l27 -41l-180 -109l84 -104l-57 -53z" />
    <glyph glyph-name="guilsinglright" unicode="&#x203a;" horiz-adv-x="410" 
d="M22 112l209 109l-84 104l58 51l121 -155l-278 -152z" />
    <glyph glyph-name="Euro" unicode="&#x20ac;" horiz-adv-x="514" 
d="M170 91q6 -45 31 -73q22 -25 53 -25q35 0 52 33q7 13 7.5 26t-5.5 23q-7 13 -25 13q-9 0 -15 -2l-4 -1l-4 3q-33 36 -18 73q9 23 32 36.5t52 13.5q22 0 50 -11q53 -24 48 -91q-2 -22 -13 -46.5t-31 -47t-49 -41.5t-68 -30q-25 -7 -57 -7q-51 0 -90 23t-53 61
q-11 33 -8 70h-53v49h61l5 14h-47v50h67q9 18 21 36l15 21q-31 31 -36.5 70t6.5 66q12 29 35.5 46.5t49.5 17.5h5q26 -2 36.5 -13t13.5 -19q5 -12 3 -25.5t-9 -22.5l-5 -7l-6 6q-7 6 -12.5 8t-9.5 2q-16 0 -29 -19q-9 -14 -10.5 -33.5t4.5 -31.5l1 1q30 32 63.5 59
t66.5 46.5t64.5 30t58.5 10.5q36 0 56 -20q16 -16 14 -37.5t-8 -33.5q-11 -26 -33.5 -51.5t-53 -46t-67.5 -33t-77 -12.5q-9 0 -17.5 0.5t-17.5 1.5l-20 4q-2 -5 -4 -10.5t-4 -10.5h43v-50h-54q0 -4 -0.5 -7.5t-0.5 -6.5h55v-49h-55zM323 389q-69 -38 -113 -119l16 -3
q3 -1 14 -1q28 0 51 13t40 31t26.5 37.5t9.5 32.5q0 8 -3 13q-5 5 -13 5q-12 0 -28 -9z" />
    <glyph glyph-name="afii61352" unicode="&#x2116;" horiz-adv-x="918" 
d="M396 21q-9 40 12.5 113.5t82.5 172.5q-4 23 -9 49.5t-9 54t-5.5 54.5t2.5 52q-29 -20 -55.5 -74t-56.5 -124q-25 -57 -53.5 -117.5t-61.5 -110.5t-71.5 -82.5t-84.5 -34.5q-24 -1 -46.5 11t-32.5 41q-11 34 4 81.5t66 92.5q1 -5 3 -8.5t4 -7.5q14 -23 46 -23q28 0 62 19
q23 13 44 35.5t40.5 51t38.5 62t38 68.5q21 39 42.5 77.5t45 70t48.5 53.5t53 28l4 -11q-6 -33 -3.5 -78.5t14.5 -103.5l4 -22l13 18q75 100 139.5 154.5t106.5 54.5q17 0 29 -12q9 -9 7 -26q-2 -27 -29.5 -72t-92.5 -100q-8 16 -17.5 20.5t-17.5 4.5q-24 0 -57 -30t-68 -85
q6 -54 0.5 -108.5t-19.5 -101.5t-36.5 -83t-49.5 -53q-22 -14 -45 -5.5t-29 34.5zM234 489q-21 0 -42.5 9t-32.5 32q-5 9 -6.5 24t6.5 35q8 19 27.5 31t42.5 12q19 0 36 -9q-10 -17 -2 -33q3 -6 13 -13.5t36 -7.5q48 0 123 33q-19 -24 -43 -45t-50.5 -36t-54 -23.5
t-53.5 -8.5zM484 185q-37 -57 -48.5 -100t-2.5 -60q4 -9 15 -9q20 0 38 52q16 45 16 111v34zM769 57h-176l27 52h176zM843 408q36 -6 51.5 -29.5t13 -56t-20 -67t-46.5 -62.5t-67.5 -44.5t-83.5 -11.5q-37 4 -52.5 27t-13 56t21 68.5t47.5 64.5t67.5 45.5t82.5 9.5zM723 175
q17 -3 34.5 9t33 32.5t26.5 45.5t14.5 47.5t-1.5 40t-20 20.5q-18 4 -35 -8.5t-32 -33.5t-26 -46t-15 -47.5t0.5 -39.5t20.5 -20z" />
    <glyph glyph-name="trademark" unicode="&#x2122;" horiz-adv-x="849" 
d="M163 225q-43 0 -66 24.5t-25 54.5q-2 25 14.5 51t60.5 36q-8 -21 2 -37q10 -19 40 -19q8 0 17.5 1.5t19.5 6.5q21 8 37.5 25t30.5 38.5t25.5 46.5t22.5 49q15 35 30 64.5t32 37.5q-25 8 -49 14.5t-47 6.5q-40 0 -68 -23q-28 -22 -33.5 -46.5t0.5 -41.5q7 -27 33 -27
q21 0 32 15q10 13 10 32q0 30 -20 35q4 11 12.5 16t16.5 5q19 0 29 -16q16 -25 -2 -67q-10 -26 -25 -44t-32 -30t-35 -17.5t-34 -5.5q-35 0 -53 24q-16 20 -10 57q6 35 34 72.5t70 66.5q70 47 148 47q42 0 83 -10l1 -1q42 -9 68.5 -14.5t43.5 -5.5q8 0 16 1.5t14 9.5
q8 -27 -5 -45q-20 -37 -74 -37q-10 0 -13 1q-23 2 -46.5 8.5t-46.5 14.5q-17 -20 -27.5 -52t-21.5 -70q-9 -32 -20 -66t-26 -66q10 9 24 18q0 -6 4 -13q3 -4 9 -7.5t18 -3.5h3q15 1 33.5 14t38.5 33.5t41.5 47t41.5 53.5q15 21 30.5 44.5t28.5 46t22.5 41.5t12.5 30
q7 5 15 5q7 0 13 -6q19 -21 15 -85v-13l12 12q42 40 77 58.5t64 19.5l4 -4q-11 -14 -25.5 -34.5t-29.5 -45t-28 -52.5t-21 -56q-17 -59 1 -84q10 -10 19 -10q12 0 25 13q0 -21 -6 -44.5t-17 -44.5q-14 -26 -33.5 -41t-36.5 -15q-10 0 -20 7q-43 31 -9.5 129t136.5 252
q-4 0 -10 -3q-31 -16 -58.5 -40.5t-47.5 -44.5l-2 -1v-2q-7 -42 -19 -87.5t-34 -93.5q-29 -63 -57.5 -92.5t-46.5 -24.5q-17 7 -15.5 36t20.5 71q7 15 19.5 37.5t28.5 48t35.5 52t40.5 51.5l2 2q1 7 1 13.5t1 13.5q0 11 -0.5 24t-5.5 22q-7 -9 -17 -23.5t-22 -34.5
q-9 -15 -26.5 -48t-41 -73t-52.5 -81t-60 -71q-21 -21 -42.5 -29.5t-39.5 -7t-30.5 12t-15.5 27.5q-3 12 0 28q-31 -40 -78 -58q-29 -9 -53 -9zM621 462q-12 -16 -23.5 -33.5t-20.5 -33.5t-13.5 -29t-2.5 -20q1 -5 7 -9h4q10 0 20.5 17t19.5 38t14.5 40t6.5 24l10 34z" />
    </font>
</defs>
</svg>
